{"glyphs":{"0":{"ha":908,"x_min":76,"x_max":832,"o":"m 454 -19 q 251 44 336 -19 q 122 226 167 107 q 76 510 76 344 l 76 510 q 122 794 76 675 q 251 976 167 913 q 454 1039 336 1039 l 454 1039 q 657 976 572 1039 q 787 794 742 913 q 832 510 832 675 l 832 510 q 787 226 832 344 q 657 44 742 107 q 454 -19 572 -19 l 454 -19 z m 454 94 q 644 201 578 94 q 711 510 711 307 l 711 510 q 644 819 711 713 q 454 925 578 925 l 454 925 q 264 819 331 925 q 197 510 197 713 l 197 510 q 264 201 197 307 q 454 94 331 94 l 454 94 z "},"1":{"ha":558,"x_min":58,"x_max":411,"o":"m 397 0 l 310 0 q 296 15 296 0 l 296 15 l 296 853 l 99 743 q 90 740 93 740 l 90 740 q 79 750 85 740 l 79 750 l 61 781 q 58 789 58 786 l 58 789 q 65 800 58 796 l 65 800 l 318 1013 q 336 1019 325 1019 l 336 1019 l 397 1019 q 411 1006 411 1019 l 411 1006 l 411 15 q 397 0 411 0 l 397 0 z "},"2":{"ha":842,"x_min":68,"x_max":757,"o":"m 743 0 l 99 0 q 83 15 83 0 l 83 15 l 83 40 q 90 58 83 49 l 90 58 l 338 332 q 503 526 447 453 q 578 651 558 600 q 597 758 597 703 l 597 758 q 544 881 597 836 q 404 925 490 925 l 404 925 q 267 883 324 925 q 183 763 210 842 l 183 763 q 165 753 179 749 l 165 753 l 83 775 q 72 793 68 778 l 72 793 q 197 974 110 910 q 408 1039 285 1039 l 408 1039 q 569 1005 499 1039 q 678 910 639 971 q 717 768 717 849 l 717 768 q 695 633 717 697 q 610 482 674 569 q 421 263 546 394 l 421 263 l 276 110 l 743 110 q 757 96 757 110 l 757 96 l 757 15 q 743 0 757 0 l 743 0 z "},"3":{"ha":838,"x_min":63,"x_max":761,"o":"m 414 -19 q 190 53 285 -19 q 64 256 96 125 l 64 256 l 63 261 q 74 272 63 269 l 74 272 l 154 294 l 158 294 q 172 285 168 294 l 172 285 q 263 143 200 192 q 414 94 325 94 l 414 94 q 532 121 481 94 q 613 192 583 147 q 642 294 642 238 l 642 294 q 580 432 642 381 q 415 483 518 483 l 415 483 l 360 483 q 346 499 346 483 l 346 499 l 346 571 q 360 585 346 585 l 360 585 l 418 585 q 562 633 506 585 q 618 753 618 681 l 618 753 q 560 876 618 828 q 411 925 501 925 l 411 925 q 269 881 328 925 q 188 763 211 838 l 188 763 q 169 753 183 749 l 169 753 l 88 775 q 78 793 74 779 l 78 793 q 199 972 110 906 q 413 1039 289 1039 l 413 1039 q 580 1004 506 1039 q 697 908 654 969 q 739 771 739 847 l 739 771 q 693 629 739 692 q 564 536 647 567 l 564 536 q 709 442 657 508 q 761 282 761 376 l 761 282 q 717 128 761 197 q 594 20 674 60 q 414 -19 515 -19 l 414 -19 z "},"4":{"ha":911,"x_min":53,"x_max":853,"o":"m 682 0 l 596 0 q 581 15 581 0 l 581 15 l 581 224 l 68 224 q 53 239 53 224 l 53 239 l 53 267 q 58 285 53 278 l 58 285 l 603 1011 q 621 1019 610 1019 l 621 1019 l 682 1019 q 697 1006 697 1019 l 697 1006 l 697 333 l 838 333 q 853 319 853 333 l 853 319 l 853 239 q 838 224 853 224 l 838 224 l 697 224 l 697 15 q 682 0 697 0 l 682 0 z m 581 821 l 219 333 l 581 333 l 581 821 z "},"5":{"ha":833,"x_min":74,"x_max":771,"o":"m 429 -19 q 204 53 300 -19 q 75 257 108 126 l 75 257 l 74 263 q 85 275 74 271 l 85 275 l 163 294 l 168 296 q 181 285 176 296 l 181 285 q 273 142 208 190 q 425 94 338 94 l 425 94 q 589 156 526 94 q 651 324 651 218 l 651 324 q 590 492 651 429 q 425 554 529 554 l 425 554 q 185 449 290 554 l 185 449 q 164 446 175 440 l 164 446 l 121 465 q 111 483 110 472 l 111 483 l 158 1006 q 174 1019 160 1019 l 174 1019 l 707 1019 q 721 1006 721 1019 l 721 1006 l 721 925 q 707 910 721 910 l 707 910 l 250 910 l 217 571 q 453 657 314 657 l 453 657 q 619 615 547 657 q 731 498 692 574 q 771 322 771 422 l 771 322 q 728 144 771 222 q 607 24 685 67 q 429 -19 529 -19 l 429 -19 z "},"6":{"ha":818,"x_min":63,"x_max":761,"o":"m 411 -19 q 229 24 308 -19 q 106 147 150 68 q 63 326 63 225 l 63 326 q 100 506 63 418 q 233 733 138 594 l 233 733 l 431 1011 q 449 1019 438 1019 l 449 1019 l 550 1019 q 561 1014 558 1019 q 558 1001 564 1008 l 558 1001 l 283 618 q 438 658 351 658 l 438 658 q 606 616 532 658 q 720 497 679 574 q 761 322 761 421 l 761 322 q 717 144 761 221 q 594 24 674 67 q 411 -19 515 -19 l 411 -19 z m 411 94 q 576 157 514 94 q 639 325 639 219 l 639 325 q 577 492 639 431 q 411 554 515 554 l 411 554 q 244 492 307 554 q 182 325 182 431 l 182 325 q 244 157 182 219 q 411 94 307 94 l 411 94 z "},"7":{"ha":806,"x_min":56,"x_max":743,"o":"m 311 0 l 213 0 q 201 5 204 0 q 201 17 199 10 l 201 17 l 593 910 l 71 910 q 56 925 56 910 l 56 925 l 56 1006 q 71 1019 56 1019 l 71 1019 l 728 1019 q 743 1006 743 1019 l 743 1006 l 743 978 q 739 960 743 968 l 739 960 l 329 11 q 311 0 322 0 l 311 0 z "},"8":{"ha":869,"x_min":69,"x_max":800,"o":"m 435 -19 q 246 18 329 -19 q 116 124 163 56 q 69 279 69 192 l 69 279 q 125 440 69 371 q 276 539 181 510 l 276 539 q 148 630 196 567 q 100 771 100 693 l 100 771 q 143 910 100 849 q 263 1005 186 971 q 435 1039 339 1039 l 435 1039 q 608 1005 532 1039 q 726 910 683 971 q 769 771 769 849 l 769 771 q 722 630 769 693 q 593 539 674 567 l 593 539 q 744 440 688 510 q 800 279 800 369 l 800 279 q 753 124 800 192 q 624 19 707 57 q 435 -19 540 -19 l 435 -19 z m 435 581 q 590 631 529 581 q 650 758 650 681 l 650 758 q 590 883 650 833 q 435 933 529 933 l 435 933 q 280 883 340 933 q 219 758 219 833 l 219 758 q 280 631 219 681 q 435 581 340 581 l 435 581 z m 435 88 q 562 113 506 88 q 649 185 618 139 q 681 290 681 232 l 681 290 q 649 392 681 347 q 562 463 618 438 q 435 489 506 489 l 435 489 q 308 463 364 489 q 220 392 251 438 q 189 290 189 347 l 189 290 q 220 185 189 232 q 308 113 251 139 q 435 88 364 88 l 435 88 z "},"9":{"ha":817,"x_min":57,"x_max":756,"o":"m 354 0 l 254 0 q 243 6 246 0 q 246 18 240 11 l 246 18 l 529 400 q 381 363 465 363 l 381 363 q 211 404 285 363 q 97 522 138 446 q 57 699 57 599 l 57 699 q 101 877 57 800 q 224 997 144 954 q 406 1039 303 1039 l 406 1039 q 589 995 510 1039 q 712 873 668 951 q 756 693 756 794 l 756 693 q 717 510 756 600 q 579 288 678 421 l 579 288 l 372 10 q 354 0 365 0 l 354 0 z m 407 465 q 573 528 511 465 q 635 696 635 590 l 635 696 q 573 863 635 801 q 407 925 511 925 l 407 925 q 240 863 303 925 q 178 696 178 801 l 178 696 q 240 528 178 590 q 407 465 303 465 l 407 465 z "},"\u0000":{"ha":0,"x_min":null,"x_max":null,"o":""},"\r":{"ha":310,"x_min":null,"x_max":null,"o":""}," ":{"ha":310,"x_min":null,"x_max":null,"o":""},"A":{"ha":1000,"x_min":35,"x_max":965,"o":"m 144 0 l 49 0 q 38 5 40 0 q 38 17 35 10 l 38 17 l 442 1008 q 460 1019 447 1019 l 460 1019 l 542 1019 q 558 1008 554 1019 l 558 1008 l 964 17 l 965 11 q 953 0 965 0 l 953 0 l 853 0 q 836 11 840 0 l 836 11 l 740 256 l 258 256 l 163 11 q 144 0 157 0 l 144 0 z m 499 875 l 300 364 l 699 364 l 499 875 z "},"B":{"ha":932,"x_min":125,"x_max":857,"o":"m 490 0 l 140 0 q 125 15 125 0 l 125 15 l 125 1006 q 140 1019 125 1019 l 140 1019 l 472 1019 q 724 948 639 1019 q 808 761 808 876 l 808 761 q 769 619 808 678 q 654 533 729 560 l 654 533 q 806 446 754 510 q 857 285 857 382 l 857 285 q 767 76 857 153 q 490 0 676 0 l 490 0 z m 465 911 l 242 911 l 242 581 l 474 581 q 637 624 583 581 q 690 746 690 667 l 690 746 q 633 867 690 824 q 465 911 576 911 l 465 911 z m 490 474 l 242 474 l 242 110 l 490 110 q 676 157 614 110 q 738 293 738 204 l 738 293 q 676 427 738 381 q 490 474 614 474 l 490 474 z "},"C":{"ha":1082,"x_min":81,"x_max":1013,"o":"m 564 -19 q 310 45 419 -19 q 141 230 201 110 q 81 510 81 350 l 81 510 q 142 790 81 669 q 313 974 203 910 q 565 1039 422 1039 l 565 1039 q 828 969 719 1039 q 989 771 936 900 l 989 771 l 990 765 q 979 751 990 756 l 979 751 l 894 726 l 889 725 q 876 735 882 725 l 876 735 q 567 925 786 925 l 567 925 q 369 872 451 925 q 244 726 286 819 q 201 510 201 632 l 201 510 q 244 292 201 386 q 369 147 288 199 q 567 94 451 94 l 567 94 q 773 154 689 94 q 897 326 857 214 l 897 326 q 915 336 901 340 l 915 336 l 1000 311 q 1010 296 1013 307 l 1010 296 q 850 66 964 151 q 564 -19 736 -19 l 564 -19 z "},"D":{"ha":1039,"x_min":125,"x_max":958,"o":"m 444 0 l 140 0 q 125 15 125 0 l 125 15 l 125 1006 q 140 1019 125 1019 l 140 1019 l 444 1019 q 828 885 699 1019 q 958 510 958 750 l 958 510 q 828 135 958 271 q 444 0 699 0 l 444 0 z m 431 910 l 242 910 l 242 110 l 431 110 q 735 214 632 110 q 838 510 838 318 l 838 510 q 735 806 838 701 q 431 910 632 910 l 431 910 z "},"E":{"ha":839,"x_min":125,"x_max":785,"o":"m 771 0 l 140 0 q 125 15 125 0 l 125 15 l 125 1006 q 140 1019 125 1019 l 140 1019 l 754 1019 q 769 1006 769 1019 l 769 1006 l 769 925 q 754 910 769 910 l 754 910 l 242 910 l 242 582 l 710 582 q 724 567 724 582 l 724 567 l 724 488 q 710 474 724 474 l 710 474 l 242 474 l 242 110 l 771 110 q 785 96 785 110 l 785 96 l 785 15 q 771 0 785 0 l 771 0 z "},"F":{"ha":800,"x_min":125,"x_max":750,"o":"m 226 0 l 140 0 q 125 15 125 0 l 125 15 l 125 1006 q 140 1019 125 1019 l 140 1019 l 735 1019 q 750 1006 750 1019 l 750 1006 l 750 925 q 735 910 750 910 l 735 910 l 242 910 l 242 558 l 675 558 q 690 544 690 558 l 690 544 l 690 464 q 675 449 690 449 l 675 449 l 242 449 l 242 15 q 226 0 242 0 l 226 0 z "},"G":{"ha":1107,"x_min":81,"x_max":1026,"o":"m 569 -19 q 314 46 425 -19 q 142 231 203 111 q 81 510 81 350 l 81 510 q 143 789 81 669 q 317 974 206 908 q 571 1039 428 1039 l 571 1039 q 833 969 725 1039 q 993 771 942 899 l 993 771 q 994 764 994 768 l 994 764 q 985 751 994 754 l 985 751 l 899 726 l 894 725 q 881 735 886 725 l 881 735 q 572 925 793 925 l 572 925 q 372 872 456 925 q 245 726 289 819 q 201 510 201 632 l 201 510 q 245 294 201 388 q 373 147 289 200 q 572 94 457 94 l 572 94 q 818 182 726 94 q 910 422 910 269 l 910 422 l 597 422 q 582 436 582 422 l 582 436 l 582 515 q 597 531 582 531 l 597 531 l 1011 531 q 1026 515 1026 531 l 1026 515 l 1026 429 q 974 199 1026 300 q 818 39 921 97 q 569 -19 715 -19 l 569 -19 z "},"H":{"ha":1049,"x_min":125,"x_max":924,"o":"m 226 0 l 140 0 q 125 15 125 0 l 125 15 l 125 1006 q 140 1019 125 1019 l 140 1019 l 226 1019 q 242 1006 242 1019 l 242 1006 l 242 581 l 808 581 l 808 1006 q 822 1019 808 1019 l 822 1019 l 910 1019 q 924 1006 924 1019 l 924 1006 l 924 15 q 910 0 924 0 l 910 0 l 822 0 q 808 15 808 0 l 808 15 l 808 471 l 242 471 l 242 15 q 226 0 242 0 l 226 0 z "},"I":{"ha":367,"x_min":125,"x_max":242,"o":"m 226 0 l 140 0 q 125 15 125 0 l 125 15 l 125 1006 q 140 1019 125 1019 l 140 1019 l 226 1019 q 242 1006 242 1019 l 242 1006 l 242 15 q 226 0 242 0 l 226 0 z "},"J":{"ha":692,"x_min":17,"x_max":579,"o":"m 290 -19 q 119 33 190 -19 q 18 192 49 86 l 18 192 l 17 197 q 29 210 17 206 l 29 210 l 110 233 l 115 235 q 128 222 124 235 l 128 222 q 290 94 171 94 l 290 94 q 427 156 390 94 q 464 340 464 218 l 464 340 l 464 910 l 168 910 q 153 925 153 910 l 153 925 l 153 1006 q 168 1019 153 1019 l 168 1019 l 565 1019 q 579 1006 579 1019 l 579 1006 l 579 319 q 508 64 579 147 q 290 -19 436 -19 l 290 -19 z "},"K":{"ha":965,"x_min":125,"x_max":913,"o":"m 226 0 l 140 0 q 125 15 125 0 l 125 15 l 125 1006 q 140 1019 125 1019 l 140 1019 l 226 1019 q 242 1006 242 1019 l 242 1006 l 242 460 l 729 1013 q 747 1019 735 1019 l 747 1019 l 849 1019 q 860 1014 858 1019 q 857 1001 863 1008 l 857 1001 l 522 626 l 910 18 l 913 11 q 899 0 913 0 l 899 0 l 794 0 q 778 10 783 0 l 778 10 l 446 540 l 242 313 l 242 15 q 226 0 242 0 l 226 0 z "},"L":{"ha":835,"x_min":125,"x_max":790,"o":"m 775 0 l 140 0 q 125 15 125 0 l 125 15 l 125 1006 q 140 1019 125 1019 l 140 1019 l 226 1019 q 242 1006 242 1019 l 242 1006 l 242 111 l 775 111 q 790 97 790 111 l 790 97 l 790 15 q 775 0 790 0 l 775 0 z "},"M":{"ha":1294,"x_min":125,"x_max":1169,"o":"m 224 0 l 140 0 q 125 15 125 0 l 125 15 l 125 1006 q 140 1019 125 1019 l 140 1019 l 233 1019 q 250 1010 246 1019 l 250 1010 l 650 335 l 1047 1010 q 1064 1019 1053 1019 l 1064 1019 l 1154 1019 q 1169 1006 1169 1019 l 1169 1006 l 1169 15 q 1154 0 1169 0 l 1154 0 l 1071 0 q 1057 15 1057 0 l 1057 15 l 1057 819 l 693 204 q 676 194 689 194 l 676 194 l 618 194 q 601 204 607 194 l 601 204 l 238 819 l 238 15 q 224 0 238 0 l 224 0 z "},"N":{"ha":1039,"x_min":125,"x_max":914,"o":"m 224 0 l 140 0 q 125 15 125 0 l 125 15 l 125 1006 q 140 1019 125 1019 l 140 1019 l 233 1019 q 251 1010 243 1019 l 251 1010 l 801 188 l 801 1006 q 817 1019 801 1019 l 817 1019 l 900 1019 q 914 1006 914 1019 l 914 1006 l 914 15 q 900 0 914 0 l 900 0 l 807 0 q 789 10 797 0 l 789 10 l 238 835 l 238 15 q 224 0 238 0 l 224 0 z "},"O":{"ha":1150,"x_min":81,"x_max":1069,"o":"m 575 -19 q 319 46 431 -19 q 144 231 207 111 q 81 510 81 351 l 81 510 q 144 789 81 669 q 319 974 207 908 q 575 1039 431 1039 l 575 1039 q 832 974 719 1039 q 1007 789 944 908 q 1069 510 1069 669 l 1069 510 q 1007 231 1069 351 q 832 46 944 111 q 575 -19 719 -19 l 575 -19 z m 575 94 q 776 148 692 94 q 906 296 861 201 q 950 510 950 390 l 950 510 q 906 724 950 631 q 776 872 861 818 q 575 925 692 925 l 575 925 q 375 872 460 925 q 246 724 290 818 q 201 510 201 629 l 201 510 q 246 296 201 390 q 375 148 290 201 q 575 94 460 94 l 575 94 z "},"P":{"ha":883,"x_min":125,"x_max":818,"o":"m 226 0 l 140 0 q 125 15 125 0 l 125 15 l 125 1006 q 140 1019 125 1019 l 140 1019 l 436 1019 q 723 931 628 1019 q 818 682 818 843 l 818 682 q 724 432 818 519 q 436 344 629 344 l 436 344 l 242 344 l 242 15 q 226 0 242 0 l 226 0 z m 429 911 l 242 911 l 242 453 l 429 453 q 632 510 567 453 q 697 685 697 567 l 697 685 q 632 854 697 797 q 429 911 567 911 l 429 911 z "},"Q":{"ha":1169,"x_min":81,"x_max":1089,"o":"m 1075 0 l 576 0 q 315 63 426 0 q 142 244 203 126 q 81 517 81 361 l 81 517 q 142 791 81 672 q 315 974 204 910 q 572 1039 426 1039 l 572 1039 q 826 975 717 1039 q 997 797 936 911 q 1057 533 1057 682 l 1057 533 q 997 274 1057 386 q 831 108 936 163 l 831 108 l 1075 108 q 1089 94 1089 108 l 1089 94 l 1089 15 q 1075 0 1089 0 l 1075 0 z m 569 114 q 767 166 685 114 q 894 310 850 218 q 938 521 938 403 l 938 521 q 894 728 938 636 q 767 872 850 819 q 569 925 683 925 l 569 925 q 371 872 454 925 q 244 727 288 819 q 201 519 201 635 l 201 519 q 244 310 201 403 q 371 166 288 218 q 569 114 454 114 l 569 114 z "},"R":{"ha":924,"x_min":125,"x_max":851,"o":"m 226 0 l 140 0 q 125 15 125 0 l 125 15 l 125 1006 q 140 1019 125 1019 l 140 1019 l 436 1019 q 818 686 818 1019 l 818 686 q 773 502 818 579 q 636 386 728 425 l 636 386 l 849 18 q 851 10 851 13 l 851 10 q 839 0 851 0 l 839 0 l 739 0 q 722 10 728 0 l 722 10 l 524 357 q 436 351 489 351 l 436 351 l 242 351 l 242 15 q 226 0 242 0 l 226 0 z m 429 911 l 242 911 l 242 460 l 429 460 q 633 516 568 460 q 697 686 697 572 l 697 686 q 633 856 697 800 q 429 911 568 911 l 429 911 z "},"S":{"ha":817,"x_min":56,"x_max":757,"o":"m 418 -19 q 188 48 281 -19 q 57 249 96 115 l 57 249 l 56 254 q 67 267 56 263 l 67 267 l 150 288 l 156 289 q 168 278 164 289 l 168 278 q 260 138 200 182 q 418 94 319 94 l 418 94 q 578 138 518 94 q 638 258 638 181 l 638 258 q 587 381 638 336 q 428 463 536 425 l 428 463 l 351 489 q 83 771 83 579 l 83 771 q 125 910 83 849 q 240 1005 167 971 q 403 1039 313 1039 l 403 1039 q 618 977 532 1039 q 738 794 704 915 l 738 794 l 739 789 q 728 776 739 779 l 728 776 l 640 754 l 635 753 q 622 764 626 753 l 622 764 q 542 886 596 847 q 403 925 488 925 l 403 925 q 258 883 314 925 q 203 774 203 842 l 203 774 q 253 669 203 714 q 411 589 304 624 l 411 589 l 479 567 q 691 448 625 518 q 757 258 757 378 l 757 258 q 714 115 757 178 q 594 16 671 51 q 418 -19 517 -19 l 418 -19 z "},"T":{"ha":906,"x_min":46,"x_max":860,"o":"m 496 0 l 410 0 q 394 15 394 0 l 394 15 l 394 910 l 60 910 q 46 925 46 910 l 46 925 l 46 1006 q 60 1019 46 1019 l 60 1019 l 846 1019 q 860 1006 860 1019 l 860 1006 l 860 925 q 846 910 860 910 l 846 910 l 511 910 l 511 15 q 496 0 511 0 l 496 0 z "},"U":{"ha":1013,"x_min":113,"x_max":900,"o":"m 506 -19 q 313 24 401 -19 q 168 165 224 67 q 113 415 113 263 l 113 415 l 113 1006 q 128 1019 113 1019 l 128 1019 l 214 1019 q 229 1006 229 1019 l 229 1006 l 229 432 q 306 178 229 261 q 506 94 382 94 l 506 94 q 706 178 629 94 q 783 432 783 263 l 783 432 l 783 1006 q 799 1019 783 1019 l 799 1019 l 885 1019 q 900 1006 900 1019 l 900 1006 l 900 415 q 844 165 900 263 q 699 24 788 68 q 506 -19 610 -19 l 506 -19 z "},"V":{"ha":989,"x_min":36,"x_max":956,"o":"m 536 0 l 454 0 q 436 11 442 0 l 436 11 l 38 1003 q 36 1010 36 1006 l 36 1010 q 49 1019 36 1019 l 49 1019 l 147 1019 q 165 1008 161 1019 l 165 1008 l 497 149 l 828 1008 q 844 1019 832 1019 l 844 1019 l 942 1019 q 952 1015 949 1019 q 953 1003 956 1010 l 953 1003 l 553 11 q 536 0 549 0 l 536 0 z "},"W":{"ha":1517,"x_min":35,"x_max":1482,"o":"m 488 0 l 407 0 q 390 11 393 0 l 390 11 l 36 1003 l 35 1007 q 49 1019 35 1019 l 49 1019 l 149 1019 q 165 1008 161 1019 l 165 1008 l 444 188 l 706 1007 q 721 1019 707 1019 l 721 1019 l 797 1019 q 814 1007 810 1019 l 814 1007 l 1075 188 l 1354 1008 q 1371 1019 1358 1019 l 1371 1019 l 1468 1019 q 1478 1015 1475 1019 q 1481 1003 1482 1010 l 1481 1003 l 1126 11 q 1110 0 1124 0 l 1110 0 l 1029 0 q 1013 13 1017 0 l 1013 13 l 758 813 l 504 13 q 488 0 500 0 l 488 0 z "},"X":{"ha":908,"x_min":39,"x_max":868,"o":"m 149 0 l 53 0 q 42 6 44 0 q 43 18 39 11 l 43 18 l 382 531 l 69 1001 l 67 1010 q 79 1019 67 1019 l 79 1019 l 178 1019 q 194 1010 189 1019 l 194 1010 l 456 608 l 715 1010 q 732 1019 721 1019 l 732 1019 l 829 1019 q 840 1015 838 1019 q 839 1001 843 1010 l 839 1001 l 528 532 l 865 18 q 868 10 868 13 l 868 10 q 856 0 868 0 l 856 0 l 758 0 q 742 10 747 0 l 742 10 l 453 454 l 165 10 q 149 0 161 0 l 149 0 z "},"Y":{"ha":942,"x_min":35,"x_max":910,"o":"m 515 0 l 428 0 q 414 15 414 0 l 414 15 l 414 401 l 38 1001 q 35 1010 35 1007 l 35 1010 q 47 1019 35 1019 l 47 1019 l 147 1019 q 164 1010 160 1019 l 164 1010 l 474 504 l 781 1010 q 797 1019 785 1019 l 797 1019 l 894 1019 q 906 1014 903 1019 q 906 1001 910 1008 l 906 1001 l 529 403 l 529 15 q 515 0 529 0 l 515 0 z "},"Z":{"ha":861,"x_min":56,"x_max":797,"o":"m 782 0 l 69 0 q 56 15 56 0 l 56 15 l 56 42 q 61 60 56 53 l 61 60 l 613 910 l 86 910 q 71 925 71 910 l 71 925 l 71 1006 q 86 1019 71 1019 l 86 1019 l 774 1019 q 788 1006 788 1019 l 788 1006 l 788 978 q 782 960 788 967 l 782 960 l 231 110 l 782 110 q 797 96 797 110 l 797 96 l 797 15 q 782 0 797 0 l 782 0 z "},"a":{"ha":865,"x_min":58,"x_max":757,"o":"m 393 -14 q 217 33 293 -14 q 99 162 140 79 q 58 351 58 244 l 58 351 q 99 540 58 457 q 217 669 140 622 q 393 715 293 715 l 393 715 q 545 678 476 715 q 651 575 614 640 l 651 575 l 656 688 q 671 701 656 701 l 671 701 l 743 701 q 757 688 757 701 l 757 688 l 757 15 q 743 0 757 0 l 743 0 l 671 0 q 656 15 656 0 l 656 15 l 651 128 q 545 24 614 63 q 393 -14 476 -14 l 393 -14 z m 414 89 q 588 161 521 89 q 656 351 656 233 l 656 351 q 625 488 656 428 q 540 580 594 547 q 414 613 485 613 l 414 613 q 288 580 343 613 q 203 488 233 547 q 172 351 172 428 l 172 351 q 240 161 172 233 q 414 89 307 89 l 414 89 z "},"b":{"ha":865,"x_min":108,"x_max":808,"o":"m 472 -14 q 322 24 390 -14 q 215 128 254 61 l 215 128 l 210 15 q 194 0 210 0 l 194 0 l 124 0 q 108 15 108 0 l 108 15 l 108 1028 q 124 1042 108 1042 l 124 1042 l 206 1042 q 219 1028 219 1042 l 219 1028 l 219 582 q 325 680 258 644 q 472 715 392 715 l 472 715 q 649 669 574 715 q 767 540 725 622 q 808 351 808 457 l 808 351 q 767 162 808 244 q 650 33 726 79 q 472 -14 574 -14 l 472 -14 z m 451 89 q 626 161 558 89 q 693 351 693 233 l 693 351 q 663 488 693 428 q 577 580 632 547 q 451 613 522 613 l 451 613 q 326 580 381 613 q 240 488 271 547 q 210 351 210 428 l 210 351 q 277 161 210 233 q 451 89 344 89 l 451 89 z "},"c":{"ha":763,"x_min":58,"x_max":719,"o":"m 407 -14 q 223 33 301 -14 q 101 162 144 79 q 58 351 58 244 l 58 351 q 101 541 58 458 q 224 669 144 624 q 407 715 303 715 l 407 715 q 592 667 517 715 q 704 524 668 619 l 704 524 l 706 518 q 694 506 706 510 l 694 506 l 625 485 l 619 483 q 607 494 611 483 l 607 494 q 413 613 553 613 l 413 613 q 234 538 296 613 q 172 351 172 463 l 172 351 q 234 164 172 239 q 413 89 296 89 l 413 89 q 611 214 556 89 l 611 214 q 629 222 617 226 l 629 222 l 704 203 q 713 185 719 199 l 713 185 q 597 36 675 86 q 407 -14 518 -14 l 407 -14 z "},"d":{"ha":865,"x_min":58,"x_max":757,"o":"m 393 -14 q 217 33 293 -14 q 99 162 140 79 q 58 351 58 244 l 58 351 q 99 540 58 457 q 217 669 140 622 q 393 715 293 715 l 393 715 q 540 680 474 715 q 646 583 607 644 l 646 583 l 646 1028 q 661 1042 646 1042 l 661 1042 l 743 1042 q 757 1028 757 1042 l 757 1028 l 757 15 q 743 0 757 0 l 743 0 l 671 0 q 656 15 656 0 l 656 15 l 651 128 q 545 24 614 63 q 393 -14 476 -14 l 393 -14 z m 414 89 q 588 161 521 89 q 656 351 656 233 l 656 351 q 625 488 656 428 q 540 580 594 547 q 414 613 485 613 l 414 613 q 288 580 343 613 q 203 488 233 547 q 172 351 172 428 l 172 351 q 240 161 172 233 q 414 89 307 89 l 414 89 z "},"e":{"ha":767,"x_min":58,"x_max":722,"o":"m 401 -14 q 219 33 297 -14 q 100 163 142 81 q 58 351 58 246 l 58 351 q 101 540 58 457 q 221 669 143 622 q 401 715 299 715 l 401 715 q 638 610 554 715 q 719 331 722 506 l 719 331 q 704 315 719 315 l 704 315 l 174 315 q 245 149 185 210 q 401 88 306 88 l 401 88 q 606 206 546 88 l 606 206 q 625 213 611 217 l 625 213 l 694 188 q 703 180 701 185 q 703 169 706 175 l 703 169 q 581 32 658 78 q 401 -14 504 -14 l 401 -14 z m 401 615 q 250 558 311 615 q 175 403 189 501 l 175 403 l 601 403 q 541 558 594 500 q 401 615 488 615 l 401 615 z "},"f":{"ha":514,"x_min":22,"x_max":576,"o":"m 247 0 l 165 0 q 150 15 150 0 l 150 15 l 150 601 l 38 601 q 22 615 22 601 l 22 615 l 22 688 q 38 701 22 701 l 38 701 l 150 701 l 150 793 q 210 984 150 917 q 368 1051 269 1051 l 368 1051 q 575 914 511 1051 l 575 914 q 576 908 576 913 l 576 908 q 567 894 576 899 l 567 894 l 501 868 l 496 867 q 482 876 488 867 l 482 876 q 438 931 464 914 q 375 949 411 949 l 375 949 q 290 909 319 949 q 261 792 261 869 l 261 792 l 261 701 l 460 701 q 475 688 475 701 l 475 688 l 475 615 q 460 601 475 601 l 460 601 l 261 601 l 261 15 q 247 0 261 0 l 247 0 z "},"g":{"ha":865,"x_min":58,"x_max":757,"o":"m 411 -317 q 215 -266 297 -317 q 93 -121 132 -215 l 93 -121 q 92 -112 92 -118 l 92 -112 q 101 -103 92 -104 l 101 -103 l 168 -78 q 175 -76 171 -76 l 175 -76 q 188 -85 183 -76 l 188 -85 q 270 -181 217 -147 q 408 -214 324 -214 l 408 -214 q 578 -163 511 -214 q 646 0 646 -112 l 646 0 l 646 119 q 540 22 607 57 q 393 -14 472 -14 l 393 -14 q 217 33 293 -14 q 99 162 140 79 q 58 351 58 244 l 58 351 q 99 540 58 457 q 217 669 140 622 q 393 715 293 715 l 393 715 q 545 678 476 715 q 651 575 614 640 l 651 575 l 656 688 q 671 701 656 701 l 671 701 l 743 701 q 757 688 757 701 l 757 688 l 757 11 q 661 -234 757 -151 q 411 -317 565 -317 l 411 -317 z m 414 89 q 588 161 521 89 q 656 351 656 233 l 656 351 q 625 488 656 428 q 540 580 594 547 q 414 613 485 613 l 414 613 q 288 580 343 613 q 203 488 233 547 q 172 351 172 428 l 172 351 q 240 161 172 233 q 414 89 307 89 l 414 89 z "},"h":{"ha":822,"x_min":108,"x_max":718,"o":"m 206 0 l 124 0 q 108 15 108 0 l 108 15 l 108 1028 q 124 1042 108 1042 l 124 1042 l 206 1042 q 219 1028 219 1042 l 219 1028 l 219 583 q 326 681 258 647 q 467 715 393 715 l 467 715 q 651 647 585 715 q 718 456 718 578 l 718 456 l 718 15 q 704 0 718 0 l 704 0 l 622 0 q 607 15 607 0 l 607 15 l 607 410 q 565 562 607 511 q 438 613 524 613 l 438 613 q 335 585 385 613 q 252 504 285 558 q 219 371 219 450 l 219 371 l 219 15 q 206 0 219 0 l 206 0 z "},"i":{"ha":328,"x_min":90,"x_max":238,"o":"m 164 860 q 111 880 132 860 q 90 931 90 900 l 90 931 q 111 981 90 961 q 164 1001 132 1001 l 164 1001 q 217 981 196 1001 q 238 931 238 961 l 238 931 q 217 880 238 900 q 164 860 196 860 l 164 860 z m 206 0 l 124 0 q 108 15 108 0 l 108 15 l 108 688 q 124 701 108 701 l 124 701 l 206 701 q 219 688 219 701 l 219 688 l 219 15 q 206 0 219 0 l 206 0 z "},"j":{"ha":328,"x_min":-178,"x_max":238,"o":"m 164 860 q 111 880 132 860 q 90 931 90 900 l 90 931 q 111 981 90 961 q 164 1001 132 1001 l 164 1001 q 217 981 196 1001 q 238 931 238 961 l 238 931 q 217 880 238 900 q 164 860 196 860 l 164 860 z m 10 -317 q -176 -186 -128 -317 l -176 -186 q -178 -179 -178 -183 l -178 -179 q -168 -167 -178 -172 l -168 -167 l -104 -143 l -99 -142 q -85 -151 -90 -142 l -85 -151 q -50 -199 -71 -185 q 7 -214 -29 -214 l 7 -214 q 108 -62 108 -214 l 108 -62 l 108 688 q 124 701 108 701 l 124 701 l 206 701 q 219 688 219 701 l 219 688 l 219 -58 q 164 -251 219 -186 q 10 -317 108 -317 l 10 -317 z "},"k":{"ha":758,"x_min":108,"x_max":713,"o":"m 206 0 l 124 0 q 108 15 108 0 l 108 15 l 108 1028 q 124 1042 108 1042 l 124 1042 l 206 1042 q 219 1028 219 1042 l 219 1028 l 219 381 l 543 694 q 561 701 550 701 l 561 701 l 668 701 q 681 693 681 701 l 681 693 q 675 683 681 689 l 675 683 l 422 444 l 710 18 q 713 10 713 13 l 713 10 q 700 0 713 0 l 700 0 l 601 0 q 583 10 590 0 l 583 10 l 340 367 l 219 253 l 219 15 q 206 0 219 0 l 206 0 z "},"l":{"ha":328,"x_min":108,"x_max":219,"o":"m 206 0 l 124 0 q 108 15 108 0 l 108 15 l 108 1028 q 124 1042 108 1042 l 124 1042 l 206 1042 q 219 1028 219 1042 l 219 1028 l 219 15 q 206 0 219 0 l 206 0 z "},"m":{"ha":1285,"x_min":108,"x_max":1181,"o":"m 206 0 l 124 0 q 108 15 108 0 l 108 15 l 108 688 q 124 701 108 701 l 124 701 l 194 701 q 210 688 210 701 l 210 688 l 215 572 q 316 678 250 640 q 457 715 382 715 l 457 715 q 601 675 542 715 q 683 560 660 635 l 683 560 q 788 675 718 635 q 938 715 857 715 l 938 715 q 1115 646 1050 715 q 1181 456 1181 576 l 1181 456 l 1181 15 q 1167 0 1181 0 l 1167 0 l 1085 0 q 1069 15 1069 0 l 1069 15 l 1069 410 q 908 613 1069 613 l 908 613 q 808 585 856 613 q 731 504 761 558 q 700 371 700 450 l 700 371 l 700 15 q 686 0 700 0 l 686 0 l 604 0 q 589 15 589 0 l 589 15 l 589 410 q 428 613 589 613 l 428 613 q 328 585 375 613 q 250 504 281 558 q 219 371 219 450 l 219 371 l 219 15 q 206 0 219 0 l 206 0 z "},"n":{"ha":822,"x_min":108,"x_max":718,"o":"m 206 0 l 124 0 q 108 15 108 0 l 108 15 l 108 688 q 124 701 108 701 l 124 701 l 194 701 q 210 688 210 701 l 210 688 l 215 575 q 322 678 253 642 q 467 715 392 715 l 467 715 q 651 647 585 715 q 718 456 718 578 l 718 456 l 718 15 q 704 0 718 0 l 704 0 l 622 0 q 607 15 607 0 l 607 15 l 607 410 q 565 562 607 511 q 438 613 524 613 l 438 613 q 335 585 385 613 q 252 504 285 558 q 219 371 219 450 l 219 371 l 219 15 q 206 0 219 0 l 206 0 z "},"o":{"ha":828,"x_min":58,"x_max":771,"o":"m 414 -14 q 228 33 308 -14 q 103 163 147 81 q 58 351 58 246 l 58 351 q 103 540 58 457 q 228 669 147 622 q 414 715 308 715 l 414 715 q 601 669 519 715 q 726 540 682 622 q 771 351 771 457 l 771 351 q 726 163 771 246 q 601 33 682 81 q 414 -14 519 -14 l 414 -14 z m 414 89 q 588 161 521 89 q 656 351 656 233 l 656 351 q 625 488 656 428 q 540 580 594 547 q 414 613 485 613 l 414 613 q 288 580 343 613 q 203 488 233 547 q 172 351 172 428 l 172 351 q 240 161 172 233 q 414 89 307 89 l 414 89 z "},"p":{"ha":865,"x_min":108,"x_max":808,"o":"m 206 -303 l 124 -303 q 108 -287 108 -303 l 108 -287 l 108 688 q 124 701 108 701 l 124 701 l 194 701 q 210 688 210 701 l 210 688 l 215 575 q 322 678 254 640 q 472 715 390 715 l 472 715 q 649 669 574 715 q 767 540 725 622 q 808 351 808 457 l 808 351 q 767 162 808 244 q 650 33 726 79 q 472 -14 574 -14 l 472 -14 q 326 22 393 -14 q 219 121 258 58 l 219 121 l 219 -287 q 206 -303 219 -303 l 206 -303 z m 451 89 q 626 161 558 89 q 693 351 693 233 l 693 351 q 663 488 693 428 q 577 580 632 547 q 451 613 522 613 l 451 613 q 326 580 381 613 q 240 488 271 547 q 210 351 210 428 l 210 351 q 277 161 210 233 q 451 89 344 89 l 451 89 z "},"q":{"ha":865,"x_min":58,"x_max":757,"o":"m 743 -303 l 661 -303 q 646 -287 649 -303 l 646 -287 l 646 119 q 540 22 607 57 q 393 -14 472 -14 l 393 -14 q 217 33 293 -14 q 99 162 140 79 q 58 351 58 244 l 58 351 q 99 540 58 457 q 217 669 140 622 q 393 715 293 715 l 393 715 q 545 678 476 715 q 651 575 614 640 l 651 575 l 656 688 q 671 701 656 701 l 671 701 l 743 701 q 757 688 757 701 l 757 688 l 757 -287 q 743 -303 757 -303 l 743 -303 z m 414 89 q 588 161 521 89 q 656 351 656 233 l 656 351 q 625 488 656 428 q 540 580 594 547 q 414 613 485 613 l 414 613 q 288 580 343 613 q 203 488 233 547 q 172 351 172 428 l 172 351 q 240 161 172 233 q 414 89 307 89 l 414 89 z "},"r":{"ha":532,"x_min":108,"x_max":504,"o":"m 206 0 l 124 0 q 108 15 108 0 l 108 15 l 108 688 q 124 701 108 701 l 124 701 l 194 701 q 210 688 210 701 l 210 688 l 215 567 q 317 673 254 635 q 454 711 381 711 l 454 711 q 492 708 482 711 l 492 708 q 504 693 504 707 l 504 693 l 504 613 q 492 599 504 599 l 492 599 q 469 601 483 599 q 442 603 454 603 l 442 603 q 333 574 385 603 q 251 493 282 544 q 219 381 219 442 l 219 381 l 219 15 q 206 0 219 0 l 206 0 z "},"s":{"ha":657,"x_min":49,"x_max":594,"o":"m 343 -14 q 158 33 232 -14 q 50 172 83 79 l 50 172 l 49 178 q 60 190 49 186 l 60 190 l 132 210 q 139 211 135 211 l 139 211 q 150 201 149 211 l 150 201 q 222 115 176 142 q 339 88 268 88 l 339 88 q 441 112 403 88 q 479 183 479 136 l 479 183 q 447 248 479 224 q 342 293 415 272 l 342 293 l 300 304 q 134 390 186 336 q 82 521 82 443 l 82 521 q 149 660 82 606 q 326 715 217 715 l 326 715 q 486 673 419 715 q 583 546 553 631 l 583 546 q 585 539 585 543 l 585 539 q 582 532 585 535 q 575 528 579 529 l 575 528 l 503 506 q 496 504 500 504 l 496 504 q 483 514 489 504 l 483 514 q 325 615 438 615 l 325 615 q 231 590 267 615 q 196 521 196 565 l 196 521 q 228 456 196 481 q 340 410 261 431 l 340 410 l 379 400 q 544 319 493 371 q 594 186 594 267 l 594 186 q 524 41 594 96 q 343 -14 454 -14 l 343 -14 z "},"t":{"ha":551,"x_min":11,"x_max":547,"o":"m 351 -14 q 201 49 254 -14 q 149 243 149 113 l 149 243 l 149 601 l 25 601 q 11 615 11 601 l 11 615 l 11 688 q 25 701 11 701 l 25 701 l 149 701 l 149 917 q 163 931 149 931 l 163 931 l 244 931 q 260 917 260 931 l 260 917 l 260 701 l 454 701 q 468 688 468 701 l 468 688 l 468 615 q 454 601 468 601 l 454 601 l 260 601 l 260 240 q 284 125 260 161 q 361 89 308 89 l 361 89 q 451 153 421 89 l 451 153 q 471 160 458 167 l 471 160 l 533 133 q 539 110 547 126 l 539 110 q 351 -14 478 -14 l 351 -14 z "},"u":{"ha":818,"x_min":104,"x_max":710,"o":"m 354 -14 q 170 56 236 -14 q 104 246 104 125 l 104 246 l 104 688 q 118 701 104 701 l 118 701 l 200 701 q 215 688 215 701 l 215 688 l 215 293 q 256 140 215 192 q 383 89 297 89 l 383 89 q 485 116 436 89 q 567 197 535 143 q 599 331 599 251 l 599 331 l 599 688 q 614 701 599 701 l 614 701 l 696 701 q 710 688 710 701 l 710 688 l 710 15 q 696 0 710 0 l 696 0 l 624 0 q 608 15 608 0 l 608 15 l 604 128 q 498 23 567 60 q 354 -14 429 -14 l 354 -14 z "},"v":{"ha":751,"x_min":35,"x_max":722,"o":"m 401 0 l 350 0 q 333 11 338 0 l 333 11 l 38 685 q 35 693 35 690 l 35 693 q 49 701 35 701 l 49 701 l 146 701 q 164 690 158 701 l 164 690 l 379 164 l 594 690 q 613 701 600 701 l 613 701 l 704 701 q 715 685 722 701 l 715 685 l 419 11 q 401 0 413 0 l 401 0 z "},"w":{"ha":1122,"x_min":35,"x_max":1092,"o":"m 346 0 l 294 0 q 278 11 282 0 l 278 11 l 36 685 l 35 690 q 49 701 35 701 l 49 701 l 147 701 q 164 690 160 701 l 164 690 l 326 193 l 524 690 q 540 701 528 701 l 540 701 l 592 701 q 608 690 603 701 l 608 690 l 800 199 l 967 690 q 983 701 971 701 l 983 701 l 1074 701 q 1086 685 1092 701 l 1086 685 l 844 11 q 828 0 840 0 l 828 0 l 776 0 q 760 11 764 0 l 760 11 l 564 514 l 363 11 q 346 0 358 0 l 346 0 z "},"x":{"ha":719,"x_min":36,"x_max":681,"o":"m 142 0 l 50 0 q 39 6 42 0 q 42 18 36 11 l 42 18 l 292 364 l 60 683 q 57 692 57 686 l 57 692 q 69 701 57 701 l 69 701 l 165 701 q 183 693 178 701 l 183 693 l 363 443 l 542 693 q 560 701 549 701 l 560 701 l 650 701 q 663 697 660 701 q 660 683 665 692 l 660 683 l 428 363 l 678 18 q 681 10 681 15 l 681 10 q 669 0 681 0 l 669 0 l 572 0 q 554 10 561 0 l 554 10 l 357 286 l 160 10 q 142 0 151 0 l 142 0 z "},"y":{"ha":750,"x_min":36,"x_max":715,"o":"m 300 -303 l 214 -303 q 203 -298 207 -303 q 203 -286 200 -293 l 203 -286 l 328 24 l 38 685 q 36 692 36 688 l 36 692 q 49 701 36 701 l 49 701 l 146 701 q 164 690 158 701 l 164 690 l 385 160 l 594 690 q 611 701 600 701 l 611 701 l 701 701 q 713 697 710 701 q 713 685 715 692 l 713 685 l 318 -292 q 300 -303 313 -303 l 300 -303 z "},"z":{"ha":700,"x_min":74,"x_max":626,"o":"m 611 0 l 88 0 q 78 4 82 0 q 74 15 74 8 l 74 15 l 74 38 q 79 56 74 49 l 79 56 l 451 601 l 99 601 q 85 617 85 601 l 85 617 l 85 688 q 99 701 85 701 l 99 701 l 606 701 q 619 688 619 701 l 619 688 l 619 665 q 614 647 619 654 l 614 647 l 242 100 l 611 100 q 626 86 626 100 l 626 86 l 626 15 q 611 0 626 0 l 611 0 z "},"ก":{"ha":854,"x_min":118,"x_max":743,"o":"m 132 771 l 454 771 q 669 701 594 771 q 743 499 743 631 l 743 499 l 743 15 q 728 0 743 0 l 728 0 l 644 0 q 633 4 638 0 q 629 15 629 8 l 629 15 l 629 499 q 581 626 629 582 q 444 671 533 671 l 444 671 l 232 671 l 232 15 q 217 0 232 0 l 217 0 l 133 0 q 122 4 126 0 q 118 15 118 8 l 118 15 l 118 757 q 132 771 118 771 l 132 771 z "},"ถ":{"ha":857,"x_min":113,"x_max":746,"o":"m 126 771 l 458 771 q 672 701 597 771 q 746 499 746 631 l 746 499 l 746 15 q 731 0 746 0 l 731 0 l 647 0 q 632 15 632 0 l 632 15 l 632 499 q 585 626 632 582 q 449 671 538 671 l 449 671 l 226 671 l 226 243 q 255 131 226 169 q 339 93 283 93 l 339 93 q 401 110 372 93 l 401 110 q 411 114 408 114 l 411 114 q 421 106 417 114 l 421 106 l 450 43 q 453 33 453 38 l 453 33 q 447 24 453 29 l 447 24 q 326 -10 404 -10 l 326 -10 q 168 53 224 -10 q 113 231 113 115 l 113 231 l 113 757 q 126 771 113 771 l 126 771 z "},"ฤ":{"ha":857,"x_min":113,"x_max":746,"o":"m 126 771 l 458 771 q 672 701 597 771 q 746 499 746 631 l 746 499 l 746 -285 q 732 -299 746 -299 l 732 -299 l 647 -299 q 632 -285 632 -299 l 632 -285 l 632 499 q 585 626 632 582 q 449 671 538 671 l 449 671 l 226 671 l 226 243 q 255 131 226 169 q 339 93 283 93 l 339 93 q 401 110 372 93 l 401 110 q 411 114 408 114 l 411 114 q 421 106 417 114 l 421 106 l 450 43 q 453 33 453 38 l 453 33 q 447 24 453 29 l 447 24 q 326 -10 404 -10 l 326 -10 q 168 53 224 -10 q 113 231 113 115 l 113 231 l 113 757 q 126 771 113 771 l 126 771 z "},"ภ":{"ha":876,"x_min":24,"x_max":765,"o":"m 160 771 l 476 771 q 690 701 615 771 q 765 499 765 631 l 765 499 l 765 15 q 750 0 765 0 l 750 0 l 665 0 q 651 15 651 0 l 651 15 l 651 499 q 603 626 651 582 q 467 671 556 671 l 467 671 l 260 671 l 260 197 q 213 47 260 100 q 82 -7 167 -7 l 82 -7 q 36 -4 51 -7 l 36 -4 q 24 11 24 -1 l 24 11 l 24 86 q 38 99 24 99 l 38 99 q 61 97 46 97 l 61 97 q 124 126 103 97 q 146 208 146 154 l 146 208 l 146 757 q 160 771 146 771 l 160 771 z "},"ฦ":{"ha":876,"x_min":24,"x_max":765,"o":"m 160 771 l 476 771 q 690 701 615 771 q 765 499 765 631 l 765 499 l 765 -285 q 750 -299 765 -299 l 750 -299 l 665 -299 q 651 -285 651 -299 l 651 -285 l 651 499 q 603 626 651 582 q 467 671 556 671 l 467 671 l 260 671 l 260 197 q 213 47 260 100 q 82 -7 167 -7 l 82 -7 q 36 -4 51 -7 l 36 -4 q 24 11 24 -1 l 24 11 l 24 86 q 38 99 24 99 l 38 99 q 61 97 46 97 l 61 97 q 124 126 103 97 q 146 208 146 154 l 146 208 l 146 757 q 160 771 146 771 l 160 771 z "},"ฎ":{"ha":876,"x_min":24,"x_max":765,"o":"m 160 771 l 476 771 q 690 701 615 771 q 765 499 765 631 l 765 499 l 765 -340 q 750 -354 765 -354 l 750 -354 l 653 -354 q 636 -343 643 -354 l 636 -343 q 558 -263 608 -292 q 444 -235 508 -235 l 444 -235 q 269 -354 318 -235 l 269 -354 q 251 -364 265 -368 l 251 -364 l 172 -339 q 164 -319 157 -332 l 164 -319 q 258 -181 193 -229 q 417 -133 324 -133 l 417 -133 q 552 -165 492 -133 q 651 -256 613 -196 l 651 -256 l 651 499 q 603 626 651 582 q 467 671 556 671 l 467 671 l 260 671 l 260 197 q 213 47 260 100 q 82 -7 167 -7 l 82 -7 q 36 -4 51 -7 l 36 -4 q 24 11 24 -1 l 24 11 l 24 86 q 38 99 24 99 l 38 99 q 61 97 46 97 l 61 97 q 124 126 103 97 q 146 208 146 154 l 146 208 l 146 757 q 160 771 146 771 l 160 771 z "},"ฏ":{"ha":876,"x_min":24,"x_max":765,"o":"m 160 771 l 476 771 q 690 701 615 771 q 765 499 765 631 l 765 499 l 765 -181 q 720 -316 765 -265 q 599 -367 675 -367 l 599 -367 q 509 -343 547 -367 q 449 -275 471 -319 l 449 -275 q 392 -342 429 -318 q 308 -367 356 -367 l 308 -367 q 198 -323 243 -367 q 136 -200 153 -279 l 136 -200 l 135 -194 q 147 -182 135 -186 l 147 -182 l 225 -161 l 231 -160 q 242 -172 240 -160 l 242 -172 q 273 -241 251 -217 q 326 -265 294 -265 l 326 -265 q 383 -240 360 -265 q 415 -165 406 -214 l 415 -165 q 432 -151 417 -151 l 432 -151 l 464 -151 q 481 -165 479 -151 l 481 -165 q 513 -239 489 -212 q 572 -265 538 -265 l 572 -265 q 631 -239 610 -265 q 651 -165 651 -212 l 651 -165 l 651 499 q 603 626 651 582 q 467 671 556 671 l 467 671 l 260 671 l 260 197 q 213 47 260 100 q 82 -7 167 -7 l 82 -7 q 36 -4 51 -7 l 36 -4 q 24 11 24 -1 l 24 11 l 24 86 q 38 99 24 99 l 38 99 q 61 97 46 97 l 61 97 q 124 126 103 97 q 146 208 146 154 l 146 208 l 146 757 q 160 771 146 771 l 160 771 z "},"ญ":{"ha":1333,"x_min":113,"x_max":1217,"o":"m 1118 771 l 1203 771 q 1217 757 1217 771 l 1217 757 l 1217 -12 q 1135 -238 1217 -156 q 915 -321 1054 -321 l 915 -321 q 738 -273 811 -321 q 632 -137 664 -225 l 632 -137 q 631 -131 631 -135 l 631 -131 q 640 -119 631 -124 l 640 -119 l 713 -90 q 719 -89 715 -89 l 719 -89 q 731 -97 726 -89 l 731 -97 q 806 -188 758 -157 q 918 -219 853 -219 l 918 -219 q 1056 -166 1004 -219 q 1107 -21 1107 -112 l 1107 -21 l 1107 140 q 1005 32 1069 71 q 861 -7 940 -7 l 861 -7 q 683 66 747 -7 q 618 267 618 139 l 618 267 l 618 499 q 571 626 618 582 q 435 671 524 671 l 435 671 l 226 671 l 226 243 q 254 131 226 169 q 336 93 282 93 l 336 93 q 399 110 372 93 l 399 110 q 408 114 406 114 l 408 114 q 418 106 414 114 l 418 106 l 447 43 q 450 33 450 38 l 450 33 q 444 24 450 29 l 444 24 q 324 -10 401 -10 l 324 -10 q 167 53 222 -10 q 113 231 113 115 l 113 231 l 113 757 q 126 771 113 771 l 126 771 l 444 771 q 658 701 583 771 q 732 499 732 631 l 732 499 l 732 297 q 774 150 732 203 q 893 97 817 97 l 893 97 q 1044 166 986 97 q 1103 344 1103 235 l 1103 344 l 1103 757 q 1118 771 1103 771 l 1118 771 z "},"ฌ":{"ha":1329,"x_min":113,"x_max":1217,"o":"m 1118 771 l 1203 771 q 1217 757 1217 771 l 1217 757 l 1217 267 q 1152 60 1217 135 q 974 -15 1088 -15 l 974 -15 q 831 23 894 -15 q 728 132 768 61 l 728 132 l 722 15 q 708 0 722 0 l 708 0 l 633 0 q 618 15 618 0 l 618 15 l 618 499 q 571 626 618 582 q 435 671 524 671 l 435 671 l 226 671 l 226 243 q 336 93 226 93 l 336 93 q 399 110 369 93 l 399 110 q 408 114 406 114 l 408 114 q 418 106 414 114 l 418 106 l 447 43 q 450 35 450 38 l 450 35 q 444 24 450 29 l 444 24 q 324 -10 401 -10 l 324 -10 q 167 53 222 -10 q 113 231 113 115 l 113 231 l 113 757 q 126 771 113 771 l 126 771 l 444 771 q 658 701 583 771 q 732 499 732 631 l 732 499 l 732 336 q 759 206 732 263 q 834 119 786 150 q 942 89 882 89 l 942 89 q 1060 144 1018 89 q 1103 297 1103 199 l 1103 297 l 1103 757 q 1118 771 1103 771 l 1118 771 z "},"ณ":{"ha":1333,"x_min":113,"x_max":1217,"o":"m 1118 771 l 1203 771 q 1217 757 1217 771 l 1217 757 l 1217 15 q 1203 0 1217 0 l 1203 0 l 1128 0 q 1113 15 1113 0 l 1113 15 l 1107 132 q 1005 24 1069 63 q 861 -15 940 -15 l 861 -15 q 683 58 747 -15 q 618 258 618 131 l 618 258 l 618 499 q 571 626 618 582 q 435 671 524 671 l 435 671 l 226 671 l 226 243 q 336 93 226 93 l 336 93 q 399 110 369 93 l 399 110 q 408 114 406 114 l 408 114 q 418 106 414 114 l 418 106 l 447 43 q 449 35 449 40 l 449 35 q 444 24 449 28 l 444 24 q 324 -10 401 -10 l 324 -10 q 167 53 222 -10 q 113 231 113 115 l 113 231 l 113 757 q 126 771 113 771 l 126 771 l 444 771 q 658 701 583 771 q 732 499 732 631 l 732 499 l 732 289 q 774 142 732 194 q 893 89 817 89 l 893 89 q 1044 158 986 89 q 1103 336 1103 226 l 1103 336 l 1103 757 q 1118 771 1103 771 l 1118 771 z "},"ข":{"ha":785,"x_min":79,"x_max":674,"o":"m 574 771 l 658 771 q 674 757 674 771 l 674 757 l 674 272 q 599 60 674 136 q 389 -15 524 -15 l 389 -15 q 181 61 257 -15 q 106 272 106 138 l 106 272 l 106 357 q 128 471 106 424 q 190 569 151 518 l 190 569 q 229 626 217 603 q 242 674 242 649 l 242 674 l 93 674 q 79 689 79 674 l 79 689 l 79 757 q 93 771 79 771 l 93 771 l 338 771 q 353 757 353 771 l 353 757 l 353 690 q 338 622 353 654 q 292 546 322 589 l 292 546 q 238 455 257 496 q 219 361 219 414 l 219 361 l 219 283 q 263 140 219 190 q 389 89 307 89 l 389 89 q 515 140 471 89 q 560 283 560 190 l 560 283 l 560 757 q 574 771 560 771 l 574 771 z "},"ช":{"ha":796,"x_min":79,"x_max":726,"o":"m 615 786 l 710 786 q 723 781 719 786 q 721 768 726 775 l 721 768 l 586 571 q 659 509 633 554 q 685 396 685 464 l 685 396 l 685 272 q 608 61 685 138 q 394 -15 531 -15 l 394 -15 q 182 61 258 -15 q 106 272 106 138 l 106 272 l 106 357 q 128 471 106 424 q 190 569 151 518 l 190 569 q 229 626 217 603 q 242 674 242 649 l 242 674 l 93 674 q 79 689 79 674 l 79 689 l 79 757 q 93 771 79 771 l 93 771 l 338 771 q 353 757 353 771 l 353 757 l 353 690 q 337 620 353 654 q 292 546 321 586 l 292 546 q 238 456 257 499 q 219 361 219 414 l 219 361 l 219 283 q 265 139 219 189 q 394 89 310 89 l 394 89 q 525 139 479 89 q 571 283 571 189 l 571 283 l 571 381 q 548 458 571 432 q 481 483 525 483 l 481 483 l 413 483 q 397 499 397 483 l 397 499 l 397 565 q 413 581 397 581 l 413 581 l 468 581 l 596 776 q 615 786 603 786 l 615 786 z "},"ฃ":{"ha":797,"x_min":17,"x_max":686,"o":"m 586 771 l 671 771 q 686 757 686 771 l 686 757 l 686 272 q 610 61 686 138 q 399 -15 533 -15 l 399 -15 q 189 61 265 -15 q 113 272 113 138 l 113 272 l 113 328 q 140 443 113 394 q 219 549 168 492 l 219 549 q 268 610 253 586 q 283 658 283 633 l 283 658 l 283 688 l 260 688 l 200 617 q 182 608 194 608 l 182 608 l 113 608 q 96 618 101 608 l 96 618 l 19 754 q 17 763 17 760 l 17 763 q 29 771 17 771 l 29 771 l 110 771 q 126 761 122 771 l 126 761 l 161 694 l 214 763 q 232 771 221 771 l 232 771 l 371 771 q 386 757 386 771 l 386 757 l 386 658 q 365 573 386 610 q 304 489 344 536 l 304 489 q 246 408 265 443 q 226 329 226 374 l 226 329 l 226 283 q 272 140 226 190 q 399 89 317 89 l 399 89 q 527 140 482 89 q 572 283 572 190 l 572 283 l 572 757 q 586 771 572 771 l 586 771 z "},"ซ":{"ha":806,"x_min":17,"x_max":736,"o":"m 625 786 l 719 786 q 733 781 729 786 q 731 768 736 775 l 731 768 l 596 571 q 669 509 643 554 q 694 396 694 464 l 694 396 l 694 272 q 617 60 694 136 q 403 -15 540 -15 l 403 -15 q 190 61 267 -15 q 113 272 113 138 l 113 272 l 113 328 q 140 443 113 394 q 219 549 168 492 l 219 549 q 268 610 253 586 q 283 658 283 633 l 283 658 l 283 688 l 260 688 l 200 617 q 182 608 194 608 l 182 608 l 113 608 q 96 618 101 608 l 96 618 l 19 754 q 17 763 17 760 l 17 763 q 29 771 17 771 l 29 771 l 110 771 q 126 761 122 771 l 126 761 l 161 694 l 214 763 q 232 771 221 771 l 232 771 l 371 771 q 386 757 386 771 l 386 757 l 386 658 q 365 573 386 610 q 304 489 344 536 l 304 489 q 246 408 265 443 q 226 329 226 374 l 226 329 l 226 283 q 272 139 226 189 q 403 89 318 89 l 403 89 q 535 139 489 89 q 581 283 581 189 l 581 283 l 581 381 q 558 458 581 432 q 490 483 535 483 l 490 483 l 422 483 q 407 499 407 483 l 407 499 l 407 565 q 422 581 407 581 l 422 581 l 476 581 l 606 776 q 625 786 613 786 l 625 786 z "},"ค":{"ha":863,"x_min":111,"x_max":751,"o":"m 211 0 l 125 0 q 111 15 111 0 l 111 15 l 111 465 q 197 699 111 613 q 426 786 282 786 l 426 786 q 663 699 575 786 q 751 465 751 613 l 751 465 l 751 15 q 738 0 751 0 l 738 0 l 653 0 q 638 15 638 0 l 638 15 l 638 450 q 582 621 638 560 q 426 682 526 682 l 426 682 q 276 621 329 682 q 222 450 222 560 l 222 450 l 222 390 l 458 390 q 472 376 472 390 l 472 376 l 472 306 q 458 290 472 290 l 458 290 l 225 290 l 225 15 q 211 0 225 0 l 211 0 z "},"ศ":{"ha":869,"x_min":111,"x_max":836,"o":"m 429 778 l 822 778 q 836 764 836 778 l 836 764 l 836 696 q 822 682 836 682 l 822 682 l 640 682 q 723 599 694 654 q 751 469 751 544 l 751 469 l 751 15 q 738 0 751 0 l 738 0 l 653 0 q 638 15 638 0 l 638 15 l 638 450 q 582 616 638 556 q 426 676 526 676 l 426 676 q 275 617 328 676 q 222 450 222 557 l 222 450 l 222 390 l 458 390 q 472 376 472 390 l 472 376 l 472 306 q 458 290 472 290 l 458 290 l 225 290 l 225 15 q 211 0 225 0 l 211 0 l 125 0 q 111 15 111 0 l 111 15 l 111 465 q 197 694 111 611 q 429 778 283 778 l 429 778 z "},"ฅ":{"ha":882,"x_min":114,"x_max":768,"o":"m 214 0 l 128 0 q 114 15 114 0 l 114 15 l 114 521 q 165 688 114 621 q 314 782 217 756 l 314 782 l 440 710 l 567 782 q 716 690 664 757 q 768 521 768 622 l 768 521 l 768 15 q 754 0 768 0 l 754 0 l 669 0 q 654 15 654 0 l 654 15 l 654 526 q 630 625 654 586 q 558 678 606 664 l 558 678 l 444 614 l 435 614 l 322 678 q 250 623 275 663 q 225 526 225 583 l 225 526 l 225 385 l 468 385 q 483 371 483 385 l 483 371 l 483 300 q 468 285 483 285 l 468 285 l 228 285 l 228 15 q 214 0 228 0 l 214 0 z "},"ด":{"ha":867,"x_min":97,"x_max":756,"o":"m 353 -12 q 165 63 233 -12 q 97 274 97 139 l 97 274 l 97 468 q 138 636 97 564 q 252 747 178 708 q 425 786 326 786 l 425 786 q 600 747 525 786 q 715 636 675 708 q 756 468 756 564 l 756 468 l 756 15 q 740 0 756 0 l 740 0 l 656 0 q 642 15 642 0 l 642 15 l 642 454 q 584 621 642 560 q 425 682 526 682 l 425 682 q 269 621 326 682 q 211 454 211 560 l 211 454 l 211 282 q 251 140 211 190 q 365 90 290 90 l 365 90 q 443 110 408 90 l 443 110 q 453 113 447 113 l 453 113 q 463 106 460 113 l 463 106 l 492 43 q 494 33 494 38 l 494 33 q 489 22 494 28 l 489 22 q 353 -12 440 -12 l 353 -12 z "},"ต":{"ha":882,"x_min":97,"x_max":769,"o":"m 360 -12 q 168 64 239 -12 q 97 274 97 140 l 97 274 l 97 472 q 153 676 97 596 q 317 782 210 756 l 317 782 l 440 710 l 565 782 q 716 688 663 757 q 769 521 769 619 l 769 521 l 769 15 q 754 0 769 0 l 754 0 l 669 0 q 656 15 656 0 l 656 15 l 656 526 q 630 624 656 585 q 556 678 604 664 l 556 678 l 446 614 l 436 614 l 326 678 q 241 604 271 660 q 211 461 211 549 l 211 461 l 211 282 q 254 140 211 190 q 372 90 297 90 l 372 90 q 450 110 415 90 l 450 110 q 460 113 458 113 l 460 113 q 469 106 467 113 l 469 106 l 499 43 q 501 33 501 38 l 501 33 q 496 22 501 28 l 496 22 q 360 -12 444 -12 l 360 -12 z "},"ฒ":{"ha":1356,"x_min":97,"x_max":1243,"o":"m 357 -12 q 167 64 238 -12 q 97 274 97 140 l 97 274 l 97 472 q 153 676 97 597 q 314 782 208 756 l 314 782 l 435 710 l 557 782 q 706 689 653 757 q 758 521 758 621 l 758 521 l 758 336 q 786 206 758 261 q 861 119 814 150 q 968 89 908 89 l 968 89 q 1087 144 1044 89 q 1129 297 1129 199 l 1129 297 l 1129 757 q 1143 771 1129 771 l 1143 771 l 1228 771 q 1243 757 1243 771 l 1243 757 l 1243 267 q 1178 60 1243 135 q 1000 -15 1114 -15 l 1000 -15 q 856 24 919 -15 q 754 132 792 63 l 754 132 l 749 15 q 733 0 747 0 l 733 0 l 658 0 q 644 15 644 0 l 644 15 l 644 526 q 619 624 644 585 q 547 678 594 664 l 547 678 l 440 614 l 431 614 l 324 678 q 240 605 268 660 q 211 461 211 550 l 211 461 l 211 282 q 253 140 211 190 q 369 90 294 90 l 369 90 q 447 110 413 90 l 447 110 q 457 113 456 113 l 457 113 q 467 106 464 113 l 467 106 l 496 43 q 499 33 499 38 l 499 33 q 493 22 499 28 l 493 22 q 357 -12 442 -12 l 357 -12 z "},"ท":{"ha":860,"x_min":117,"x_max":747,"o":"m 215 0 l 131 0 q 117 15 117 0 l 117 15 l 117 757 q 131 771 117 771 l 131 771 l 206 771 q 221 757 221 771 l 221 757 l 226 635 q 333 747 264 707 q 489 786 403 786 l 489 786 q 678 710 610 786 q 747 501 747 635 l 747 501 l 747 15 q 733 0 747 0 l 733 0 l 649 0 q 633 15 633 0 l 633 15 l 633 468 q 588 626 633 571 q 458 682 543 682 l 458 682 q 341 649 393 682 q 260 557 289 617 q 231 419 231 497 l 231 419 l 231 15 q 215 0 231 0 l 215 0 z "},"ฑ":{"ha":861,"x_min":10,"x_max":743,"o":"m 568 786 q 697 736 651 786 q 743 596 743 686 l 743 596 l 743 15 q 728 0 743 0 l 728 0 l 644 0 q 629 15 629 0 l 629 15 l 629 567 q 604 654 629 624 q 532 685 579 685 l 532 685 q 476 669 503 685 q 413 616 450 654 q 314 501 376 578 l 314 501 q 244 398 261 438 q 226 292 226 358 l 226 292 l 226 15 q 211 0 226 0 l 211 0 l 126 0 q 113 15 113 0 l 113 15 l 113 290 q 135 422 113 368 q 213 542 157 475 l 213 542 q 264 611 251 589 q 276 656 276 633 l 276 656 l 276 688 l 253 688 l 193 617 q 175 608 188 608 l 175 608 l 106 608 q 89 618 94 608 l 89 618 l 13 754 q 10 763 10 760 l 10 763 q 22 771 10 771 l 22 771 l 103 771 q 119 761 115 771 l 119 761 l 154 694 l 207 763 q 225 771 214 771 l 225 771 l 364 771 q 379 757 379 771 l 379 757 l 379 689 q 470 763 426 739 q 568 786 514 786 l 568 786 z "},"น":{"ha":856,"x_min":113,"x_max":739,"o":"m 368 -15 q 180 60 247 -15 q 113 269 113 135 l 113 269 l 113 757 q 126 771 113 771 l 126 771 l 211 771 q 226 757 226 771 l 226 757 l 226 303 q 272 144 226 200 q 399 89 317 89 l 399 89 q 514 121 463 89 q 595 213 565 153 q 625 353 625 272 l 625 353 l 625 757 q 639 771 625 771 l 639 771 l 724 771 q 739 757 739 771 l 739 757 l 739 15 q 724 0 739 0 l 724 0 l 649 0 q 633 15 633 0 l 633 15 l 629 136 q 523 25 592 65 q 368 -15 454 -15 l 368 -15 z "},"ม":{"ha":856,"x_min":117,"x_max":743,"o":"m 486 -15 q 333 25 401 -15 q 226 136 264 65 l 226 136 l 221 15 q 206 0 221 0 l 206 0 l 131 0 q 117 15 117 0 l 117 15 l 117 757 q 131 771 117 771 l 131 771 l 215 771 q 231 757 231 771 l 231 757 l 231 353 q 260 213 231 272 q 341 121 290 153 q 456 89 392 89 l 456 89 q 583 148 538 89 q 629 314 629 207 l 629 314 l 629 757 q 643 771 629 771 l 643 771 l 728 771 q 743 757 743 771 l 743 757 l 743 281 q 674 64 743 143 q 486 -15 606 -15 l 486 -15 z "},"ฆ":{"ha":860,"x_min":15,"x_max":747,"o":"m 649 771 l 733 771 q 747 757 747 771 l 747 757 l 747 281 q 678 63 747 142 q 486 -15 608 -15 l 486 -15 q 328 23 397 -15 q 221 132 260 61 l 221 132 l 217 15 q 201 0 217 0 l 201 0 l 126 0 q 115 4 119 0 q 111 15 111 8 l 111 15 l 111 342 q 140 454 111 407 q 219 556 168 501 l 219 556 q 266 613 250 589 q 282 658 282 636 l 282 658 l 282 688 l 258 688 l 199 617 q 181 608 193 608 l 181 608 l 111 608 q 94 618 100 608 l 94 618 l 18 754 q 15 763 15 760 l 15 763 q 28 771 15 771 l 28 771 l 108 771 q 125 761 121 771 l 125 761 l 160 694 l 213 763 q 231 771 219 771 l 231 771 l 369 771 q 385 757 385 771 l 385 757 l 385 658 q 364 579 385 615 q 303 496 343 543 l 303 496 q 244 419 264 451 q 225 343 225 386 l 225 343 l 225 326 q 256 203 225 257 q 339 119 286 149 q 456 89 392 89 l 456 89 q 587 145 540 89 q 633 304 633 201 l 633 304 l 633 757 q 649 771 633 771 l 649 771 z "},"ธ":{"ha":747,"x_min":86,"x_max":676,"o":"m 197 525 l 438 476 q 616 391 556 453 q 676 232 676 329 l 676 232 q 601 61 676 122 q 392 0 525 0 l 392 0 l 124 0 q 108 15 108 0 l 108 15 l 108 344 q 124 360 108 360 l 124 360 l 208 360 q 222 344 222 360 l 222 344 l 222 94 l 389 94 q 514 132 468 94 q 560 235 560 169 l 560 235 q 519 334 560 294 q 399 390 478 374 l 399 390 l 100 451 q 90 457 94 453 q 86 467 86 461 l 86 467 l 86 522 q 163 716 86 646 q 376 786 240 786 l 376 786 q 561 739 486 786 q 667 604 636 692 l 667 604 q 668 597 668 601 l 668 597 q 657 586 668 589 l 657 586 l 581 572 l 576 572 q 563 581 567 572 l 563 581 q 491 663 539 633 q 375 692 443 692 l 375 692 q 245 649 293 692 q 197 532 197 606 l 197 532 l 197 525 z "},"ร":{"ha":678,"x_min":54,"x_max":610,"o":"m 344 -15 q 163 34 236 -15 q 56 183 89 83 l 56 183 q 54 190 54 186 l 54 190 q 65 203 54 200 l 65 203 l 140 219 l 146 221 q 158 210 154 221 l 158 210 q 344 85 208 85 l 344 85 q 454 117 414 85 q 494 204 494 149 l 494 204 q 353 338 494 304 l 353 338 l 306 349 q 139 433 194 375 q 83 576 83 490 l 83 576 q 151 730 83 674 q 333 786 218 786 l 333 786 q 600 604 536 786 l 600 604 l 601 599 q 589 586 601 590 l 589 586 l 519 571 l 515 571 q 501 581 506 571 l 501 581 q 436 660 479 633 q 333 688 393 688 l 333 688 q 233 659 269 688 q 197 582 197 631 l 197 582 q 233 503 197 535 q 347 453 269 472 l 347 453 l 392 442 q 556 356 501 414 q 610 208 610 299 l 610 208 q 538 45 610 106 q 344 -15 467 -15 l 344 -15 z "},"จ":{"ha":754,"x_min":38,"x_max":692,"o":"m 360 786 q 535 744 461 786 q 651 622 610 701 q 692 435 692 542 l 692 435 q 630 198 692 303 q 446 7 568 93 l 446 7 q 428 0 435 0 l 428 0 l 306 0 q 288 13 292 0 l 288 13 l 188 335 l 88 335 q 74 349 74 335 l 74 349 l 74 417 q 88 432 74 432 l 88 432 l 264 432 q 282 419 278 432 l 282 419 l 376 86 q 524 240 474 156 q 575 432 575 325 l 575 432 q 516 615 575 547 q 354 682 457 682 l 354 682 q 226 649 282 682 q 144 558 171 615 l 144 558 q 138 550 142 551 q 125 550 133 549 l 125 550 l 51 569 q 42 589 38 574 l 42 589 q 162 734 76 682 q 360 786 247 786 l 360 786 z "},"ฐ":{"ha":763,"x_min":36,"x_max":747,"o":"m 363 778 l 732 778 q 747 763 747 778 l 747 763 l 747 697 q 732 682 747 682 l 732 682 l 575 682 q 660 582 629 649 q 692 432 692 515 l 692 432 q 630 197 692 300 q 446 7 568 93 l 446 7 q 428 0 435 0 l 428 0 l 306 0 q 288 13 292 0 l 288 13 l 188 335 l 88 335 q 74 349 74 335 l 74 349 l 74 417 q 88 432 74 432 l 88 432 l 264 432 q 282 419 278 432 l 282 419 l 376 86 q 524 240 474 156 q 575 432 575 325 l 575 432 q 516 611 575 546 q 356 676 457 676 l 356 676 q 227 644 283 676 q 144 554 171 613 l 144 554 q 125 546 140 542 l 125 546 l 51 565 q 42 585 36 569 l 42 585 q 163 726 76 675 q 363 778 249 778 l 363 778 z m 583 -83 l 663 -83 q 678 -99 678 -83 l 678 -99 l 678 -137 q 633 -269 678 -219 q 515 -318 589 -318 l 515 -318 q 428 -294 467 -318 q 369 -228 390 -271 l 369 -228 q 313 -294 349 -271 q 231 -318 276 -318 l 231 -318 q 122 -275 167 -318 q 63 -156 78 -232 l 63 -156 l 61 -150 q 74 -137 61 -142 l 74 -137 l 147 -118 l 153 -117 q 164 -129 160 -117 l 164 -129 q 195 -197 172 -172 q 249 -221 218 -221 l 249 -221 q 303 -195 281 -221 q 336 -122 326 -169 l 336 -122 q 351 -108 338 -108 l 351 -108 l 383 -108 q 399 -122 397 -108 l 399 -122 q 431 -194 407 -168 q 490 -221 456 -221 l 490 -221 q 547 -194 526 -221 q 568 -122 568 -168 l 568 -122 l 568 -99 q 583 -83 568 -83 l 583 -83 z "},"ว":{"ha":751,"x_min":50,"x_max":689,"o":"m 358 -15 q 174 40 251 -15 q 64 192 97 94 l 64 192 q 63 199 63 194 l 63 199 q 74 211 63 208 l 74 211 l 150 232 l 157 233 q 169 222 165 233 l 169 222 q 244 122 196 157 q 357 88 293 88 l 357 88 q 514 169 456 88 q 572 389 572 250 l 572 389 q 514 605 572 526 q 353 683 456 683 l 353 683 q 236 648 285 683 q 161 547 188 613 l 161 547 q 154 538 158 540 q 142 538 150 536 l 142 538 l 65 557 q 56 576 50 561 l 56 576 q 167 731 89 676 q 354 786 244 786 l 354 786 q 531 738 456 786 q 648 599 607 689 q 689 389 689 510 l 689 389 q 649 175 689 267 q 533 34 608 83 q 358 -15 458 -15 l 358 -15 z "},"ง":{"ha":761,"x_min":32,"x_max":697,"o":"m 419 783 q 622 692 547 783 q 697 446 697 601 l 697 446 q 618 178 697 292 q 389 4 539 64 l 389 4 q 371 0 381 0 l 371 0 l 278 0 q 261 14 265 0 l 261 14 l 33 756 l 32 760 q 46 771 32 771 l 46 771 l 132 771 q 149 758 144 771 l 149 758 l 346 101 q 522 236 463 147 q 581 446 581 325 l 581 446 q 535 618 581 556 q 410 681 489 681 l 410 681 q 336 663 367 681 l 336 663 q 328 660 331 660 l 328 660 q 317 668 321 660 l 317 668 l 288 729 q 285 739 285 735 l 285 739 q 292 750 285 746 l 292 750 q 419 783 340 783 l 419 783 z "},"ฉ":{"ha":813,"x_min":92,"x_max":701,"o":"m 346 -15 q 167 58 232 -15 q 103 260 103 131 l 103 260 l 103 407 q 118 422 103 422 l 118 422 l 203 422 q 217 407 217 422 l 217 407 l 217 288 q 259 141 217 193 q 378 89 301 89 l 378 89 q 485 119 438 89 q 560 206 533 150 q 588 333 588 261 l 588 333 l 588 500 q 538 633 588 585 q 399 682 488 682 l 399 682 q 279 651 329 682 q 201 567 229 621 l 201 567 q 182 558 196 554 l 182 558 l 107 585 q 97 604 92 590 l 97 604 q 215 738 133 689 q 404 786 296 786 l 404 786 q 621 707 540 786 q 701 494 701 628 l 701 494 l 701 15 q 686 0 701 0 l 686 0 l 611 0 q 597 15 597 0 l 597 15 l 592 129 q 491 23 557 61 q 346 -15 425 -15 l 346 -15 z "},"ล":{"ha":808,"x_min":82,"x_max":697,"o":"m 397 786 q 616 708 535 786 q 697 497 697 631 l 697 497 l 697 15 q 683 0 697 0 l 683 0 l 599 0 q 583 15 583 0 l 583 15 l 583 358 l 453 358 q 196 210 196 358 l 196 210 q 232 122 196 154 q 333 90 268 90 l 333 90 q 413 110 382 90 l 413 110 q 422 113 421 113 l 422 113 q 432 106 429 113 l 432 106 l 461 43 q 464 33 464 38 l 464 33 q 458 22 464 28 l 458 22 q 321 -12 408 -12 l 321 -12 q 145 44 208 -12 q 82 200 82 100 l 82 200 q 178 388 82 322 q 454 454 275 454 l 454 454 l 583 454 l 583 503 q 531 637 583 588 q 392 686 479 686 l 392 686 q 274 656 324 686 q 196 569 224 625 l 196 569 q 176 561 190 557 l 176 561 l 101 585 q 92 604 88 589 l 92 604 q 209 738 129 689 q 397 786 289 786 l 397 786 z "},"ส":{"ha":815,"x_min":82,"x_max":782,"o":"m 397 778 l 768 778 q 782 764 782 778 l 782 764 l 782 696 q 768 682 782 682 l 768 682 l 596 682 q 671 606 644 656 q 697 492 697 557 l 697 492 l 697 15 q 683 0 697 0 l 683 0 l 599 0 q 583 15 583 0 l 583 15 l 583 358 l 453 358 q 196 210 196 358 l 196 210 q 232 122 196 154 q 333 90 268 90 l 333 90 q 413 110 382 90 l 413 110 q 422 113 421 113 l 422 113 q 432 106 429 113 l 432 106 l 461 43 q 464 33 464 38 l 464 33 q 458 22 464 28 l 458 22 q 321 -12 408 -12 l 321 -12 q 145 44 208 -12 q 82 200 82 100 l 82 200 q 178 388 82 322 q 454 454 275 454 l 454 454 l 583 454 l 583 500 q 531 630 583 582 q 392 678 479 678 l 392 678 q 273 648 322 678 q 196 564 224 618 l 196 564 q 176 556 190 551 l 176 556 l 101 578 q 92 585 94 579 q 92 597 89 590 l 92 597 q 208 730 128 682 q 397 778 288 778 l 397 778 z "},"บ":{"ha":854,"x_min":111,"x_max":743,"o":"m 426 -15 q 194 72 278 -15 q 111 313 111 158 l 111 313 l 111 757 q 125 771 111 771 l 125 771 l 210 771 q 225 757 225 771 l 225 757 l 225 326 q 277 151 225 213 q 426 89 329 89 l 426 89 q 576 150 524 89 q 629 326 629 211 l 629 326 l 629 757 q 643 771 629 771 l 643 771 l 728 771 q 743 757 743 771 l 743 757 l 743 313 q 659 72 743 160 q 426 -15 575 -15 l 426 -15 z "},"ป":{"ha":854,"x_min":111,"x_max":743,"o":"m 426 -15 q 194 72 278 -15 q 111 313 111 158 l 111 313 l 111 757 q 125 771 111 771 l 125 771 l 210 771 q 225 757 225 771 l 225 757 l 225 326 q 277 151 225 213 q 426 89 329 89 l 426 89 q 576 150 524 89 q 629 326 629 211 l 629 326 l 629 1061 q 643 1075 629 1075 l 643 1075 l 728 1075 q 743 1061 743 1075 l 743 1061 l 743 313 q 659 72 743 160 q 426 -15 575 -15 l 426 -15 z "},"ษ":{"ha":899,"x_min":111,"x_max":864,"o":"m 760 503 l 849 503 q 864 489 864 503 l 864 489 l 864 418 q 849 403 864 403 l 849 403 l 760 403 l 760 314 q 672 74 760 163 q 435 -15 583 -15 l 435 -15 q 199 74 286 -15 q 111 314 111 163 l 111 314 l 111 757 q 125 771 111 771 l 125 771 l 210 771 q 225 757 225 771 l 225 757 l 225 331 q 281 153 225 217 q 435 89 336 89 l 435 89 q 590 153 533 89 q 646 331 646 217 l 646 331 l 646 403 l 432 403 q 417 418 417 403 l 417 418 l 417 489 q 432 503 417 503 l 432 503 l 646 503 l 646 757 q 661 771 646 771 l 661 771 l 746 771 q 760 757 760 771 l 760 757 l 760 503 z "},"ย":{"ha":818,"x_min":81,"x_max":701,"o":"m 688 0 l 364 0 q 160 60 233 0 q 86 228 86 121 l 86 228 q 122 345 86 294 q 222 415 158 396 l 222 415 q 119 479 157 432 q 81 593 81 526 l 81 593 q 140 732 81 681 q 301 783 200 783 l 301 783 q 447 746 389 783 l 447 746 q 451 725 458 739 l 451 725 l 422 663 q 414 656 418 657 q 403 658 410 656 l 403 658 q 314 682 361 682 l 314 682 q 227 653 260 682 q 194 578 194 625 l 194 578 q 233 494 194 524 q 343 464 272 464 l 343 464 l 451 464 q 465 450 465 464 l 465 450 l 465 383 q 451 368 465 368 l 451 368 l 363 368 q 244 334 286 368 q 201 240 201 300 l 201 240 q 247 136 201 172 q 378 100 293 100 l 378 100 l 574 100 q 588 115 588 100 l 588 115 l 588 757 q 603 771 588 771 l 603 771 l 688 771 q 701 757 701 771 l 701 757 l 701 15 q 688 0 701 0 l 688 0 z "},"ผ":{"ha":897,"x_min":114,"x_max":781,"o":"m 221 0 l 128 0 q 114 15 114 0 l 114 15 l 114 542 q 167 719 114 658 q 322 781 221 781 l 322 781 q 442 749 397 781 l 442 749 q 446 728 453 740 l 446 728 l 415 665 q 396 661 408 653 l 396 661 q 333 678 372 678 l 333 678 q 250 640 278 678 q 222 529 222 603 l 222 529 l 222 138 l 421 388 q 439 397 428 397 l 439 397 l 453 397 q 471 388 464 397 l 471 388 l 671 138 l 671 757 q 685 771 671 771 l 685 771 l 765 771 q 781 757 781 771 l 781 757 l 781 15 q 765 0 781 0 l 765 0 l 671 0 q 653 10 660 0 l 653 10 l 446 274 l 239 10 q 221 0 232 0 l 221 0 z "},"ฝ":{"ha":897,"x_min":114,"x_max":781,"o":"m 221 0 l 128 0 q 114 15 114 0 l 114 15 l 114 542 q 167 719 114 658 q 322 781 221 781 l 322 781 q 442 749 397 781 l 442 749 q 446 728 453 740 l 446 728 l 415 665 q 396 661 408 653 l 396 661 q 333 678 372 678 l 333 678 q 250 640 278 678 q 222 529 222 603 l 222 529 l 222 138 l 421 388 q 439 397 428 397 l 439 397 l 453 397 q 471 388 464 397 l 471 388 l 671 138 l 671 1061 q 685 1075 671 1075 l 685 1075 l 765 1075 q 781 1061 781 1075 l 781 1061 l 781 15 q 765 0 781 0 l 765 0 l 671 0 q 653 10 660 0 l 653 10 l 446 274 l 239 10 q 221 0 232 0 l 221 0 z "},"ฟ":{"ha":928,"x_min":35,"x_max":939,"o":"m 838 1075 l 922 1075 q 935 1058 939 1075 l 935 1058 l 725 14 q 710 0 722 0 l 710 0 l 640 0 q 624 14 628 0 l 624 14 l 461 575 l 301 13 q 295 3 300 7 q 285 0 290 0 l 285 0 l 217 0 q 206 4 210 0 q 200 14 201 8 l 200 14 l 35 756 l 35 760 q 49 771 35 771 l 49 771 l 132 771 q 149 758 147 771 l 149 758 l 264 224 l 419 758 q 435 771 424 771 l 435 771 l 486 771 q 503 758 499 771 l 503 758 l 660 228 l 822 1063 q 838 1075 825 1075 l 838 1075 z "},"พ":{"ha":928,"x_min":35,"x_max":896,"o":"m 797 771 l 881 771 q 893 756 896 771 l 893 756 l 726 14 q 721 4 725 8 q 710 0 717 0 l 710 0 l 642 0 q 625 13 631 0 l 625 13 l 464 575 l 303 13 q 286 0 297 0 l 286 0 l 218 0 q 207 4 211 0 q 201 14 203 8 l 201 14 l 35 756 l 35 758 q 47 771 35 771 l 47 771 l 132 771 q 149 758 147 771 l 149 758 l 265 222 l 424 758 q 439 771 426 771 l 439 771 l 490 771 q 507 758 503 771 l 507 758 l 665 225 l 781 758 q 797 771 785 771 l 797 771 z "},"ห":{"ha":822,"x_min":118,"x_max":756,"o":"m 579 410 l 754 17 l 756 11 q 743 0 756 0 l 743 0 l 651 0 q 640 3 646 0 q 633 11 635 6 l 633 11 l 464 399 l 232 399 l 232 15 q 217 0 232 0 l 217 0 l 132 0 q 118 15 118 0 l 118 15 l 118 757 q 132 771 118 771 l 132 771 l 215 771 q 229 757 229 771 l 229 757 l 229 499 l 482 499 q 590 535 553 499 q 626 640 626 571 l 626 640 l 626 757 q 642 771 626 771 l 642 771 l 725 771 q 739 757 739 771 l 739 757 l 739 632 q 697 488 739 544 q 579 410 656 431 l 579 410 z "},"ฬ":{"ha":926,"x_min":35,"x_max":931,"o":"m 818 1000 l 915 1000 q 927 994 924 1000 q 925 982 931 988 l 925 982 l 774 769 q 842 742 818 767 q 867 678 867 718 l 867 678 q 863 642 867 661 l 863 642 l 725 14 q 710 0 722 0 l 710 0 l 640 0 q 624 13 629 0 l 624 13 l 461 401 l 300 11 q 283 0 296 0 l 283 0 l 215 0 q 206 4 210 0 q 200 14 201 8 l 200 14 l 35 756 l 35 760 q 49 771 35 771 l 49 771 l 132 771 q 149 758 147 771 l 149 758 l 271 181 l 419 532 q 435 543 424 543 l 435 543 l 483 543 q 500 532 494 543 l 500 532 l 656 181 l 749 628 q 750 640 750 632 l 750 640 q 738 668 750 658 q 706 678 726 678 l 706 678 l 418 678 q 404 693 404 678 l 404 693 l 404 757 q 418 771 404 771 l 418 771 l 650 771 l 800 989 q 818 1000 807 1000 l 818 1000 z "},"อ":{"ha":806,"x_min":60,"x_max":742,"o":"m 383 786 q 573 737 492 786 q 698 597 654 688 q 742 386 742 507 l 742 386 q 699 174 742 264 q 576 34 656 83 q 389 -15 496 -15 l 389 -15 q 215 27 289 -15 q 100 148 140 69 q 60 332 60 226 l 60 332 l 60 414 q 74 428 60 428 l 74 428 l 403 428 q 417 414 417 428 l 417 414 l 417 346 q 403 331 417 331 l 403 331 l 172 331 l 172 326 q 230 153 172 218 q 385 88 288 88 l 385 88 q 560 169 494 88 q 625 388 625 251 l 625 388 q 558 603 625 524 q 376 683 492 683 l 376 683 q 249 649 306 683 q 167 557 193 615 l 167 557 q 160 549 164 550 q 147 549 156 547 l 147 549 l 74 571 q 64 590 60 575 l 64 590 q 186 734 100 682 q 383 786 272 786 l 383 786 z "},"ฮ":{"ha":813,"x_min":58,"x_max":792,"o":"m 383 778 l 776 778 q 792 763 792 778 l 792 763 l 792 697 q 776 682 792 682 l 776 682 l 610 682 q 706 569 671 646 q 742 386 742 493 l 742 386 q 699 174 742 264 q 576 34 656 83 q 389 -15 496 -15 l 389 -15 q 215 27 289 -15 q 100 148 140 69 q 60 332 60 226 l 60 332 l 60 414 q 74 428 60 428 l 74 428 l 403 428 q 417 414 417 428 l 417 414 l 417 346 q 403 331 417 331 l 403 331 l 172 331 l 172 326 q 230 153 172 218 q 385 89 288 89 l 385 89 q 560 170 494 89 q 625 388 625 251 l 625 388 q 558 599 625 521 q 376 676 492 676 l 376 676 q 249 643 306 676 q 167 551 193 610 l 167 551 q 160 543 164 544 q 147 543 156 542 l 147 543 l 74 564 q 64 583 58 568 l 64 583 q 185 726 100 675 q 383 778 271 778 l 383 778 z "},"า":{"ha":624,"x_min":31,"x_max":511,"o":"m 497 0 l 413 0 q 397 15 397 0 l 397 15 l 397 531 q 362 642 397 601 q 264 682 326 682 l 264 682 q 183 658 217 682 q 133 586 150 633 l 133 586 q 114 576 126 572 l 114 576 l 42 597 q 33 606 36 600 q 32 617 31 611 l 32 617 q 122 742 60 699 q 271 786 185 786 l 271 786 q 447 716 382 786 q 511 526 511 646 l 511 526 l 511 15 q 497 0 511 0 l 497 0 z "},"ำ":{"ha":624,"x_min":-308,"x_max":511,"o":"m -172 869 q -270 907 -232 869 q -308 1003 -308 944 l -308 1003 q -270 1097 -308 1060 q -172 1135 -232 1135 l -172 1135 q -74 1097 -112 1135 q -36 1003 -36 1060 l -36 1003 q -74 907 -36 944 q -172 869 -112 869 l -172 869 z m -172 939 q -126 957 -144 939 q -108 1003 -108 975 l -108 1003 q -127 1049 -108 1031 q -172 1067 -146 1067 l -172 1067 q -218 1049 -200 1067 q -236 1003 -236 1031 l -236 1003 q -218 957 -236 975 q -172 939 -200 939 l -172 939 z m 497 0 l 413 0 q 397 15 397 0 l 397 15 l 397 531 q 362 642 397 601 q 264 682 326 682 l 264 682 q 183 658 217 682 q 133 586 150 633 l 133 586 q 114 576 126 572 l 114 576 l 42 597 q 33 606 36 600 q 32 617 31 611 l 32 617 q 122 742 60 699 q 271 786 185 786 l 271 786 q 447 716 382 786 q 511 526 511 646 l 511 526 l 511 15 q 497 0 511 0 l 497 0 z "},"ๅ":{"ha":624,"x_min":31,"x_max":511,"o":"m 497 -299 l 413 -299 q 397 -285 397 -299 l 397 -285 l 397 531 q 362 642 397 601 q 264 682 326 682 l 264 682 q 183 658 217 682 q 133 586 150 633 l 133 586 q 114 576 126 572 l 114 576 l 42 597 q 33 606 36 600 q 32 617 31 611 l 32 617 q 122 742 60 699 q 271 786 185 786 l 271 786 q 447 717 382 786 q 511 526 511 647 l 511 526 l 511 -285 q 497 -299 511 -299 l 497 -299 z "},"ะ":{"ha":497,"x_min":74,"x_max":421,"o":"m 407 461 l 242 461 q 117 501 160 461 q 74 618 74 542 l 74 618 l 74 679 q 89 694 74 694 l 89 694 l 171 694 q 186 679 186 694 l 186 679 l 186 633 q 263 561 186 561 l 263 561 l 407 561 q 421 546 421 561 l 421 546 l 421 475 q 407 461 421 461 l 407 461 z m 407 78 l 242 78 q 117 119 160 78 q 74 236 74 160 l 74 236 l 74 297 q 89 311 74 311 l 89 311 l 172 311 q 186 297 186 311 l 186 297 l 186 251 q 263 178 186 178 l 263 178 l 407 178 q 421 164 421 178 l 421 164 l 421 93 q 407 78 421 78 l 407 78 z "},"เ":{"ha":361,"x_min":131,"x_max":244,"o":"m 229 0 l 144 0 q 131 15 131 0 l 131 15 l 131 757 q 144 771 131 771 l 144 771 l 229 771 q 244 757 244 771 l 244 757 l 244 15 q 229 0 244 0 l 229 0 z "},"แ":{"ha":685,"x_min":131,"x_max":568,"o":"m 229 0 l 144 0 q 131 15 131 0 l 131 15 l 131 757 q 144 771 131 771 l 144 771 l 229 771 q 244 757 244 771 l 244 757 l 244 15 q 229 0 244 0 l 229 0 z m 553 0 l 468 0 q 454 15 454 0 l 454 15 l 454 757 q 468 771 454 771 l 468 771 l 553 771 q 568 757 568 771 l 568 757 l 568 15 q 553 0 568 0 l 553 0 z "},"ไ":{"ha":403,"x_min":7,"x_max":419,"o":"m 22 1268 l 406 1268 q 419 1254 419 1268 l 419 1254 l 419 1186 q 411 1168 419 1176 l 411 1168 q 315 1065 344 1125 q 286 910 286 1004 l 286 910 l 286 15 q 271 0 286 0 l 271 0 l 186 0 q 172 15 172 0 l 172 15 l 172 908 q 196 1060 172 1000 q 276 1171 219 1119 l 276 1171 l 22 1171 q 7 1186 7 1171 l 7 1186 l 7 1254 q 22 1268 7 1268 l 22 1268 z "},"ใ":{"ha":413,"x_min":1,"x_max":465,"o":"m 465 1054 q 419 912 465 967 q 294 846 374 857 l 294 846 l 294 15 q 281 0 294 0 l 281 0 l 196 0 q 181 15 181 0 l 181 15 l 181 906 q 196 921 181 921 l 196 921 l 236 921 q 322 956 290 921 q 354 1051 354 992 l 354 1051 q 322 1148 354 1113 q 232 1183 289 1183 l 232 1183 q 154 1160 188 1183 q 106 1093 121 1136 l 106 1093 q 98 1085 104 1088 q 86 1083 92 1082 l 86 1083 l 17 1099 q 6 1117 1 1103 l 6 1117 q 94 1240 33 1197 q 239 1283 154 1283 l 239 1283 q 404 1221 343 1283 q 465 1054 465 1158 l 465 1054 z "},"โ":{"ha":403,"x_min":38,"x_max":450,"o":"m 94 1268 l 436 1268 q 450 1254 450 1268 l 450 1254 l 450 1186 q 436 1171 450 1171 l 436 1171 l 185 1171 q 263 1065 240 1124 q 286 917 286 1007 l 286 917 l 286 15 q 271 0 286 0 l 271 0 l 186 0 q 172 15 172 0 l 172 15 l 172 910 q 143 1065 172 1004 q 47 1168 114 1125 l 47 1168 q 38 1186 38 1176 l 38 1186 l 38 1210 q 53 1252 38 1236 q 94 1268 68 1268 l 94 1268 z "},"ั":{"ha":0,"x_min":-464,"x_max":29,"o":"m 14 883 l -306 883 q -423 922 -382 883 q -464 1032 -464 960 l -464 1032 l -464 1082 q -450 1097 -464 1097 l -450 1097 l -375 1097 q -361 1082 -361 1097 l -361 1082 l -361 1047 q -342 994 -361 1013 q -287 976 -324 976 l -287 976 l 14 976 q 29 961 29 976 l 29 961 l 29 899 q 14 883 29 883 l 14 883 z "},"่":{"ha":0,"x_min":-221,"x_max":-115,"o":"m -129 883 l -207 883 q -221 899 -221 883 l -221 899 l -221 1113 q -207 1128 -221 1128 l -207 1128 l -129 1128 q -115 1113 -115 1128 l -115 1113 l -115 899 q -129 883 -115 883 l -129 883 z "},"้":{"ha":0,"x_min":-493,"x_max":-25,"o":"m -290 976 l -39 976 q -25 961 -25 976 l -25 961 l -25 899 q -39 883 -25 883 l -39 883 l -376 883 q -390 899 -390 883 l -390 899 l -390 1032 l -478 1032 q -493 1046 -493 1032 l -493 1046 l -493 1107 q -478 1121 -493 1121 l -478 1121 l -351 1121 q -306 1105 -322 1121 q -290 1058 -290 1089 l -290 1058 l -290 976 z "},"๊":{"ha":0,"x_min":-633,"x_max":-58,"o":"m -187 969 l -74 969 q -58 954 -58 969 l -58 954 l -58 899 q -74 883 -58 883 l -74 883 l -264 883 q -278 899 -278 883 l -278 899 l -278 993 q -322 1051 -278 1043 l -322 1051 l -401 1001 l -414 1001 l -494 1051 q -536 993 -536 1043 l -536 993 l -536 899 q -551 883 -536 883 l -551 883 l -618 883 q -633 899 -633 883 l -633 899 l -633 1011 q -597 1103 -633 1067 q -499 1144 -560 1139 l -499 1144 l -407 1088 l -318 1144 q -222 1103 -256 1139 q -187 1011 -187 1068 l -187 1011 l -187 969 z "},"๋":{"ha":0,"x_min":-340,"x_max":7,"o":"m -117 1072 l -7 1072 q 7 1058 7 1072 l 7 1058 l 7 1001 q -7 988 7 988 l -7 988 l -117 988 l -117 899 q -131 883 -117 883 l -131 883 l -203 883 q -217 899 -217 883 l -217 899 l -217 988 l -326 988 q -340 1001 -340 988 l -340 1001 l -340 1058 q -326 1072 -340 1072 l -326 1072 l -217 1072 l -217 1163 q -203 1176 -217 1176 l -203 1176 l -131 1176 q -117 1163 -117 1176 l -117 1163 l -117 1072 z "},"์":{"ha":0,"x_min":-349,"x_max":-29,"o":"m -260 883 l -333 883 q -349 899 -349 883 l -349 899 l -349 942 q -306 1053 -349 1013 q -189 1094 -264 1094 l -189 1094 l -43 1094 q -29 1081 -29 1094 l -29 1081 l -29 1018 q -43 1004 -29 1004 l -43 1004 l -168 1004 q -224 985 -204 1004 q -244 929 -244 965 l -244 929 l -244 899 q -260 883 -244 883 l -260 883 z "},"็":{"ha":0,"x_min":-657,"x_max":-151,"o":"m -167 1096 l -468 1096 q -531 1076 -507 1096 q -554 1025 -554 1057 l -554 1025 q -536 977 -554 994 q -486 960 -518 960 l -486 960 q -442 976 -461 960 q -406 1028 -422 993 l -406 1028 q -387 1039 -399 1039 l -387 1039 l -351 1039 q -336 1029 -342 1039 l -336 1029 l -317 996 q -292 974 -307 981 q -253 967 -278 967 l -253 967 l -167 967 q -151 951 -151 967 l -151 951 l -151 899 q -167 883 -151 883 l -167 883 l -249 883 q -364 943 -331 883 l -364 943 l -372 957 q -510 874 -417 874 l -510 874 q -617 914 -576 874 q -657 1022 -657 954 l -657 1022 q -608 1139 -657 1096 q -478 1182 -560 1182 l -478 1182 l -167 1182 q -151 1168 -151 1182 l -151 1168 l -151 1110 q -167 1096 -151 1096 l -167 1096 z "},"๎":{"ha":0,"x_min":-351,"x_max":-104,"o":"m -189 1151 l -119 1151 q -104 1136 -104 1151 l -104 1136 l -104 1097 q -119 1082 -104 1082 l -119 1082 l -164 1082 q -207 1049 -207 1082 l -207 1049 q -196 1025 -207 1033 q -165 1017 -185 1017 l -165 1017 l -150 1017 q -135 1003 -135 1017 l -135 1003 l -135 976 q -150 963 -135 963 l -150 963 l -192 963 q -247 910 -247 963 l -247 910 l -247 899 q -262 883 -247 883 l -262 883 l -336 883 q -351 899 -351 883 l -351 899 l -351 915 q -278 1006 -351 989 l -278 1006 q -306 1063 -306 1026 l -306 1063 q -273 1126 -306 1101 q -189 1151 -240 1151 l -189 1151 z "},"ิ":{"ha":0,"x_min":-694,"x_max":-111,"o":"m -162 883 l -679 883 q -694 899 -694 883 l -694 899 l -694 961 q -679 976 -694 976 l -679 976 l -125 976 q -111 963 -111 976 l -111 963 l -111 935 q -125 897 -111 911 q -162 883 -139 883 l -162 883 z "},"ี":{"ha":0,"x_min":-694,"x_max":-111,"o":"m -162 883 l -679 883 q -694 899 -694 883 l -694 899 l -694 961 q -679 976 -694 976 l -679 976 l -215 976 l -215 1107 q -200 1121 -215 1121 l -200 1121 l -126 1121 q -111 1107 -111 1121 l -111 1107 l -111 935 q -125 897 -111 911 q -162 883 -139 883 l -162 883 z "},"ึ":{"ha":0,"x_min":-694,"x_max":-68,"o":"m -199 1135 q -105 1099 -142 1135 q -68 1010 -68 1064 l -68 1010 q -105 919 -68 954 q -199 883 -142 883 l -199 883 l -679 883 q -694 899 -694 883 l -694 899 l -694 961 q -679 976 -694 976 l -679 976 l -321 976 q -325 1010 -325 993 l -325 1010 q -290 1099 -325 1064 q -199 1135 -254 1135 l -199 1135 z m -197 949 q -153 966 -171 949 q -136 1010 -136 983 l -136 1010 q -153 1053 -136 1036 q -197 1069 -171 1069 l -197 1069 q -241 1053 -224 1069 q -258 1010 -258 1036 l -258 1010 q -241 966 -258 983 q -197 949 -224 949 l -197 949 z "},"ื":{"ha":0,"x_min":-694,"x_max":-111,"o":"m -187 1121 l -126 1121 q -111 1107 -111 1121 l -111 1107 l -111 935 q -125 897 -111 911 q -162 883 -139 883 l -162 883 l -679 883 q -694 899 -694 883 l -694 899 l -694 961 q -679 976 -694 976 l -679 976 l -378 976 l -378 1107 q -364 1121 -378 1121 l -364 1121 l -306 1121 q -290 1107 -290 1121 l -290 1107 l -290 972 l -201 972 l -201 1107 q -187 1121 -201 1121 l -187 1121 z "},"ํ":{"ha":0,"x_min":-308,"x_max":-36,"o":"m -172 869 q -270 907 -232 869 q -308 1003 -308 944 l -308 1003 q -270 1097 -308 1060 q -172 1135 -232 1135 l -172 1135 q -74 1097 -112 1135 q -36 1003 -36 1060 l -36 1003 q -74 907 -36 944 q -172 869 -112 869 l -172 869 z m -172 939 q -126 957 -144 939 q -108 1003 -108 975 l -108 1003 q -127 1049 -108 1031 q -172 1067 -146 1067 l -172 1067 q -218 1049 -200 1067 q -236 1003 -236 1031 l -236 1003 q -218 957 -236 975 q -172 939 -200 939 l -172 939 z "},"ุ":{"ha":0,"x_min":-325,"x_max":-111,"o":"m -126 -112 q -111 -128 -111 -112 l -111 -128 l -111 -357 q -126 -371 -111 -371 l -126 -371 l -203 -371 q -217 -357 -217 -371 l -217 -357 l -217 -206 l -310 -206 q -325 -190 -325 -206 l -325 -190 l -325 -128 q -310 -112 -325 -112 l -310 -112 l -126 -112 z "},"ู":{"ha":0,"x_min":-558,"x_max":-111,"o":"m -194 -112 l -126 -112 q -111 -128 -111 -112 l -111 -128 l -111 -228 q -160 -351 -111 -307 q -296 -396 -208 -396 l -296 -396 q -431 -352 -383 -396 q -479 -231 -479 -308 l -479 -231 l -479 -193 l -544 -193 q -558 -179 -558 -193 l -558 -179 l -558 -128 q -544 -112 -558 -112 l -544 -112 l -400 -112 q -385 -128 -385 -112 l -385 -128 l -385 -217 q -362 -286 -385 -261 q -296 -311 -339 -311 l -296 -311 q -231 -286 -254 -311 q -208 -214 -208 -261 l -208 -214 l -208 -128 q -194 -112 -208 -112 l -194 -112 z "},"ฺ":{"ha":0,"x_min":-244,"x_max":-93,"o":"m -169 -258 q -223 -237 -201 -258 q -244 -182 -244 -215 l -244 -182 q -223 -128 -244 -150 q -169 -107 -201 -107 l -169 -107 q -115 -128 -136 -107 q -93 -182 -93 -150 l -93 -182 q -115 -237 -93 -215 q -169 -258 -136 -258 l -169 -258 z "},"๐":{"ha":856,"x_min":68,"x_max":788,"o":"m 428 -15 q 243 31 325 -15 q 115 158 161 76 q 68 342 68 239 l 68 342 q 115 526 68 444 q 243 653 161 607 q 428 699 325 699 l 428 699 q 613 653 531 699 q 741 526 694 607 q 788 342 788 444 l 788 342 q 741 158 788 239 q 613 31 694 76 q 428 -15 531 -15 l 428 -15 z m 428 86 q 555 119 499 86 q 642 210 611 151 q 674 342 674 268 l 674 342 q 642 474 674 415 q 555 565 611 532 q 428 597 499 597 l 428 597 q 301 565 357 597 q 213 474 244 532 q 182 342 182 415 l 182 342 q 213 210 182 268 q 301 119 244 151 q 428 86 357 86 l 428 86 z "},"๑":{"ha":836,"x_min":63,"x_max":768,"o":"m 310 -140 l 307 -140 q 293 -128 297 -140 l 293 -128 l 278 -56 l 278 -53 q 292 -39 278 -42 l 292 -39 q 561 88 468 -6 q 654 328 654 182 l 654 328 q 588 524 654 451 q 406 596 521 596 l 406 596 q 239 542 301 596 q 176 397 176 488 l 176 397 q 219 278 176 324 q 332 232 263 232 l 332 232 q 414 251 381 232 l 414 251 q 424 254 418 254 l 424 254 q 433 247 431 254 l 433 247 l 463 188 q 465 178 465 182 l 465 178 q 460 167 465 172 l 460 167 q 318 132 406 132 l 318 132 q 133 203 203 132 q 63 392 63 274 l 63 392 q 105 553 63 483 q 225 660 147 622 q 407 699 303 699 l 407 699 q 672 599 575 699 q 768 328 768 500 l 768 328 q 651 17 768 138 q 310 -140 533 -103 l 310 -140 z "},"๒":{"ha":992,"x_min":110,"x_max":886,"o":"m 501 -15 q 201 49 293 -15 q 110 258 110 113 l 110 258 l 110 850 q 125 865 110 865 l 125 865 l 207 865 q 222 850 222 865 l 222 850 l 222 272 q 287 129 222 172 q 500 86 351 86 l 500 86 q 710 128 644 86 q 776 265 776 169 l 776 265 l 776 488 q 759 560 776 532 q 710 596 742 588 l 710 596 l 611 532 l 601 532 l 503 596 q 453 559 471 588 q 435 486 435 531 l 435 486 l 435 332 q 421 317 435 317 l 421 317 l 344 317 q 331 332 331 317 l 331 332 l 331 492 q 376 631 331 575 q 496 696 422 686 l 496 696 l 604 621 l 715 696 q 840 628 793 685 q 886 486 886 571 l 886 486 l 886 251 q 794 48 886 111 q 501 -15 703 -15 l 501 -15 z "},"๓":{"ha":961,"x_min":106,"x_max":850,"o":"m 657 696 q 798 638 746 696 q 850 482 850 581 l 850 482 l 850 15 q 836 0 850 0 l 836 0 l 753 0 q 739 15 739 0 l 739 15 l 739 474 q 713 563 739 531 q 639 594 686 594 l 639 594 q 561 559 590 594 q 532 463 532 524 l 532 463 l 532 244 q 518 229 532 229 l 518 229 l 447 229 q 433 244 433 229 l 433 244 l 433 463 q 403 560 433 525 q 322 594 374 594 l 322 594 q 245 563 272 594 q 218 474 218 531 l 218 474 l 218 233 q 246 125 218 163 q 326 88 274 88 l 326 88 q 388 104 361 88 l 388 104 q 399 108 394 108 l 399 108 q 407 100 403 108 l 407 100 l 438 40 q 440 32 440 35 l 440 32 q 433 21 440 25 l 433 21 q 315 -12 390 -12 l 315 -12 q 160 49 215 -12 q 106 225 106 111 l 106 225 l 106 482 q 160 638 106 579 q 307 696 215 696 l 307 696 q 416 666 369 696 q 483 579 463 636 l 483 579 q 550 666 506 636 q 657 696 594 696 l 657 696 z "},"๔":{"ha":813,"x_min":68,"x_max":757,"o":"m 561 99 l 742 99 q 757 85 757 99 l 757 85 l 757 15 q 742 0 757 0 l 742 0 l 392 0 q 220 42 293 0 q 108 161 147 83 q 68 343 68 239 l 68 343 q 156 592 68 500 q 394 683 244 683 l 394 683 l 529 683 q 613 714 583 683 q 642 800 642 744 l 642 800 l 642 850 q 657 865 642 865 l 657 865 l 738 865 q 753 850 753 865 l 753 850 l 753 799 q 699 640 753 696 q 543 585 644 585 l 543 585 l 413 585 q 243 519 304 585 q 182 339 182 454 l 182 339 q 242 162 182 225 q 408 99 301 99 l 408 99 l 456 99 l 456 238 q 500 360 456 315 q 624 404 544 404 l 624 404 l 703 404 q 718 389 718 404 l 718 389 l 718 328 q 703 314 718 314 l 703 314 l 658 314 q 587 287 613 314 q 561 211 561 260 l 561 211 l 561 99 z "},"๕":{"ha":813,"x_min":68,"x_max":757,"o":"m 561 99 l 742 99 q 757 85 757 99 l 757 85 l 757 15 q 742 0 757 0 l 742 0 l 392 0 q 220 42 293 0 q 108 161 147 83 q 68 343 68 239 l 68 343 q 119 542 68 460 q 263 656 171 624 l 263 656 q 231 743 231 692 l 231 743 q 270 842 231 803 q 371 881 310 881 l 371 881 q 469 842 431 881 q 508 743 508 803 l 508 743 q 496 683 508 711 l 496 683 l 535 683 q 618 714 589 683 q 647 800 647 744 l 647 800 l 647 850 q 663 865 647 865 l 663 865 l 738 865 q 753 850 753 865 l 753 850 l 753 799 q 699 640 753 696 q 543 585 644 585 l 543 585 l 413 585 q 243 519 304 585 q 182 339 182 454 l 182 339 q 242 162 182 225 q 408 99 301 99 l 408 99 l 456 99 l 456 238 q 500 360 456 315 q 624 404 544 404 l 624 404 l 703 404 q 718 389 718 404 l 718 389 l 718 328 q 703 314 718 314 l 703 314 l 658 314 q 587 287 613 314 q 561 211 561 260 l 561 211 l 561 99 z m 371 810 q 324 790 343 810 q 306 743 306 771 l 306 743 q 324 695 306 714 q 371 676 343 676 l 371 676 q 385 678 381 676 l 385 678 l 397 682 q 424 705 414 689 q 433 743 433 721 l 433 743 q 415 790 433 771 q 371 810 397 810 l 371 810 z "},"๖":{"ha":806,"x_min":8,"x_max":738,"o":"m 397 699 q 577 654 500 699 q 696 528 654 610 q 738 336 738 446 l 738 336 q 694 151 738 231 q 571 28 651 71 q 383 -15 490 -15 l 383 -15 q 189 37 268 -15 q 76 185 110 89 l 76 185 l 75 192 q 86 204 75 200 l 86 204 l 163 222 l 169 224 q 182 213 178 224 l 182 213 q 258 119 207 151 q 382 86 308 86 l 382 86 q 558 153 493 86 q 624 336 624 221 l 624 336 q 557 526 624 456 q 379 597 490 597 l 379 597 q 182 493 244 597 l 182 493 q 164 483 175 483 l 164 483 l 100 483 q 89 488 93 483 q 83 497 85 492 l 83 497 l 8 849 l 8 851 q 22 865 8 865 l 22 865 l 104 865 q 115 861 111 865 q 121 851 119 857 l 121 851 l 169 601 q 269 674 210 649 q 397 699 328 699 l 397 699 z "},"๗":{"ha":1199,"x_min":106,"x_max":1089,"o":"m 992 865 l 1074 865 q 1089 850 1089 865 l 1089 850 l 1089 282 q 1021 72 1089 144 q 824 0 953 0 l 824 0 l 728 0 q 714 15 714 0 l 714 15 l 714 476 q 689 563 714 531 q 622 594 664 594 l 622 594 q 548 560 575 594 q 521 464 521 525 l 521 464 l 521 244 q 506 229 521 229 l 506 229 l 436 229 q 421 244 421 229 l 421 244 l 421 465 q 392 560 421 525 q 315 594 364 594 l 315 594 q 244 563 271 594 q 218 475 218 531 l 218 475 l 218 233 q 247 125 218 163 q 328 88 275 88 l 328 88 q 389 104 363 88 l 389 104 q 400 108 396 108 l 400 108 q 408 100 404 108 l 408 100 l 439 40 q 442 32 442 35 l 442 32 q 435 21 442 25 l 435 21 q 317 -12 392 -12 l 317 -12 q 161 49 217 -12 q 106 225 106 111 l 106 225 l 106 483 q 158 638 106 581 q 299 696 211 696 l 299 696 q 405 667 360 696 q 471 581 450 638 l 471 581 q 538 667 493 638 q 640 696 582 696 l 640 696 q 773 638 724 696 q 822 483 822 581 l 822 483 l 822 96 l 828 96 q 938 144 900 96 q 976 282 976 192 l 976 282 l 976 850 q 992 865 976 865 l 992 865 z "},"๘":{"ha":896,"x_min":68,"x_max":811,"o":"m 717 324 l 796 324 q 807 319 803 324 q 811 310 811 315 l 811 310 l 811 183 q 758 44 811 94 q 597 -11 704 -6 l 597 -11 l 456 133 l 453 133 l 311 -11 q 132 101 196 11 q 68 325 68 190 l 68 325 q 110 513 68 432 q 231 639 153 594 q 415 683 310 683 l 415 683 l 561 683 q 650 715 619 683 q 681 804 681 746 l 681 804 l 681 850 q 696 865 681 865 l 696 865 l 776 865 q 792 850 792 865 l 792 850 l 792 804 q 738 642 792 699 q 582 585 683 585 l 582 585 l 433 585 q 251 513 319 585 q 182 322 182 440 l 182 322 q 210 184 182 243 q 292 94 239 125 l 292 94 l 443 247 l 465 247 l 625 86 q 701 194 701 113 l 701 194 l 701 310 q 706 319 701 315 q 717 324 710 324 l 717 324 z "},"๙":{"ha":842,"x_min":106,"x_max":813,"o":"m 717 865 l 799 865 q 813 850 813 865 l 813 850 l 813 761 q 767 631 813 676 q 638 585 722 585 l 638 585 l 600 585 q 544 542 544 585 l 544 542 q 558 483 544 517 l 558 483 l 733 17 l 735 13 q 731 3 735 7 q 721 0 726 0 l 721 0 l 633 0 q 617 13 622 0 l 617 13 l 442 490 q 319 594 404 594 l 319 594 q 245 563 272 594 q 218 475 218 531 l 218 475 l 218 233 q 247 125 218 163 q 328 88 275 88 l 328 88 q 389 104 363 88 l 389 104 q 400 108 396 108 l 400 108 q 408 100 404 108 l 408 100 l 439 40 q 442 32 442 35 l 442 32 q 435 21 442 25 l 435 21 q 317 -12 392 -12 l 317 -12 q 161 49 217 -12 q 106 225 106 111 l 106 225 l 106 483 q 159 639 106 582 q 304 696 213 696 l 304 696 q 465 617 411 696 l 465 617 q 571 683 486 683 l 571 683 l 607 683 q 678 708 653 683 q 703 779 703 733 l 703 779 l 703 850 q 717 865 703 865 l 717 865 z "},"๏":{"ha":849,"x_min":60,"x_max":789,"o":"m 425 39 q 238 83 321 39 q 107 206 154 128 q 60 383 60 285 l 60 383 q 107 562 60 483 q 238 685 154 640 q 425 729 321 729 l 425 729 q 613 685 529 729 q 742 562 696 640 q 789 383 789 483 l 789 383 q 742 206 789 285 q 613 83 696 128 q 425 39 529 39 l 425 39 z m 425 106 q 574 142 508 106 q 677 241 640 178 q 714 383 714 304 l 714 383 q 677 526 714 463 q 574 625 640 589 q 425 661 508 661 l 425 661 q 276 625 342 661 q 172 526 210 589 q 135 383 135 463 l 135 383 q 172 241 135 304 q 276 142 210 178 q 425 106 342 106 l 425 106 z m 425 217 q 306 264 353 217 q 260 383 260 311 l 260 383 q 306 503 260 456 q 425 550 353 550 l 425 550 q 542 503 496 550 q 589 383 589 456 l 589 383 q 542 264 589 311 q 425 217 496 217 l 425 217 z m 425 283 q 494 312 467 283 q 522 383 522 340 l 522 383 q 494 456 522 426 q 425 485 467 485 l 425 485 q 355 456 382 485 q 328 383 328 428 l 328 383 q 355 311 328 339 q 425 283 382 283 l 425 283 z "},"๛":{"ha":1171,"x_min":60,"x_max":1140,"o":"m 1113 343 l 1138 288 q 1140 279 1140 282 l 1140 279 q 1135 268 1140 274 l 1135 268 q 1033 238 1093 238 l 1033 238 q 935 271 975 238 q 864 378 894 304 l 864 378 l 813 201 q 796 189 811 189 l 796 189 l 743 189 q 726 200 732 189 l 726 200 l 656 379 q 542 174 624 246 q 342 101 461 101 l 342 101 q 136 177 213 101 q 60 381 60 253 l 60 381 q 133 584 60 508 q 329 660 206 660 l 329 660 q 478 619 417 660 l 478 619 q 482 599 489 613 l 482 599 l 456 543 q 435 539 447 532 l 435 539 q 346 564 396 564 l 346 564 q 218 515 265 564 q 171 383 171 465 l 171 383 q 220 248 171 299 q 353 197 269 197 l 353 197 q 520 283 460 197 q 592 538 581 368 l 592 538 q 607 553 594 553 l 607 553 l 665 553 q 682 540 678 553 l 682 540 l 765 314 l 819 497 q 836 508 824 508 l 836 508 l 878 508 q 896 496 890 508 l 896 496 q 959 366 929 403 q 1029 329 989 329 l 1029 329 q 1092 347 1064 329 l 1092 347 q 1101 350 1096 350 l 1101 350 q 1113 343 1110 350 l 1113 343 z "},"ๆ":{"ha":760,"x_min":50,"x_max":632,"o":"m 617 -299 l 533 -299 q 518 -285 518 -299 l 518 -285 l 518 568 q 444 683 518 664 l 444 683 l 346 614 l 335 614 l 236 683 q 181 644 200 674 q 163 567 163 614 l 163 567 l 163 372 q 149 357 163 357 l 149 357 l 65 357 q 50 372 50 357 l 50 372 l 50 575 q 97 717 50 663 q 231 783 144 772 l 231 783 l 340 708 l 451 783 q 585 718 539 771 q 632 578 632 665 l 632 578 l 632 -285 q 617 -299 632 -299 l 617 -299 z "},"ฯ":{"ha":758,"x_min":39,"x_max":628,"o":"m 531 771 l 613 771 q 628 757 628 771 l 628 757 l 628 15 q 613 0 628 0 l 613 0 l 528 0 q 514 15 514 0 l 514 15 l 514 325 l 322 325 q 114 387 189 325 q 39 560 39 449 l 39 560 q 102 724 39 664 q 272 783 165 783 l 272 783 q 407 749 357 783 l 407 749 q 411 729 418 742 l 411 729 l 382 667 q 363 663 376 654 l 363 663 q 285 681 326 681 l 285 681 q 189 649 224 681 q 154 560 154 617 l 154 560 q 201 460 154 494 q 338 425 249 425 l 338 425 l 515 425 l 515 757 q 531 771 515 771 l 531 771 z "},"๚":{"ha":1025,"x_min":39,"x_max":894,"o":"m 531 771 l 613 771 q 628 757 628 771 l 628 757 l 628 15 q 613 0 628 0 l 613 0 l 528 0 q 514 15 514 0 l 514 15 l 514 325 l 322 325 q 114 387 189 325 q 39 560 39 449 l 39 560 q 102 724 39 664 q 272 783 165 783 l 272 783 q 407 749 357 783 l 407 749 q 411 729 418 742 l 411 729 l 382 667 q 363 663 376 654 l 363 663 q 285 681 326 681 l 285 681 q 189 649 224 681 q 154 560 154 617 l 154 560 q 201 460 154 494 q 338 425 249 425 l 338 425 l 515 425 l 515 757 q 531 771 515 771 l 531 771 z m 794 771 l 879 771 q 894 757 894 771 l 894 757 l 894 15 q 879 0 894 0 l 879 0 l 794 0 q 781 15 781 0 l 781 15 l 781 757 q 794 771 781 771 l 794 771 z "},"ﬁ":{"ha":818,"x_min":22,"x_max":728,"o":"m 247 0 l 165 0 q 150 15 150 0 l 150 15 l 150 601 l 38 601 q 22 615 22 601 l 22 615 l 22 688 q 38 701 22 701 l 38 701 l 150 701 l 150 793 q 210 984 150 917 q 375 1051 271 1051 l 375 1051 q 539 988 474 1051 l 539 988 q 539 967 549 976 l 539 967 l 503 913 q 493 906 499 907 q 482 910 488 904 l 482 910 q 435 940 458 931 q 382 949 413 949 l 382 949 q 261 792 261 949 l 261 792 l 261 701 l 694 701 q 708 688 708 701 l 708 688 l 708 15 q 694 0 708 0 l 694 0 l 613 0 q 597 15 597 0 l 597 15 l 597 601 l 261 601 l 261 15 q 247 0 261 0 l 247 0 z m 653 849 q 600 869 621 849 q 579 921 579 889 l 579 921 q 600 973 579 953 q 653 993 621 993 l 653 993 q 706 973 685 993 q 728 921 728 953 l 728 921 q 706 869 728 889 q 653 849 685 849 l 653 849 z "},"ﬂ":{"ha":817,"x_min":22,"x_max":708,"o":"m 247 0 l 165 0 q 150 15 150 0 l 150 15 l 150 601 l 38 601 q 22 615 22 601 l 22 615 l 22 688 q 38 701 22 701 l 38 701 l 150 701 l 150 793 q 210 984 150 917 q 375 1051 271 1051 l 375 1051 q 539 988 474 1051 l 539 988 q 539 967 549 976 l 539 967 l 503 913 q 493 906 499 907 q 482 910 488 904 l 482 910 q 435 940 458 931 q 382 949 413 949 l 382 949 q 261 792 261 949 l 261 792 l 261 701 l 460 701 q 475 688 475 701 l 475 688 l 475 615 q 460 601 475 601 l 460 601 l 261 601 l 261 15 q 247 0 261 0 l 247 0 z m 694 0 l 613 0 q 597 15 597 0 l 597 15 l 597 1028 q 613 1042 597 1042 l 613 1042 l 694 1042 q 708 1028 708 1042 l 708 1028 l 708 15 q 694 0 708 0 l 694 0 z "},"⁄":{"ha":153,"x_min":-300,"x_max":454,"o":"m -204 0 l -286 0 q -297 6 -294 0 q -296 18 -300 11 l -296 18 l 340 1010 q 358 1019 349 1019 l 358 1019 l 439 1019 q 451 1014 447 1019 q 449 1001 454 1008 l 449 1001 l -187 10 q -204 0 -193 0 l -204 0 z "},"½":{"ha":1258,"x_min":126,"x_max":1183,"o":"m 350 461 l 283 461 q 269 475 269 461 l 269 475 l 269 904 l 156 854 q 149 853 153 853 l 149 853 q 138 861 142 853 l 138 861 l 128 882 q 126 889 126 885 l 126 889 q 132 900 126 896 l 132 900 l 292 1015 q 307 1019 297 1019 l 307 1019 l 350 1019 q 364 1007 364 1019 l 364 1007 l 364 475 q 350 461 364 461 l 350 461 z m 331 0 l 249 0 q 238 6 240 0 q 239 18 235 11 l 239 18 l 875 1010 q 893 1019 883 1019 l 893 1019 l 974 1019 q 985 1014 982 1019 q 983 1001 989 1008 l 983 1001 l 347 10 q 331 0 342 0 l 331 0 z m 1171 0 l 792 0 q 783 4 786 0 q 779 14 779 8 l 779 14 l 779 29 q 785 44 779 39 l 785 44 l 936 197 q 1042 322 1015 276 q 1068 410 1068 368 l 1068 410 q 1042 467 1068 446 q 976 489 1017 489 l 976 489 q 863 411 893 489 l 863 411 q 846 403 857 399 l 846 403 l 788 415 q 779 432 775 419 l 779 432 q 855 535 801 497 q 981 572 908 572 l 981 572 q 1113 529 1061 572 q 1165 415 1165 486 l 1165 415 q 1130 298 1165 356 q 1008 157 1094 240 l 1008 157 l 931 81 l 1171 81 q 1183 68 1183 81 l 1183 68 l 1183 14 q 1171 0 1183 0 l 1171 0 z "},"¼":{"ha":1258,"x_min":126,"x_max":1210,"o":"m 350 461 l 283 461 q 269 475 269 461 l 269 475 l 269 904 l 156 854 q 149 853 153 853 l 149 853 q 138 861 142 853 l 138 861 l 128 882 q 126 889 126 885 l 126 889 q 132 900 126 896 l 132 900 l 292 1015 q 307 1019 297 1019 l 307 1019 l 350 1019 q 364 1007 364 1019 l 364 1007 l 364 475 q 350 461 364 461 l 350 461 z m 376 0 l 294 0 q 283 6 286 0 q 285 18 281 11 l 285 18 l 921 1010 q 939 1019 929 1019 l 939 1019 l 1019 1019 q 1031 1014 1028 1019 q 1029 1001 1035 1008 l 1029 1001 l 393 10 q 376 0 388 0 l 376 0 z m 1115 0 l 1049 0 q 1035 14 1035 0 l 1035 14 l 1035 115 l 760 115 q 747 128 747 115 l 747 128 l 747 143 q 753 160 747 153 l 753 160 l 1049 550 q 1065 558 1056 558 l 1065 558 l 1115 558 q 1128 546 1128 558 l 1128 546 l 1128 190 l 1196 190 q 1210 178 1210 190 l 1210 178 l 1210 128 q 1206 119 1210 122 q 1196 115 1201 115 l 1196 115 l 1128 115 l 1128 14 q 1115 0 1128 0 l 1115 0 z m 1035 425 l 857 190 l 1035 190 l 1035 425 z "},"¾":{"ha":1258,"x_min":58,"x_max":1210,"o":"m 275 447 q 138 487 194 447 q 60 592 82 526 l 60 592 q 58 599 58 594 l 58 599 q 68 610 58 607 l 68 610 l 119 624 q 125 625 121 625 l 125 625 q 139 615 135 625 l 139 615 q 190 554 156 578 q 271 531 225 531 l 271 531 q 356 557 322 531 q 389 625 389 583 l 389 625 q 358 691 389 665 q 272 717 326 717 l 272 717 l 246 717 q 231 732 231 717 l 231 732 l 231 778 q 246 792 231 792 l 246 792 l 272 792 q 349 814 321 792 q 376 872 376 836 l 376 872 q 348 929 376 908 q 274 950 319 950 l 274 950 q 204 932 233 950 q 161 881 175 914 l 161 881 q 142 871 156 868 l 142 871 l 88 883 q 78 901 74 888 l 78 901 q 152 997 97 961 q 278 1033 207 1033 l 278 1033 q 417 992 364 1033 q 471 885 471 951 l 471 885 q 447 808 471 843 q 382 756 424 774 l 382 756 q 458 703 431 739 q 486 617 486 668 l 486 617 q 424 494 486 542 q 275 447 363 447 l 275 447 z m 397 0 l 315 0 q 304 6 307 0 q 306 18 301 11 l 306 18 l 942 1010 q 960 1019 950 1019 l 960 1019 l 1040 1019 q 1052 1014 1049 1019 q 1050 1001 1056 1008 l 1050 1001 l 414 10 q 397 0 408 0 l 397 0 z m 1115 0 l 1049 0 q 1035 14 1035 0 l 1035 14 l 1035 115 l 760 115 q 747 128 747 115 l 747 128 l 747 143 q 753 160 747 153 l 753 160 l 1049 550 q 1065 558 1056 558 l 1065 558 l 1115 558 q 1128 546 1128 558 l 1128 546 l 1128 190 l 1196 190 q 1210 178 1210 190 l 1210 178 l 1210 128 q 1206 119 1210 122 q 1196 115 1201 115 l 1196 115 l 1128 115 l 1128 14 q 1115 0 1128 0 l 1115 0 z m 1035 425 l 857 190 l 1035 190 l 1035 425 z "},".":{"ha":322,"x_min":81,"x_max":242,"o":"m 161 -14 q 103 8 126 -14 q 81 65 81 31 l 81 65 q 103 122 81 100 q 161 144 126 144 l 161 144 q 219 122 196 144 q 242 65 242 100 l 242 65 q 219 8 242 31 q 161 -14 196 -14 l 161 -14 z "},",":{"ha":322,"x_min":61,"x_max":242,"o":"m 126 -211 l 76 -211 q 65 -196 61 -211 l 65 -196 l 126 -7 q 93 22 106 3 q 81 65 81 40 l 81 65 q 104 122 81 99 q 161 144 128 144 l 161 144 q 219 122 196 144 q 242 65 242 100 l 242 65 q 233 15 242 42 q 203 -62 225 -12 l 203 -62 l 142 -201 q 126 -211 138 -211 l 126 -211 z "},":":{"ha":322,"x_min":81,"x_max":242,"o":"m 161 550 q 103 572 126 550 q 81 629 81 594 l 81 629 q 103 686 81 664 q 161 708 126 708 l 161 708 q 219 686 196 708 q 242 629 242 664 l 242 629 q 219 572 242 594 q 161 550 196 550 l 161 550 z m 161 -14 q 103 8 126 -14 q 81 65 81 31 l 81 65 q 103 122 81 100 q 161 144 126 144 l 161 144 q 219 122 196 144 q 242 65 242 100 l 242 65 q 219 8 242 31 q 161 -14 196 -14 l 161 -14 z "},";":{"ha":322,"x_min":61,"x_max":242,"o":"m 161 550 q 103 572 126 550 q 81 629 81 594 l 81 629 q 103 686 81 664 q 161 708 126 708 l 161 708 q 219 686 196 708 q 242 629 242 664 l 242 629 q 219 572 242 594 q 161 550 196 550 l 161 550 z m 126 -211 l 76 -211 q 65 -196 61 -211 l 65 -196 l 126 -7 q 93 22 106 3 q 81 65 81 40 l 81 65 q 104 122 81 99 q 161 144 128 144 l 161 144 q 219 122 196 144 q 242 65 242 100 l 242 65 q 233 15 242 42 q 203 -62 225 -12 l 203 -62 l 142 -201 q 126 -211 138 -211 l 126 -211 z "},"…":{"ha":1389,"x_min":139,"x_max":1251,"o":"m 219 -14 q 162 8 185 -14 q 139 65 139 31 l 139 65 q 162 122 139 100 q 219 144 185 144 l 219 144 q 277 122 254 144 q 300 65 300 100 l 300 65 q 277 8 300 31 q 219 -14 254 -14 l 219 -14 z m 694 -14 q 637 8 660 -14 q 614 65 614 31 l 614 65 q 637 122 614 100 q 694 144 660 144 l 694 144 q 752 122 729 144 q 775 65 775 100 l 775 65 q 752 8 775 31 q 694 -14 729 -14 l 694 -14 z m 1171 -14 q 1113 8 1136 -14 q 1090 65 1090 31 l 1090 65 q 1113 122 1090 100 q 1171 144 1136 144 l 1171 144 q 1228 122 1206 144 q 1251 65 1251 100 l 1251 65 q 1228 8 1251 31 q 1171 -14 1206 -14 l 1171 -14 z "},"!":{"ha":315,"x_min":78,"x_max":239,"o":"m 190 288 l 124 288 q 108 303 108 288 l 108 303 l 100 1004 q 114 1019 100 1019 l 114 1019 l 199 1019 q 214 1004 214 1019 l 214 1004 l 204 303 q 190 288 204 288 l 190 288 z m 158 -14 q 101 8 124 -14 q 78 65 78 31 l 78 65 q 101 122 78 100 q 158 144 124 144 l 158 144 q 216 122 193 144 q 239 65 239 100 l 239 65 q 216 8 239 31 q 158 -14 193 -14 l 158 -14 z "},"?":{"ha":747,"x_min":42,"x_max":686,"o":"m 365 225 l 289 225 q 275 240 275 225 l 275 240 l 271 524 q 286 539 271 539 l 286 539 l 342 539 q 508 595 450 539 q 565 746 565 651 l 565 746 q 513 875 565 825 q 372 925 461 925 l 372 925 q 157 767 217 925 l 157 767 q 138 757 150 753 l 138 757 l 56 779 q 46 797 42 783 l 46 797 q 172 976 85 913 q 379 1039 258 1039 l 379 1039 q 539 1003 469 1039 q 647 902 608 967 q 686 756 686 838 l 686 756 q 650 601 686 671 q 544 488 614 531 q 382 440 475 446 l 382 440 l 379 240 q 365 225 379 225 l 365 225 z m 326 -14 q 270 8 293 -14 q 247 64 247 31 l 247 64 q 270 119 247 97 q 326 140 293 140 l 326 140 q 384 119 361 140 q 407 64 407 97 l 407 64 q 384 8 407 29 q 326 -14 361 -14 l 326 -14 z "},"·":{"ha":446,"x_min":147,"x_max":308,"o":"m 228 383 q 170 406 193 383 q 147 463 147 428 l 147 463 q 170 519 147 497 q 228 542 193 542 l 228 542 q 285 519 263 542 q 308 463 308 497 l 308 463 q 285 406 308 428 q 228 383 263 383 l 228 383 z "},"•":{"ha":561,"x_min":131,"x_max":432,"o":"m 281 278 q 175 322 219 278 q 131 428 131 367 l 131 428 q 175 535 131 490 q 281 579 219 579 l 281 579 q 388 535 343 579 q 432 428 432 490 l 432 428 q 388 322 432 367 q 281 278 343 278 l 281 278 z "},"*":{"ha":658,"x_min":65,"x_max":590,"o":"m 156 519 l 129 539 q 125 560 119 547 l 125 560 l 249 736 l 75 842 q 69 863 65 849 l 69 863 l 86 893 q 94 900 89 899 q 106 899 100 901 l 106 899 l 283 818 l 296 1006 q 311 1019 297 1019 l 311 1019 l 347 1019 q 363 1006 361 1019 l 363 1006 l 375 818 l 553 899 q 561 900 556 900 l 561 900 q 572 893 569 900 l 572 893 l 589 863 q 590 854 590 860 l 590 854 q 583 842 590 847 l 583 842 l 410 736 l 533 560 q 536 551 536 554 l 536 551 q 529 539 536 546 l 529 539 l 503 519 q 493 517 497 517 l 493 517 q 482 522 486 517 l 482 522 l 329 685 l 176 522 q 156 519 168 513 l 156 519 z "},"#":{"ha":1057,"x_min":74,"x_max":985,"o":"m 264 0 l 196 0 q 185 5 189 0 q 182 17 181 10 l 182 17 l 242 271 l 89 271 q 75 288 74 271 l 75 288 l 90 354 q 107 367 96 367 l 107 367 l 265 367 l 333 654 l 181 654 q 167 671 165 654 l 167 671 l 182 738 q 199 750 188 750 l 199 750 l 356 750 l 417 1006 q 433 1018 421 1018 l 433 1018 l 503 1018 q 513 1014 510 1018 q 515 1003 517 1010 l 515 1003 l 456 750 l 714 750 l 775 1006 q 792 1018 779 1018 l 792 1018 l 861 1018 q 872 1014 868 1018 q 874 1003 875 1010 l 874 1003 l 814 750 l 968 750 q 982 735 985 750 l 982 735 l 967 668 q 950 654 963 654 l 950 654 l 790 654 l 722 367 l 876 367 q 890 351 893 367 l 890 351 l 875 285 q 858 271 871 271 l 858 271 l 699 271 l 638 13 q 631 3 636 7 q 621 0 626 0 l 621 0 l 554 0 q 543 5 547 0 q 540 17 539 10 l 540 17 l 600 271 l 342 271 l 281 13 q 264 0 275 0 l 264 0 z m 433 654 l 364 367 l 624 367 l 692 654 l 433 654 z "},"/":{"ha":543,"x_min":54,"x_max":490,"o":"m 153 -153 l 69 -153 q 57 -136 54 -153 l 57 -136 l 375 1029 q 392 1042 379 1042 l 392 1042 l 474 1042 q 486 1025 490 1042 l 486 1025 l 168 -140 q 153 -153 167 -153 l 153 -153 z "},"\\":{"ha":543,"x_min":57,"x_max":488,"o":"m 474 -153 l 392 -153 q 375 -140 379 -153 l 375 -140 l 57 1025 l 57 1029 q 69 1042 57 1042 l 69 1042 l 153 1042 q 168 1029 167 1042 l 168 1029 l 486 -136 l 488 -140 q 474 -153 488 -153 l 474 -153 z "},"(":{"ha":521,"x_min":75,"x_max":493,"o":"m 478 -207 q 75 444 75 -185 l 75 444 q 478 1097 75 1072 l 478 1097 q 493 1083 493 1097 l 493 1083 l 493 1006 q 479 990 493 993 l 479 990 q 264 848 333 979 q 194 444 194 717 l 194 444 q 264 41 194 172 q 479 -101 333 -90 l 479 -101 q 493 -117 493 -101 l 493 -117 l 493 -193 q 478 -207 493 -210 l 478 -207 z "},")":{"ha":521,"x_min":28,"x_max":446,"o":"m 43 -207 l 40 -207 q 28 -193 28 -207 l 28 -193 l 28 -117 q 42 -101 28 -101 l 42 -101 q 257 41 188 -90 q 326 444 326 172 l 326 444 q 257 848 326 717 q 42 990 188 979 l 42 990 q 28 1006 28 993 l 28 1006 l 28 1083 q 43 1097 28 1097 l 43 1097 q 446 444 446 1072 l 446 444 q 43 -207 446 -185 l 43 -207 z "},"{":{"ha":551,"x_min":78,"x_max":524,"o":"m 510 -208 l 494 -208 q 274 -140 354 -208 q 194 74 194 -72 l 194 74 l 194 314 q 182 377 194 360 q 138 394 169 394 l 138 394 l 93 394 q 78 410 78 394 l 78 410 l 78 481 q 93 494 78 494 l 93 494 l 138 494 q 182 513 169 494 q 194 576 194 531 l 194 576 l 194 817 q 274 1030 194 963 q 494 1097 354 1097 l 494 1097 l 510 1097 q 524 1083 524 1097 l 524 1083 l 524 1008 q 510 993 524 993 l 510 993 l 501 993 q 353 947 401 993 q 306 804 306 900 l 306 804 l 306 554 q 249 446 306 464 l 249 446 q 306 336 306 426 l 306 336 l 306 86 q 353 -57 306 -10 q 501 -104 401 -104 l 501 -104 l 510 -104 q 524 -118 524 -104 l 524 -118 l 524 -193 q 510 -208 524 -208 l 510 -208 z "},"}":{"ha":551,"x_min":28,"x_max":474,"o":"m 57 -208 l 43 -208 q 28 -193 28 -208 l 28 -193 l 28 -118 q 43 -104 28 -104 l 43 -104 l 51 -104 q 198 -57 150 -104 q 246 86 246 -10 l 246 86 l 246 336 q 303 444 246 426 l 303 444 q 246 554 246 464 l 246 554 l 246 804 q 199 947 246 900 q 51 993 151 993 l 51 993 l 43 993 q 28 1008 28 993 l 28 1008 l 28 1083 q 43 1097 28 1097 l 43 1097 l 57 1097 q 278 1030 199 1097 q 357 817 357 963 l 357 817 l 357 576 q 370 513 357 531 q 415 494 383 494 l 415 494 l 460 494 q 474 481 474 494 l 474 481 l 474 410 q 460 394 474 394 l 460 394 l 415 394 q 370 377 383 394 q 357 314 357 360 l 357 314 l 357 74 q 277 -140 357 -72 q 57 -208 197 -208 l 57 -208 z "},"[":{"ha":432,"x_min":94,"x_max":404,"o":"m 389 -208 l 110 -208 q 94 -193 94 -208 l 94 -193 l 94 1083 q 110 1097 94 1097 l 110 1097 l 389 1097 q 404 1083 404 1097 l 404 1083 l 404 1008 q 389 994 404 994 l 389 994 l 207 994 l 207 -104 l 389 -104 q 404 -119 404 -104 l 404 -119 l 404 -193 q 389 -208 404 -208 l 389 -208 z "},"]":{"ha":432,"x_min":28,"x_max":338,"o":"m 322 -208 l 43 -208 q 28 -193 28 -208 l 28 -193 l 28 -119 q 43 -104 28 -104 l 43 -104 l 225 -104 l 225 994 l 43 994 q 28 1008 28 994 l 28 1008 l 28 1083 q 43 1097 28 1097 l 43 1097 l 322 1097 q 338 1083 338 1097 l 338 1083 l 338 -193 q 322 -208 338 -208 l 322 -208 z "},"-":{"ha":650,"x_min":107,"x_max":544,"o":"m 529 400 l 121 400 q 107 414 107 400 l 107 414 l 107 492 q 121 506 107 506 l 121 506 l 529 506 q 544 492 544 506 l 544 492 l 544 414 q 529 400 544 400 l 529 400 z "},"­":{"ha":650,"x_min":107,"x_max":544,"o":"m 529 400 l 121 400 q 107 414 107 400 l 107 414 l 107 492 q 121 506 107 506 l 121 506 l 529 506 q 544 492 544 506 l 544 492 l 544 414 q 529 400 544 400 l 529 400 z "},"–":{"ha":694,"x_min":0,"x_max":694,"o":"m 681 400 l 15 400 q 0 414 0 400 l 0 414 l 0 492 q 15 506 0 506 l 15 506 l 681 506 q 694 492 694 506 l 694 492 l 694 414 q 681 400 694 400 l 681 400 z "},"—":{"ha":1389,"x_min":0,"x_max":1389,"o":"m 1375 400 l 15 400 q 0 414 0 400 l 0 414 l 0 492 q 15 506 0 506 l 15 506 l 1375 506 q 1389 492 1389 506 l 1389 492 l 1389 414 q 1375 400 1389 400 l 1375 400 z "},"‐":{"ha":650,"x_min":107,"x_max":544,"o":"m 529 400 l 121 400 q 107 414 107 400 l 107 414 l 107 492 q 121 506 107 506 l 121 506 l 529 506 q 544 492 544 506 l 544 492 l 544 414 q 529 400 544 400 l 529 400 z "},"‑":{"ha":650,"x_min":107,"x_max":544,"o":"m 529 400 l 121 400 q 107 414 107 400 l 107 414 l 107 492 q 121 506 107 506 l 121 506 l 529 506 q 544 492 544 506 l 544 492 l 544 414 q 529 400 544 400 l 529 400 z "},"_":{"ha":783,"x_min":63,"x_max":721,"o":"m 707 -207 l 76 -207 q 67 -202 72 -207 q 63 -192 63 -197 l 63 -192 l 63 -115 q 67 -105 63 -110 q 76 -100 72 -100 l 76 -100 l 707 -100 q 717 -105 713 -100 q 721 -115 721 -110 l 721 -115 l 721 -192 q 717 -202 721 -197 q 707 -207 713 -207 l 707 -207 z "},"“":{"ha":540,"x_min":75,"x_max":458,"o":"m 151 686 q 96 706 117 686 q 75 758 75 726 l 75 758 q 83 807 75 779 q 114 886 92 835 l 114 886 l 168 1010 q 183 1019 172 1019 l 183 1019 l 225 1019 q 236 1004 240 1019 l 236 1004 l 178 828 q 215 803 201 821 q 228 760 228 785 l 228 760 q 206 707 228 728 q 151 686 185 686 l 151 686 z m 369 686 q 314 706 335 686 q 293 758 293 726 l 293 758 q 301 807 293 779 q 332 886 310 835 l 332 886 l 386 1010 q 401 1019 390 1019 l 401 1019 l 443 1019 q 454 1004 458 1019 l 454 1004 l 396 828 q 433 803 419 821 q 446 760 446 785 l 446 760 q 424 707 446 728 q 369 686 403 686 l 369 686 z "},"”":{"ha":539,"x_min":85,"x_max":465,"o":"m 139 701 l 97 701 q 88 706 90 701 q 86 717 85 711 l 86 717 l 144 893 q 109 919 122 900 q 96 963 96 938 l 96 963 q 117 1015 96 994 q 172 1035 138 1035 l 172 1035 q 227 1015 206 1035 q 249 963 249 994 l 249 963 q 240 914 249 942 q 208 836 232 886 l 208 836 l 156 713 q 139 701 150 701 l 139 701 z m 356 701 l 314 701 q 304 706 307 701 q 303 717 301 711 l 303 717 l 361 893 q 326 919 339 900 q 313 963 313 938 l 313 963 q 333 1015 313 994 q 389 1035 354 1035 l 389 1035 q 444 1015 422 1035 q 465 963 465 994 l 465 963 q 457 914 465 942 q 425 836 449 886 l 425 836 l 372 713 q 356 701 367 701 l 356 701 z "},"‘":{"ha":322,"x_min":75,"x_max":240,"o":"m 151 686 q 96 706 117 686 q 75 758 75 726 l 75 758 q 83 807 75 779 q 114 886 92 835 l 114 886 l 168 1010 q 183 1019 172 1019 l 183 1019 l 225 1019 q 236 1004 240 1019 l 236 1004 l 178 828 q 215 803 201 821 q 228 760 228 785 l 228 760 q 206 707 228 728 q 151 686 185 686 l 151 686 z "},"’":{"ha":322,"x_min":85,"x_max":249,"o":"m 139 701 l 97 701 q 88 706 90 701 q 86 717 85 711 l 86 717 l 144 893 q 109 919 122 900 q 96 963 96 938 l 96 963 q 117 1015 96 994 q 172 1035 138 1035 l 172 1035 q 227 1015 206 1035 q 249 963 249 994 l 249 963 q 240 914 249 942 q 208 836 232 886 l 208 836 l 156 713 q 139 701 150 701 l 139 701 z "},"\"":{"ha":540,"x_min":107,"x_max":433,"o":"m 189 701 l 133 701 q 124 705 128 701 q 119 714 119 708 l 119 714 l 107 1007 q 119 1019 107 1019 l 119 1019 l 203 1019 q 215 1007 215 1019 l 215 1007 l 203 714 q 199 705 203 708 q 189 701 194 701 l 189 701 z m 407 701 l 351 701 q 342 705 346 701 q 338 714 338 708 l 338 714 l 325 1007 q 338 1019 325 1019 l 338 1019 l 421 1019 q 433 1007 433 1019 l 433 1007 l 421 714 q 417 705 421 708 q 407 701 413 701 l 407 701 z "},"'":{"ha":322,"x_min":107,"x_max":215,"o":"m 189 701 l 133 701 q 124 705 128 701 q 119 714 119 708 l 119 714 l 107 1007 q 119 1019 107 1019 l 119 1019 l 203 1019 q 215 1007 215 1019 l 215 1007 l 203 714 q 199 705 203 708 q 189 701 194 701 l 189 701 z "}," ":{"ha":1389,"x_min":null,"x_max":null,"o":""}," ":{"ha":1389,"x_min":null,"x_max":null,"o":""}," ":{"ha":694,"x_min":null,"x_max":null,"o":""}," ":{"ha":694,"x_min":null,"x_max":null,"o":""}," ":{"ha":833,"x_min":null,"x_max":null,"o":""}," ":{"ha":347,"x_min":null,"x_max":null,"o":""}," ":{"ha":231,"x_min":null,"x_max":null,"o":""}," ":{"ha":322,"x_min":null,"x_max":null,"o":""}," ":{"ha":232,"x_min":null,"x_max":null,"o":""}," ":{"ha":310,"x_min":null,"x_max":null,"o":""}," ":{"ha":278,"x_min":null,"x_max":null,"o":""}," ":{"ha":463,"x_min":null,"x_max":null,"o":""},"​":{"ha":0,"x_min":null,"x_max":null,"o":""},"‍":{"ha":0,"x_min":null,"x_max":null,"o":""},"‌":{"ha":0,"x_min":null,"x_max":null,"o":""},"⁠":{"ha":0,"x_min":null,"x_max":null,"o":""},"﻿":{"ha":0,"x_min":null,"x_max":null,"o":""},"฿":{"ha":814,"x_min":111,"x_max":747,"o":"m 747 306 q 673 126 747 190 q 450 54 599 63 l 450 54 l 450 -74 q 436 -87 450 -87 l 436 -87 l 374 -87 q 360 -74 360 -87 l 360 -74 l 360 53 l 126 53 q 111 67 111 53 l 111 67 l 111 953 q 126 968 111 968 l 126 968 l 360 968 l 360 1088 q 374 1103 360 1103 l 374 1103 l 436 1103 q 450 1088 450 1103 l 450 1088 l 450 965 q 638 896 575 956 q 700 736 700 836 l 700 736 q 660 605 700 657 q 547 535 621 553 l 547 535 q 697 457 646 515 q 747 306 747 399 l 747 306 z m 360 567 l 360 882 l 224 882 l 224 567 l 360 567 z m 594 725 q 450 878 594 854 l 450 878 l 450 572 q 558 623 521 583 q 594 725 594 663 l 594 725 z m 360 486 l 224 486 l 224 138 l 360 138 l 360 486 z m 450 483 l 450 139 q 589 192 542 149 q 636 310 636 235 l 636 310 q 450 483 636 463 l 450 483 z "},"¢":{"ha":764,"x_min":58,"x_max":719,"o":"m 433 0 l 372 0 q 357 15 357 0 l 357 15 l 357 138 q 139 253 219 154 q 58 500 58 351 l 58 500 q 139 747 58 649 q 357 861 219 844 l 357 861 l 357 1006 q 372 1019 357 1019 l 372 1019 l 433 1019 q 449 1006 449 1019 l 449 1006 l 449 863 q 704 672 638 846 l 704 672 l 706 667 q 694 654 706 658 l 694 654 l 625 633 l 619 632 q 607 643 611 632 l 607 643 q 449 758 558 746 l 449 758 l 449 240 q 611 363 563 254 l 611 363 q 629 371 617 375 l 629 371 l 704 351 q 713 333 719 347 l 713 333 q 611 195 679 244 q 449 136 543 146 l 449 136 l 449 15 q 433 0 449 0 l 433 0 z m 172 500 q 219 332 172 403 q 357 243 267 261 l 357 243 l 357 756 q 219 668 267 739 q 172 500 172 597 l 172 500 z "},"¤":{"ha":782,"x_min":57,"x_max":725,"o":"m 106 221 l 63 261 q 57 272 57 265 q 61 282 57 278 l 61 282 l 157 379 q 114 536 114 446 l 114 536 q 158 693 114 628 l 158 693 l 61 792 q 57 801 57 796 l 57 801 q 63 813 57 808 l 63 813 l 106 853 q 115 857 110 857 l 115 857 q 126 853 122 857 l 126 853 l 219 757 q 390 808 288 808 l 390 808 q 563 757 492 808 l 563 757 l 656 853 q 667 858 660 858 l 667 858 q 676 853 672 858 l 676 853 l 719 813 q 725 802 725 808 q 721 792 725 796 l 721 792 l 624 693 q 668 536 668 628 l 668 536 q 624 379 668 444 l 624 379 l 721 282 q 725 272 725 278 l 725 272 q 719 261 725 265 l 719 261 l 676 221 q 667 217 672 217 l 667 217 q 656 221 660 217 l 656 221 l 564 317 q 390 264 492 264 l 390 264 q 218 315 289 264 l 218 315 l 126 221 q 116 216 122 217 q 106 221 110 215 l 106 221 z m 390 356 q 519 406 469 356 q 569 536 569 456 l 569 536 q 519 668 569 618 q 390 718 469 718 l 390 718 q 262 668 311 718 q 213 536 213 618 l 213 536 q 262 406 213 456 q 390 356 311 356 l 390 356 z "},"$":{"ha":803,"x_min":57,"x_max":728,"o":"m 446 -86 l 383 -86 q 369 -71 369 -86 l 369 -71 l 369 44 q 174 111 253 53 q 58 275 94 169 l 58 275 l 57 281 q 68 293 57 289 l 68 293 l 143 315 l 149 317 q 161 304 157 317 l 161 304 q 240 194 188 232 q 369 149 292 156 l 369 149 l 369 476 l 344 483 q 160 581 224 517 q 97 732 97 644 l 97 732 q 132 848 97 796 q 228 933 167 900 q 369 971 290 965 l 369 971 l 369 1086 q 383 1100 369 1100 l 383 1100 l 446 1100 q 460 1086 460 1100 l 460 1086 l 460 969 q 631 904 563 958 q 726 758 699 850 l 726 758 l 728 753 q 715 740 728 744 l 715 740 l 638 718 l 632 717 q 619 728 624 717 l 619 728 q 560 820 599 788 q 460 863 521 853 l 460 863 l 460 567 l 471 564 q 661 460 597 529 q 725 292 725 392 l 725 292 q 651 126 725 193 q 460 46 578 58 l 460 46 l 460 -71 q 446 -86 460 -86 l 446 -86 z m 214 735 q 251 651 214 685 q 369 592 288 617 l 369 592 l 369 865 q 256 823 299 858 q 214 735 214 788 l 214 735 z m 608 292 q 572 388 608 349 q 460 451 535 426 l 460 451 l 460 151 q 569 198 531 161 q 608 292 608 235 l 608 292 z "},"€":{"ha":981,"x_min":44,"x_max":904,"o":"m 154 378 l 60 378 q 44 392 44 378 l 44 392 l 44 440 q 60 454 44 454 l 60 454 l 147 454 q 146 510 146 472 l 146 510 q 147 565 146 547 l 147 565 l 60 565 q 44 581 44 565 l 44 581 l 44 628 q 60 643 44 643 l 60 643 l 154 643 q 282 935 182 832 q 538 1039 382 1039 l 538 1039 q 746 978 658 1039 q 881 807 833 918 l 881 807 q 882 801 882 806 l 882 801 q 872 788 882 792 l 872 788 l 790 763 l 785 761 q 771 771 776 761 l 771 771 q 678 886 735 847 q 538 925 621 925 l 538 925 q 366 853 433 925 q 276 643 299 782 l 276 643 l 607 643 q 621 628 621 643 l 621 628 l 621 581 q 607 565 621 565 l 607 565 l 268 565 q 267 510 267 547 l 267 510 q 268 454 267 472 l 268 454 l 607 454 q 621 440 621 454 l 621 440 l 621 392 q 607 378 621 378 l 607 378 l 276 378 q 365 167 297 239 q 538 94 432 94 l 538 94 q 788 288 722 94 l 788 288 q 807 297 793 301 l 807 297 l 890 274 q 900 254 904 269 l 900 254 q 761 53 856 126 q 538 -19 667 -19 l 538 -19 q 281 85 382 -19 q 154 378 181 189 l 154 378 z "},"£":{"ha":864,"x_min":89,"x_max":797,"o":"m 767 0 l 115 0 q 101 15 101 0 l 101 15 l 101 40 q 107 58 101 51 l 107 58 q 182 211 161 147 q 203 361 203 275 l 203 361 q 196 442 203 396 l 196 442 l 103 442 q 89 457 89 442 l 89 457 l 89 518 q 103 533 89 533 l 103 533 l 179 533 q 158 646 165 599 q 151 742 151 693 l 151 742 q 190 897 151 829 q 298 1002 228 965 q 461 1039 368 1039 l 461 1039 q 672 974 583 1039 q 796 793 760 910 l 796 793 l 797 788 q 785 775 797 778 l 785 775 l 703 753 l 697 751 q 685 763 689 751 l 685 763 q 601 883 658 842 q 467 925 544 925 l 467 925 q 322 873 374 925 q 271 722 271 821 l 271 722 q 276 652 271 688 q 293 563 282 617 l 293 563 l 299 533 l 549 533 q 564 518 564 533 l 564 518 l 564 457 q 549 442 564 442 l 549 442 l 315 442 q 318 392 318 408 l 318 392 q 303 251 318 314 q 246 110 288 188 l 246 110 l 767 110 q 781 96 781 110 l 781 96 l 781 15 q 767 0 781 0 l 767 0 z "},"¥":{"ha":942,"x_min":35,"x_max":910,"o":"m 414 203 l 183 203 q 168 217 168 203 l 168 217 l 168 265 q 183 279 168 279 l 183 279 l 414 279 l 414 396 l 183 396 q 168 410 168 396 l 168 410 l 168 458 q 183 472 168 472 l 183 472 l 369 472 l 38 1001 q 35 1010 35 1007 l 35 1010 q 47 1019 35 1019 l 47 1019 l 146 1019 q 163 1010 158 1019 l 163 1010 l 472 503 l 782 1010 q 799 1019 786 1019 l 799 1019 l 894 1019 q 906 1014 903 1019 q 906 1001 910 1008 l 906 1001 l 572 472 l 761 472 q 775 458 775 472 l 775 458 l 775 410 q 761 396 775 396 l 761 396 l 529 396 l 529 279 l 761 279 q 775 265 775 279 l 775 265 l 775 217 q 761 203 775 203 l 761 203 l 529 203 l 529 15 q 515 0 529 0 l 515 0 l 428 0 q 414 15 414 0 l 414 15 l 414 203 z "},"+":{"ha":833,"x_min":94,"x_max":740,"o":"m 457 129 l 376 129 q 367 134 371 129 q 363 144 363 139 l 363 144 l 363 400 l 108 400 q 99 405 103 400 q 94 415 94 410 l 94 415 l 94 492 q 99 502 94 497 q 108 507 103 507 l 108 507 l 363 507 l 363 763 q 367 773 363 768 q 376 778 371 778 l 376 778 l 457 778 q 468 774 464 778 q 472 763 472 769 l 472 763 l 472 507 l 725 507 q 736 503 732 507 q 740 492 740 499 l 740 492 l 740 415 q 736 405 740 410 q 725 400 732 400 l 725 400 l 472 400 l 472 144 q 468 134 472 139 q 457 129 464 129 l 457 129 z "},"−":{"ha":833,"x_min":94,"x_max":740,"o":"m 725 400 l 108 400 q 99 404 103 400 q 94 414 94 408 l 94 414 l 94 492 q 99 501 94 497 q 108 506 103 506 l 108 506 l 725 506 q 735 501 731 506 q 740 492 740 497 l 740 492 l 740 414 q 735 404 740 408 q 725 400 731 400 l 725 400 z "},"×":{"ha":833,"x_min":129,"x_max":706,"o":"m 183 172 l 135 221 q 131 232 131 225 l 131 232 q 135 243 131 239 l 135 243 l 346 454 l 133 665 q 129 675 129 669 l 129 675 q 133 688 129 682 l 133 688 l 185 740 q 196 744 189 744 l 196 744 q 207 740 203 744 l 207 740 l 419 528 l 629 738 q 640 742 633 742 q 651 739 647 743 l 651 739 l 700 689 q 704 678 704 685 l 704 678 q 699 667 704 671 l 699 667 l 490 457 l 701 246 q 706 236 706 242 l 706 236 q 701 225 706 229 l 701 225 l 650 172 q 639 168 646 168 l 639 168 q 626 172 632 168 l 626 172 l 415 383 l 206 172 q 194 167 200 167 l 194 167 q 183 172 189 167 l 183 172 z "},"÷":{"ha":833,"x_min":94,"x_max":740,"o":"m 414 640 q 359 661 381 640 q 338 715 338 682 l 338 715 q 360 768 338 747 q 414 789 382 789 l 414 789 q 468 768 446 789 q 490 715 490 747 l 490 715 q 469 661 490 682 q 414 640 447 640 l 414 640 z m 725 400 l 108 400 q 99 404 103 400 q 94 414 94 408 l 94 414 l 94 492 q 99 501 94 497 q 108 506 103 506 l 108 506 l 725 506 q 735 501 731 506 q 740 492 740 497 l 740 492 l 740 414 q 735 404 740 408 q 725 400 731 400 l 725 400 z m 414 111 q 359 133 381 111 q 338 188 338 154 l 338 188 q 360 239 338 218 q 414 260 382 260 l 414 260 q 468 239 446 260 q 490 188 490 218 l 490 188 q 469 133 490 154 q 414 111 447 111 l 414 111 z "},"=":{"ha":833,"x_min":94,"x_max":740,"o":"m 725 583 l 108 583 q 99 588 103 583 q 94 597 94 592 l 94 597 l 94 675 q 99 685 94 681 q 108 689 103 689 l 108 689 l 725 689 q 735 685 731 689 q 740 675 740 681 l 740 675 l 740 597 q 735 588 740 592 q 725 583 731 583 l 725 583 z m 725 226 l 108 226 q 99 231 103 226 q 94 240 94 235 l 94 240 l 94 318 q 99 328 94 324 q 108 332 103 332 l 108 332 l 725 332 q 735 328 731 332 q 740 318 740 324 l 740 318 l 740 240 q 735 231 740 235 q 725 226 731 226 l 725 226 z "},">":{"ha":833,"x_min":138,"x_max":724,"o":"m 714 410 l 154 129 q 146 126 149 126 l 146 126 q 138 139 138 126 l 138 139 l 138 224 q 149 242 138 235 l 149 242 l 569 449 l 149 654 q 138 672 138 661 l 138 672 l 138 758 q 142 769 138 767 q 154 769 147 772 l 154 769 l 714 489 q 724 471 724 483 l 724 471 l 724 426 q 714 410 724 414 l 714 410 z "},"<":{"ha":833,"x_min":110,"x_max":696,"o":"m 696 226 l 696 139 q 691 128 696 131 q 679 129 686 125 l 679 129 l 121 410 q 110 426 110 414 l 110 426 l 110 471 q 121 489 110 482 l 121 489 l 679 769 q 688 772 685 772 l 688 772 q 696 758 696 772 l 696 758 l 696 674 q 685 657 696 661 l 685 657 l 267 450 l 685 243 q 696 226 696 239 l 696 226 z "},"~":{"ha":833,"x_min":68,"x_max":767,"o":"m 572 293 q 490 309 524 293 q 434 348 456 325 q 386 408 413 371 l 386 408 q 331 472 356 451 q 271 493 307 493 l 271 493 q 195 451 224 493 q 163 332 167 408 l 163 332 q 149 317 163 317 l 149 317 l 82 317 q 68 332 68 317 l 68 332 q 122 529 71 458 q 263 600 174 600 l 263 600 q 345 584 311 600 q 401 545 379 568 q 449 485 422 522 l 449 485 q 503 421 479 442 q 564 400 528 400 l 564 400 q 640 443 611 400 q 672 563 668 486 l 672 563 q 686 576 672 576 l 686 576 l 753 576 q 767 556 767 576 l 767 556 q 711 363 763 432 q 572 293 660 293 l 572 293 z "},"¬":{"ha":833,"x_min":79,"x_max":681,"o":"m 667 190 l 588 190 q 571 204 571 190 l 571 204 l 571 456 l 94 456 q 79 469 79 456 l 79 469 l 79 547 q 94 561 79 561 l 94 561 l 667 561 q 681 547 681 561 l 681 547 l 681 204 q 667 190 681 190 l 667 190 z "},"^":{"ha":833,"x_min":96,"x_max":736,"o":"m 197 483 l 111 483 q 99 489 103 483 q 100 501 96 494 l 100 501 l 378 1010 q 394 1019 382 1019 l 394 1019 l 440 1019 q 457 1010 451 1019 l 457 1010 l 733 501 q 736 493 736 496 l 736 493 q 724 483 736 483 l 724 483 l 640 483 q 622 493 628 483 l 622 493 l 418 882 l 214 493 q 197 483 210 483 l 197 483 z "},"%":{"ha":1258,"x_min":43,"x_max":1215,"o":"m 276 447 q 106 525 168 447 q 43 740 43 603 l 43 740 q 106 956 43 878 q 276 1033 168 1033 l 276 1033 q 447 956 385 1033 q 510 740 510 878 l 510 740 q 447 525 510 603 q 276 447 385 447 l 276 447 z m 353 0 l 271 0 q 260 6 263 0 q 261 18 257 11 l 261 18 l 897 1010 q 915 1019 906 1019 l 915 1019 l 996 1019 q 1008 1014 1004 1019 q 1006 1001 1011 1008 l 1006 1001 l 369 10 q 353 0 364 0 l 353 0 z m 276 531 q 377 584 342 531 q 413 740 413 638 l 413 740 q 377 897 413 843 q 276 950 342 950 l 276 950 q 176 897 211 950 q 142 740 142 843 l 142 740 q 176 584 142 638 q 276 531 211 531 l 276 531 z m 982 -14 q 811 64 874 -14 q 749 279 749 142 l 749 279 q 811 494 749 417 q 982 572 874 572 l 982 572 q 1153 494 1090 572 q 1215 279 1215 417 l 1215 279 q 1153 64 1215 142 q 982 -14 1090 -14 l 982 -14 z m 982 69 q 1083 123 1047 69 q 1118 279 1118 176 l 1118 279 q 1083 435 1118 382 q 982 489 1047 489 l 982 489 q 882 435 917 489 q 847 279 847 382 l 847 279 q 882 123 847 176 q 982 69 917 69 l 982 69 z "},"‰":{"ha":1808,"x_min":43,"x_max":1765,"o":"m 276 447 q 106 525 168 447 q 43 740 43 603 l 43 740 q 106 956 43 878 q 276 1033 168 1033 l 276 1033 q 447 956 385 1033 q 510 740 510 878 l 510 740 q 447 525 510 603 q 276 447 385 447 l 276 447 z m 353 0 l 271 0 q 260 6 263 0 q 261 18 257 11 l 261 18 l 897 1010 q 915 1019 906 1019 l 915 1019 l 996 1019 q 1008 1014 1004 1019 q 1006 1001 1011 1008 l 1006 1001 l 369 10 q 353 0 364 0 l 353 0 z m 276 531 q 377 584 342 531 q 413 740 413 638 l 413 740 q 377 897 413 843 q 276 950 342 950 l 276 950 q 176 897 211 950 q 142 740 142 843 l 142 740 q 176 584 142 638 q 276 531 211 531 l 276 531 z m 982 -14 q 811 64 874 -14 q 749 279 749 142 l 749 279 q 811 494 749 417 q 982 572 874 572 l 982 572 q 1153 494 1090 572 q 1215 279 1215 417 l 1215 279 q 1153 64 1215 142 q 982 -14 1090 -14 l 982 -14 z m 1532 -14 q 1361 64 1424 -14 q 1299 279 1299 142 l 1299 279 q 1361 494 1299 417 q 1532 572 1424 572 l 1532 572 q 1703 494 1640 572 q 1765 279 1765 417 l 1765 279 q 1703 64 1765 142 q 1532 -14 1640 -14 l 1532 -14 z m 982 69 q 1083 123 1047 69 q 1118 279 1118 176 l 1118 279 q 1083 435 1118 382 q 982 489 1047 489 l 982 489 q 882 435 917 489 q 847 279 847 382 l 847 279 q 882 123 847 176 q 982 69 917 69 l 982 69 z m 1532 69 q 1633 123 1597 69 q 1668 279 1668 176 l 1668 279 q 1633 435 1668 382 q 1532 489 1597 489 l 1532 489 q 1432 435 1467 489 q 1397 279 1397 382 l 1397 279 q 1432 123 1397 176 q 1532 69 1467 69 l 1532 69 z "},"✉":{"ha":1389,"x_min":249,"x_max":1138,"o":"m 1031 106 l 358 106 q 281 137 313 106 q 249 214 249 168 l 249 214 l 249 743 q 281 822 249 789 q 358 854 313 854 l 358 854 l 1031 854 q 1106 822 1075 854 q 1138 743 1138 789 l 1138 743 l 1138 214 q 1106 138 1138 169 q 1031 106 1075 106 l 1031 106 z m 693 419 l 1019 694 q 1031 717 1031 703 l 1031 717 q 1024 733 1031 725 q 1006 742 1018 742 l 1006 742 q 988 735 996 742 l 988 735 l 693 486 l 399 735 q 381 742 389 742 l 381 742 q 362 733 368 742 q 356 717 356 725 l 356 717 q 367 694 356 703 l 367 694 l 693 419 z "},"@":{"ha":1369,"x_min":81,"x_max":1289,"o":"m 682 -281 q 363 -206 499 -281 q 153 3 226 -132 q 81 314 81 138 l 81 314 q 158 630 81 493 q 374 841 235 767 q 694 915 513 915 l 694 915 q 1010 844 876 915 q 1217 641 1144 772 q 1289 338 1289 510 l 1289 338 q 1258 156 1289 236 q 1172 31 1228 76 q 1046 -14 1117 -14 l 1046 -14 q 938 23 979 -14 q 890 128 896 60 l 890 128 q 794 24 858 63 q 654 -14 731 -14 l 654 -14 q 494 27 564 -14 q 387 142 425 68 q 349 313 349 217 l 349 313 q 387 483 349 408 q 494 598 425 557 q 654 639 564 639 l 654 639 q 790 603 728 639 q 885 508 851 568 l 885 508 l 889 611 q 904 626 889 626 l 904 626 l 961 626 q 975 611 975 626 l 975 611 l 975 186 q 995 104 975 131 q 1058 78 1015 78 l 1058 78 q 1153 151 1117 78 q 1190 338 1190 225 l 1190 338 q 1128 603 1190 493 q 955 769 1067 713 q 694 825 843 825 l 694 825 q 429 767 546 825 q 246 594 313 710 q 179 314 179 479 l 179 314 q 244 37 179 150 q 426 -133 310 -76 q 696 -190 543 -190 l 696 -190 q 835 -178 771 -190 l 835 -178 l 840 -176 q 850 -190 850 -176 l 850 -190 l 850 -250 q 840 -265 850 -264 l 840 -265 q 682 -281 778 -281 l 682 -281 z m 668 81 q 824 144 764 81 q 883 313 883 208 l 883 313 q 824 481 883 417 q 668 546 764 546 l 668 546 q 513 481 572 546 q 453 313 453 417 l 453 313 q 513 144 453 208 q 668 81 572 81 l 668 81 z "},"&":{"ha":969,"x_min":85,"x_max":921,"o":"m 458 -19 q 257 20 342 -19 q 128 128 172 60 q 85 282 85 197 l 85 282 q 134 446 85 379 q 279 539 183 513 l 279 539 q 157 629 199 568 q 115 771 115 690 l 115 771 q 158 908 115 847 q 274 1004 200 969 q 440 1039 349 1039 l 440 1039 q 651 975 563 1039 q 767 804 739 911 l 767 804 l 768 799 q 757 786 768 790 l 757 786 l 672 767 l 668 767 q 654 778 658 767 l 654 778 q 574 893 631 851 q 440 935 518 935 l 440 935 q 294 885 351 935 q 236 757 236 835 l 236 757 q 283 633 236 682 q 411 585 331 585 l 411 585 l 467 585 q 481 571 481 585 l 481 571 l 481 499 q 467 483 481 483 l 467 483 l 417 483 q 261 432 317 483 q 206 293 206 381 l 206 293 q 272 143 206 201 q 458 85 338 85 l 458 85 q 663 144 594 85 q 731 306 731 203 l 731 306 q 698 429 731 374 q 619 485 665 485 l 619 485 l 608 485 q 599 499 599 485 l 599 499 l 599 571 q 613 585 599 585 l 613 585 l 907 585 q 921 571 921 585 l 921 571 l 921 499 q 907 483 921 483 l 907 483 l 772 483 q 825 402 806 451 q 844 293 844 353 l 844 293 q 801 132 844 203 q 669 21 757 61 q 458 -19 582 -19 l 458 -19 z "},"¶":{"ha":815,"x_min":72,"x_max":676,"o":"m 492 -125 l 431 -125 q 417 -110 417 -125 l 417 -110 l 417 338 l 408 338 q 239 378 315 338 q 117 495 163 418 q 72 679 72 572 l 72 679 q 117 863 72 786 q 239 980 163 940 q 408 1019 315 1019 l 408 1019 l 661 1019 q 676 1006 676 1019 l 676 1006 l 676 -110 q 661 -125 676 -125 l 661 -125 l 600 -125 q 586 -110 586 -125 l 586 -110 l 586 936 l 507 936 l 507 -110 q 492 -125 507 -125 l 492 -125 z "},"§":{"ha":717,"x_min":89,"x_max":626,"o":"m 324 -147 q 179 -107 239 -147 q 90 17 119 -67 l 90 17 q 89 24 89 19 l 89 24 q 100 36 89 33 l 100 36 l 171 54 l 174 54 q 189 44 183 54 l 189 44 q 242 -28 211 -6 q 318 -51 274 -51 l 318 -51 q 406 -21 374 -51 q 439 57 439 10 l 439 57 q 404 186 439 119 l 404 186 q 358 183 376 183 l 358 183 q 217 217 278 183 q 124 310 157 250 q 90 446 90 369 l 90 446 q 122 578 90 519 q 210 671 153 636 l 210 671 q 171 754 183 714 q 158 839 158 794 l 158 839 q 186 940 158 894 q 265 1013 214 986 q 382 1039 315 1039 l 382 1039 q 526 999 467 1039 q 615 875 586 958 l 615 875 q 617 868 617 872 l 617 868 q 606 856 617 858 l 606 856 l 535 838 l 531 838 q 517 847 519 838 l 517 847 q 463 920 494 897 q 388 943 432 943 l 388 943 q 299 913 332 943 q 267 835 267 882 l 267 835 q 301 704 267 771 l 301 704 q 358 708 328 708 l 358 708 q 499 674 438 708 q 593 581 560 640 q 626 446 626 521 l 626 446 q 593 309 626 369 q 499 217 560 249 l 499 217 q 535 135 524 174 q 547 53 547 96 l 547 53 q 519 -49 547 -3 q 441 -121 492 -94 q 324 -147 390 -147 l 324 -147 z m 358 272 q 481 320 433 272 q 528 446 528 368 l 528 446 q 481 572 528 524 q 358 619 433 619 l 358 619 q 236 572 283 619 q 189 446 189 524 l 189 446 q 236 320 189 368 q 358 272 283 272 l 358 272 z "},"©":{"ha":1199,"x_min":76,"x_max":1122,"o":"m 600 -19 q 331 48 450 -19 q 144 235 211 115 q 76 510 76 356 l 76 510 q 144 784 76 664 q 331 972 211 904 q 600 1039 450 1039 l 600 1039 q 869 972 750 1039 q 1055 784 988 904 q 1122 510 1122 664 l 1122 510 q 1055 235 1122 356 q 869 48 988 115 q 600 -19 750 -19 l 600 -19 z m 600 51 q 837 112 735 51 q 994 276 939 172 q 1049 510 1049 381 l 1049 510 q 994 744 1049 639 q 837 908 939 849 q 600 968 735 968 l 600 968 q 363 908 465 968 q 206 743 261 847 q 151 510 151 639 l 151 510 q 206 276 151 381 q 363 112 261 172 q 600 51 465 51 l 600 51 z m 603 224 q 459 260 521 224 q 364 362 397 297 q 331 510 331 426 l 331 510 q 365 658 331 593 q 460 760 399 724 q 601 796 521 796 l 601 796 q 746 758 685 796 q 835 649 807 721 l 835 649 l 836 643 q 825 631 836 633 l 825 631 l 772 617 l 769 617 q 754 626 760 617 l 754 626 q 695 692 733 669 q 606 714 657 714 l 606 714 q 469 655 517 714 q 422 510 422 596 l 422 510 q 469 365 422 422 q 607 307 517 307 l 607 307 q 700 331 661 307 q 758 400 739 354 l 758 400 q 776 410 763 414 l 776 410 l 832 393 q 842 375 846 389 l 842 375 q 749 263 813 301 q 603 224 686 224 l 603 224 z "},"®":{"ha":871,"x_min":76,"x_max":794,"o":"m 436 325 q 250 371 332 325 q 122 499 168 417 q 76 686 76 581 l 76 686 q 122 874 76 792 q 250 1003 168 957 q 436 1049 332 1049 l 436 1049 q 622 1003 540 1049 q 749 874 703 957 q 794 686 794 792 l 794 686 q 749 499 794 581 q 622 371 703 417 q 436 325 540 325 l 436 325 z m 436 383 q 595 424 528 383 q 699 533 663 464 q 735 686 735 601 l 735 686 q 699 840 735 771 q 595 950 663 910 q 436 990 528 990 l 436 990 q 277 950 344 990 q 174 840 210 910 q 138 686 138 771 l 138 686 q 174 533 138 601 q 277 424 210 464 q 436 383 344 383 l 436 383 z m 364 528 l 332 528 q 321 539 321 528 l 321 539 l 321 858 q 332 869 321 869 l 332 869 l 433 869 q 533 840 501 869 q 565 763 565 811 l 565 763 q 497 663 565 683 l 497 663 l 569 542 q 571 535 571 539 l 571 535 q 563 528 571 528 l 563 528 l 525 528 q 513 535 517 528 l 513 535 l 443 653 l 375 653 l 375 539 q 364 528 375 528 l 364 528 z m 432 819 l 375 819 l 375 703 l 432 703 q 491 717 472 703 q 510 763 510 732 l 510 763 q 432 819 510 819 l 432 819 z "},"™":{"ha":1313,"x_min":32,"x_max":1251,"o":"m 329 458 l 247 458 q 233 474 233 458 l 233 474 l 233 919 l 47 919 q 32 933 32 919 l 32 933 l 32 1006 q 47 1019 32 1019 l 47 1019 l 531 1019 q 544 1006 544 1019 l 544 1006 l 544 933 q 531 919 544 919 l 531 919 l 344 919 l 344 474 q 329 458 344 458 l 329 458 z m 713 458 l 638 458 q 624 474 624 458 l 624 474 l 624 1006 q 638 1019 624 1019 l 638 1019 l 718 1019 q 735 1010 729 1019 l 735 1010 l 940 671 l 1143 1010 q 1160 1019 1147 1019 l 1160 1019 l 1238 1019 q 1251 1006 1251 1019 l 1251 1006 l 1251 474 q 1238 458 1251 458 l 1238 458 l 1163 458 q 1147 474 1147 458 l 1147 474 l 1147 850 l 981 575 q 964 565 976 565 l 964 565 l 907 565 q 890 575 896 565 l 890 575 l 728 842 l 728 474 q 713 458 728 458 l 713 458 z "},"°":{"ha":571,"x_min":81,"x_max":490,"o":"m 286 638 q 138 694 194 638 q 81 839 81 750 l 81 839 q 138 983 81 926 q 286 1039 194 1039 l 286 1039 q 434 983 378 1039 q 490 839 490 926 l 490 839 q 434 694 490 750 q 286 638 378 638 l 286 638 z m 286 711 q 375 746 340 711 q 410 839 410 781 l 410 839 q 375 932 410 897 q 286 967 340 967 l 286 967 q 196 932 231 967 q 161 839 161 897 l 161 839 q 196 746 161 781 q 286 711 231 711 l 286 711 z "},"|":{"ha":382,"x_min":136,"x_max":247,"o":"m 232 -153 l 150 -153 q 140 -148 144 -153 q 136 -137 136 -143 l 136 -137 l 136 1028 q 140 1038 136 1033 q 150 1042 144 1042 l 150 1042 l 232 1042 q 242 1038 238 1042 q 247 1028 247 1033 l 247 1028 l 247 -137 q 243 -149 247 -144 q 232 -153 239 -153 l 232 -153 z "},"†":{"ha":663,"x_min":74,"x_max":590,"o":"m 374 -125 l 289 -125 q 276 -111 276 -125 l 276 -111 l 276 633 l 86 633 q 74 646 74 633 l 74 646 l 74 721 q 86 733 74 733 l 86 733 l 276 733 l 276 1007 q 289 1019 276 1019 l 289 1019 l 374 1019 q 388 1007 388 1019 l 388 1007 l 388 733 l 576 733 q 590 721 590 733 l 590 721 l 590 646 q 586 637 590 640 q 576 633 582 633 l 576 633 l 388 633 l 388 -111 q 374 -125 388 -125 l 374 -125 z "},"‡":{"ha":663,"x_min":74,"x_max":590,"o":"m 276 175 l 86 175 q 77 179 81 175 q 74 189 74 183 l 74 189 l 74 263 q 86 276 74 276 l 86 276 l 276 276 l 276 633 l 86 633 q 74 646 74 633 l 74 646 l 74 721 q 86 733 74 733 l 86 733 l 276 733 l 276 1007 q 289 1019 276 1019 l 289 1019 l 374 1019 q 388 1007 388 1019 l 388 1007 l 388 733 l 576 733 q 590 721 590 733 l 590 721 l 590 646 q 586 637 590 640 q 576 633 582 633 l 576 633 l 388 633 l 388 276 l 576 276 q 590 263 590 276 l 590 263 l 590 189 q 576 175 590 175 l 576 175 l 388 175 l 388 -111 q 374 -125 388 -125 l 374 -125 l 289 -125 q 276 -111 276 -125 l 276 -111 l 276 175 z "},"🎵":{"ha":1389,"x_min":275,"x_max":1025,"o":"m 404 49 q 313 88 351 49 q 275 179 275 126 l 275 179 q 313 274 275 235 q 404 314 351 314 l 404 314 q 472 296 436 314 l 472 296 l 472 744 q 485 781 472 764 q 517 803 499 797 l 517 803 l 951 918 q 965 919 956 919 l 965 919 q 1007 902 989 919 q 1025 863 1025 885 l 1025 863 l 1025 313 q 986 217 1025 257 q 890 178 947 178 l 890 178 q 798 216 836 178 q 760 313 760 254 l 760 313 q 799 404 760 365 q 890 443 838 443 l 890 443 q 960 425 925 443 l 960 425 l 960 724 l 540 611 l 540 179 q 500 88 540 126 q 404 49 460 49 l 404 49 z "},"👤":{"ha":1389,"x_min":261,"x_max":1129,"o":"m 261 0 l 261 126 q 278 192 261 161 q 324 242 294 224 l 324 242 l 565 392 q 581 422 581 401 l 581 422 q 574 454 581 440 q 567 471 568 468 l 567 471 l 535 531 q 526 547 531 538 q 514 569 521 557 l 514 569 q 481 608 492 583 q 469 658 469 633 l 469 658 q 482 707 469 682 l 482 707 q 545 874 486 810 q 696 938 604 938 l 696 938 q 847 874 788 938 q 908 707 906 810 l 908 707 q 921 658 921 682 l 921 658 q 910 608 921 633 q 876 569 899 583 l 876 569 q 865 547 869 557 q 856 531 860 538 l 856 531 l 824 471 q 810 422 810 440 l 810 422 q 825 392 810 401 l 825 392 l 1067 243 q 1113 193 1096 225 q 1129 126 1129 161 l 1129 126 l 1129 0 l 261 0 z "},"💬":{"ha":1389,"x_min":260,"x_max":1128,"o":"m 485 22 l 453 54 q 319 239 379 128 q 260 475 260 350 l 260 475 q 314 709 260 608 q 467 864 368 810 q 700 918 567 918 l 700 918 q 926 872 829 918 q 1075 740 1022 825 q 1128 539 1128 654 l 1128 539 q 1077 346 1128 435 q 939 205 1026 257 q 749 153 851 153 l 749 153 l 632 153 q 553 126 586 153 q 503 61 521 100 l 503 61 l 485 22 z m 513 467 q 544 481 531 467 q 558 513 558 494 l 558 513 q 545 547 558 533 q 513 560 532 560 l 513 560 q 481 547 493 560 q 468 513 468 533 l 468 513 q 481 481 468 494 q 513 467 494 467 l 513 467 z m 690 467 q 722 481 708 467 q 736 513 736 494 l 736 513 q 722 547 736 533 q 690 560 708 560 l 690 560 q 658 547 671 560 q 646 513 646 533 l 646 513 q 659 481 646 494 q 690 467 672 467 l 690 467 z m 868 467 q 899 481 886 467 q 913 513 913 494 l 913 513 q 899 547 913 533 q 868 560 886 560 l 868 560 q 835 547 847 560 q 822 513 822 533 l 822 513 q 835 481 822 494 q 868 467 849 467 l 868 467 z "},"📞":{"ha":1389,"x_min":236,"x_max":1154,"o":"m 940 19 q 720 83 839 19 q 483 265 601 147 l 483 265 q 303 507 369 379 q 236 732 236 635 l 236 732 q 272 839 236 801 l 272 839 l 342 910 q 411 938 369 938 l 411 938 q 490 903 460 938 l 490 903 l 597 781 q 611 744 611 764 l 611 744 q 592 704 611 724 l 592 704 l 499 608 q 540 526 500 582 q 633 417 581 469 l 633 417 q 742 326 685 365 q 824 283 799 286 l 824 283 l 918 378 q 961 396 936 396 l 961 396 q 1000 381 982 396 l 1000 381 l 1121 272 q 1154 197 1154 243 l 1154 197 q 1126 128 1154 156 l 1126 128 l 1057 57 q 1009 29 1040 39 q 940 19 978 19 l 940 19 z "},"📷":{"ha":1389,"x_min":250,"x_max":1138,"o":"m 1079 81 l 307 81 q 267 98 283 81 q 250 139 250 115 l 250 139 l 250 775 q 267 817 250 800 q 307 835 283 835 l 307 835 l 479 835 l 524 899 q 574 924 540 924 l 574 924 l 813 924 q 838 917 825 924 q 858 900 850 911 l 858 900 l 908 835 l 1079 835 q 1120 817 1103 835 q 1138 775 1138 800 l 1138 775 l 1138 139 q 1120 98 1138 115 q 1079 81 1103 81 l 1079 81 z m 693 267 q 789 292 744 267 q 859 362 833 318 q 885 457 885 406 l 885 457 q 859 554 885 510 q 789 624 833 599 q 693 650 744 650 l 693 650 q 598 624 642 650 q 528 554 554 599 q 503 457 503 510 l 503 457 q 528 362 503 406 q 598 292 554 318 q 693 267 642 267 l 693 267 z m 693 317 q 594 358 636 317 q 551 457 551 400 l 551 457 q 593 557 551 515 q 693 599 635 599 l 693 599 q 793 558 751 599 q 835 457 835 517 l 835 457 q 793 358 835 400 q 693 317 751 317 l 693 317 z "},"🔈":{"ha":1389,"x_min":199,"x_max":1189,"o":"m 785 21 q 760 29 771 21 l 760 29 l 514 268 l 232 268 q 208 277 218 268 q 199 299 199 286 l 199 299 l 199 658 q 208 681 199 672 q 232 690 218 690 l 232 690 l 514 690 l 760 929 q 786 940 771 940 l 786 940 q 808 930 799 940 q 817 904 817 919 l 817 904 l 817 51 q 809 28 817 35 q 785 21 801 21 l 785 21 z m 1022 169 l 988 226 q 1088 333 1051 267 q 1125 475 1125 399 l 1125 475 q 988 722 1125 626 l 988 722 l 1022 778 q 1144 647 1099 729 q 1189 475 1189 565 l 1189 475 q 1145 301 1189 381 q 1022 169 1101 221 l 1022 169 z m 943 297 l 907 353 q 974 481 974 400 l 974 481 q 956 543 974 514 q 907 594 939 572 l 907 594 l 943 650 q 1016 573 993 615 q 1039 474 1039 531 l 1039 474 q 1013 375 1039 422 q 943 297 988 328 l 943 297 z "},"🔍":{"ha":1389,"x_min":240,"x_max":1149,"o":"m 1079 18 l 825 271 q 606 196 732 196 l 606 196 q 423 245 507 196 q 290 378 339 294 q 240 561 240 463 l 240 561 q 290 744 240 660 q 423 877 339 828 q 606 926 507 926 l 606 926 q 790 877 706 926 q 923 744 874 828 q 972 561 972 660 l 972 561 q 896 342 972 438 l 896 342 l 1149 88 l 1079 18 z m 606 296 q 738 331 678 296 q 834 428 799 367 q 869 561 869 489 l 869 561 q 834 694 869 633 q 738 790 799 754 q 606 825 678 825 l 606 825 q 473 790 533 825 q 377 694 413 754 q 342 561 342 633 l 342 561 q 377 428 342 489 q 473 332 413 368 q 606 296 533 296 l 606 296 z "},"🕓":{"ha":1389,"x_min":228,"x_max":1160,"o":"m 693 13 q 460 75 567 13 q 291 244 354 138 q 228 476 228 351 l 228 476 q 291 708 228 601 q 461 878 354 815 q 693 940 568 940 l 693 940 q 926 877 819 940 q 1097 708 1033 814 q 1160 475 1160 601 l 1160 475 q 1097 244 1160 350 q 926 75 1033 138 q 693 13 819 13 l 693 13 z m 668 461 l 842 361 l 865 406 l 718 490 l 718 731 l 668 731 l 668 461 z "},"🛍":{"ha":1389,"x_min":314,"x_max":1074,"o":"m 314 249 l 314 760 q 331 801 314 783 q 371 818 349 818 l 371 818 l 513 818 q 537 910 513 868 q 603 976 561 951 q 693 1000 644 1000 l 693 1000 q 785 976 743 1000 q 851 910 826 951 q 875 818 875 868 l 875 818 l 1015 818 q 1056 801 1039 818 q 1074 760 1074 783 l 1074 760 l 1074 249 l 314 249 z m 578 818 l 810 818 q 776 901 810 867 q 693 935 742 935 l 693 935 q 612 901 646 935 q 578 818 578 867 l 578 818 z m 1015 24 l 371 24 q 331 41 347 24 q 314 83 314 58 l 314 83 l 314 200 l 1074 200 l 1074 83 q 1056 41 1074 58 q 1015 24 1039 24 l 1015 24 z "},"☻":{"ha":1389,"x_min":228,"x_max":1160,"o":"m 693 13 q 460 75 567 13 q 291 244 354 138 q 228 476 228 351 l 228 476 q 291 708 228 601 q 461 878 354 815 q 693 940 568 940 l 693 940 q 926 877 819 940 q 1097 708 1033 814 q 1160 475 1160 601 l 1160 475 q 1097 244 1160 350 q 926 75 1033 138 q 693 13 819 13 l 693 13 z m 550 517 q 584 532 569 517 q 599 568 599 547 l 599 568 q 584 603 599 588 q 550 618 569 618 l 550 618 q 513 603 528 618 q 497 568 497 589 l 497 568 q 513 532 497 547 q 550 517 528 517 l 550 517 z m 840 517 q 877 532 863 517 q 892 568 892 547 l 892 568 q 877 603 892 589 q 840 618 863 618 l 840 618 q 806 603 821 618 q 792 568 792 588 l 792 568 q 806 532 792 547 q 840 517 821 517 l 840 517 z m 694 272 q 801 300 751 272 q 878 376 850 328 l 878 376 q 882 390 882 383 l 882 390 q 868 410 882 404 l 868 410 q 856 413 860 413 l 856 413 q 832 401 839 413 l 832 401 q 776 342 814 364 q 694 321 738 321 l 694 321 q 617 342 653 321 q 557 401 581 364 l 557 401 q 533 413 550 413 l 533 413 q 515 406 522 413 q 508 390 508 400 l 508 390 q 513 376 508 383 l 513 376 q 592 300 544 328 q 694 272 640 272 l 694 272 z "},"":{"ha":1389,"x_min":204,"x_max":1183,"o":"m 963 0 l 425 0 q 315 30 365 0 q 234 110 264 60 q 204 221 204 161 l 204 221 l 204 758 q 234 869 204 818 q 315 949 264 919 q 425 979 365 979 l 425 979 l 963 979 q 1073 949 1022 979 q 1153 869 1124 919 q 1183 758 1183 818 l 1183 758 l 1183 221 q 1153 110 1183 161 q 1073 30 1124 60 q 963 0 1022 0 l 963 0 z m 676 178 q 694 183 681 178 l 694 183 q 817 259 728 197 q 951 372 906 321 l 951 372 q 1021 535 1021 453 l 1021 535 q 977 668 1021 607 q 858 765 933 729 q 694 801 783 801 l 694 801 q 532 765 607 801 q 413 668 457 729 q 368 535 368 607 l 368 535 q 403 415 368 471 q 501 322 439 360 q 640 274 564 285 l 640 274 q 669 258 664 271 l 669 258 q 671 246 671 256 l 671 246 q 669 228 671 232 l 669 228 l 664 192 q 676 178 664 178 l 676 178 z m 572 451 l 481 451 q 475 458 475 451 l 475 458 l 475 600 q 476 605 475 603 q 481 607 478 607 l 481 607 l 504 607 q 508 605 507 607 q 510 600 510 603 l 510 600 l 510 488 l 572 488 q 578 481 578 488 l 578 481 l 578 458 q 572 451 578 451 l 572 451 z m 628 451 l 604 451 q 597 458 597 451 l 597 458 l 597 600 q 599 605 597 603 q 604 607 601 607 l 604 607 l 628 607 q 633 605 631 607 q 635 600 635 603 l 635 600 l 635 458 q 628 451 635 451 l 628 451 z m 686 451 l 663 451 q 657 458 657 451 l 657 458 l 657 600 q 658 605 657 603 q 663 607 660 607 l 663 607 l 685 607 q 692 601 689 607 l 692 601 l 756 515 l 756 600 q 757 605 756 603 q 761 607 758 607 l 761 607 l 786 607 q 790 605 789 607 q 792 600 792 603 l 792 600 l 792 458 q 786 451 792 451 l 786 451 l 763 451 q 756 456 758 451 l 756 456 l 692 542 l 692 458 q 686 451 692 451 l 686 451 z m 911 451 l 821 451 q 814 458 814 451 l 814 458 l 814 600 q 816 605 814 603 q 821 607 818 607 l 821 607 l 911 607 q 916 605 914 607 q 918 600 918 603 l 918 600 l 918 578 q 916 572 918 575 q 911 569 914 569 l 911 569 l 850 569 l 850 546 l 911 546 q 918 540 918 546 l 918 540 l 918 517 q 911 511 918 511 l 911 511 l 850 511 l 850 488 l 911 488 q 918 481 918 488 l 918 481 l 918 458 q 911 451 918 451 l 911 451 z "},"":{"ha":2022,"x_min":225,"x_max":1797,"o":"m 572 204 l 247 204 q 232 210 239 204 q 225 225 225 217 l 225 225 l 225 732 q 232 747 225 742 q 247 753 239 753 l 247 753 l 331 753 q 347 747 340 753 q 353 732 353 742 l 353 732 l 353 331 l 572 331 q 588 324 582 331 q 594 308 594 318 l 594 308 l 594 225 q 588 210 594 215 q 572 204 582 204 l 572 204 z m 768 204 l 686 204 q 671 210 676 204 q 665 225 665 215 l 665 225 l 665 732 q 671 747 665 742 q 686 753 676 753 l 686 753 l 768 753 q 784 747 778 753 q 790 732 790 742 l 790 732 l 790 225 q 784 210 790 215 q 768 204 778 204 l 768 204 z m 974 204 l 892 204 q 876 210 882 204 q 869 225 869 215 l 869 225 l 869 732 q 876 747 869 742 q 892 753 882 753 l 892 753 l 971 753 q 996 740 988 753 l 996 740 l 1222 431 l 1222 732 q 1228 747 1222 742 q 1243 753 1235 753 l 1243 753 l 1328 753 q 1343 747 1336 753 q 1350 732 1350 742 l 1350 732 l 1350 225 q 1343 210 1350 217 q 1328 204 1336 204 l 1328 204 l 1246 204 q 1221 217 1229 204 l 1221 217 l 994 526 l 994 225 q 989 210 994 215 q 974 204 983 204 l 974 204 z m 1775 204 l 1450 204 q 1435 210 1442 204 q 1428 225 1428 217 l 1428 225 l 1428 732 q 1435 747 1428 742 q 1450 753 1442 753 l 1450 753 l 1775 753 q 1790 747 1783 753 q 1797 732 1797 742 l 1797 732 l 1797 649 q 1790 634 1797 640 q 1775 628 1783 628 l 1775 628 l 1553 628 l 1553 542 l 1775 542 q 1790 535 1783 542 q 1797 521 1797 529 l 1797 521 l 1797 436 q 1790 422 1797 428 q 1775 415 1783 415 l 1775 415 l 1553 415 l 1553 331 l 1775 331 q 1790 324 1783 331 q 1797 308 1797 318 l 1797 308 l 1797 225 q 1790 210 1797 217 q 1775 204 1783 204 l 1775 204 z "},"":{"ha":1553,"x_min":69,"x_max":1483,"o":"m 246 308 q 119 358 168 308 q 69 486 69 407 l 69 486 q 119 613 69 564 q 246 663 168 663 l 246 663 q 374 613 324 663 q 424 486 424 564 l 424 486 q 374 358 424 407 q 246 308 324 308 l 246 308 z m 779 329 l 575 329 q 569 335 569 329 l 569 335 l 569 636 q 575 643 569 643 l 575 643 l 622 643 q 628 636 628 643 l 628 636 l 628 385 l 779 385 q 783 379 783 385 l 783 379 l 783 335 q 779 329 783 329 l 779 329 z m 874 329 l 828 329 q 822 335 822 329 l 822 335 l 822 636 q 828 643 822 643 l 828 643 l 874 643 q 879 636 879 643 l 879 636 l 879 335 q 874 329 879 329 l 874 329 z m 996 329 l 951 329 q 946 335 946 329 l 946 335 l 946 636 q 951 643 946 643 l 951 643 l 1000 643 q 1007 639 1004 643 l 1007 639 l 1147 424 l 1147 636 q 1153 643 1147 643 l 1153 643 l 1196 643 q 1201 636 1201 643 l 1201 636 l 1201 335 q 1196 329 1201 329 l 1196 329 l 1149 329 q 1142 333 1144 329 l 1142 333 l 1001 550 l 1001 335 q 996 329 1001 329 l 996 329 z m 1476 329 l 1274 329 q 1268 335 1268 329 l 1268 335 l 1268 636 q 1274 643 1268 643 l 1274 643 l 1472 643 q 1478 636 1478 643 l 1478 636 l 1478 593 q 1472 588 1478 588 l 1472 588 l 1325 588 l 1325 517 l 1458 517 q 1463 511 1463 517 l 1463 511 l 1463 468 q 1458 464 1463 464 l 1458 464 l 1325 464 l 1325 383 l 1476 383 q 1483 378 1483 383 l 1483 378 l 1483 335 q 1476 329 1483 329 l 1476 329 z m 246 340 q 349 381 310 340 q 389 486 389 422 l 389 486 q 349 590 389 549 q 246 631 310 631 l 246 631 q 142 590 182 631 q 103 486 103 549 l 103 486 q 142 381 103 422 q 246 340 182 340 l 246 340 z m 247 390 q 179 417 204 390 q 154 486 154 443 l 154 486 q 179 554 154 528 q 246 581 204 581 l 246 581 q 329 529 311 581 l 329 529 q 325 522 331 525 l 325 522 l 296 514 q 288 518 292 513 l 288 518 q 271 535 279 531 q 249 540 263 540 l 249 540 q 213 525 225 540 q 200 486 200 510 l 200 486 q 213 447 200 463 q 250 431 226 431 l 250 431 q 274 437 264 431 q 289 454 285 443 l 289 454 q 296 458 290 460 l 296 458 l 328 450 q 332 443 333 449 l 332 443 q 300 403 324 417 q 247 390 276 390 l 247 390 z "},"ﬄ":{"ha":1268,"x_min":22,"x_max":1160,"o":"m 251 0 l 169 0 q 154 15 154 0 l 154 15 l 154 601 l 38 601 q 22 615 22 601 l 22 615 l 22 688 q 38 701 22 701 l 38 701 l 154 701 l 154 793 q 217 984 154 917 q 386 1051 281 1051 l 386 1051 q 558 988 483 1051 l 558 988 q 560 967 567 979 l 560 967 l 532 910 q 524 903 529 904 q 511 906 518 901 l 511 906 q 452 939 479 929 q 393 949 425 949 l 393 949 q 297 910 328 949 q 265 792 265 872 l 265 792 l 265 701 l 601 701 l 601 793 q 662 984 601 917 q 826 1051 722 1051 l 826 1051 q 990 988 925 1051 l 990 988 q 990 967 1000 976 l 990 967 l 954 913 q 944 906 950 907 q 933 910 939 904 l 933 910 q 887 940 910 931 q 833 949 864 949 l 833 949 q 713 792 713 949 l 713 792 l 713 701 l 911 701 q 926 688 926 701 l 926 688 l 926 615 q 911 601 926 601 l 911 601 l 713 601 l 713 15 q 699 0 713 0 l 699 0 l 617 0 q 601 15 601 0 l 601 15 l 601 601 l 265 601 l 265 15 q 251 0 265 0 l 251 0 z m 1146 0 l 1064 0 q 1049 15 1049 0 l 1049 15 l 1049 1028 q 1064 1042 1049 1042 l 1064 1042 l 1146 1042 q 1160 1028 1160 1042 l 1160 1028 l 1160 15 q 1146 0 1160 0 l 1146 0 z "},"ﬃ":{"ha":1269,"x_min":22,"x_max":1179,"o":"m 251 0 l 169 0 q 154 15 154 0 l 154 15 l 154 601 l 38 601 q 22 615 22 601 l 22 615 l 22 688 q 38 701 22 701 l 38 701 l 154 701 l 154 793 q 218 984 154 917 q 386 1051 282 1051 l 386 1051 q 558 988 483 1051 l 558 988 q 560 967 567 979 l 560 967 l 532 910 q 524 903 529 904 q 511 906 518 901 l 511 906 q 452 939 479 929 q 393 949 425 949 l 393 949 q 297 910 328 949 q 265 792 265 872 l 265 792 l 265 701 l 601 701 l 601 793 q 662 984 601 917 q 826 1051 722 1051 l 826 1051 q 990 988 925 1051 l 990 988 q 990 967 1000 976 l 990 967 l 954 913 q 944 906 950 907 q 933 910 939 904 l 933 910 q 887 940 910 931 q 833 949 864 949 l 833 949 q 713 792 713 949 l 713 792 l 713 701 l 1146 701 q 1160 688 1160 701 l 1160 688 l 1160 15 q 1146 0 1160 0 l 1146 0 l 1064 0 q 1049 15 1049 0 l 1049 15 l 1049 601 l 713 601 l 713 15 q 699 0 713 0 l 699 0 l 617 0 q 601 15 601 0 l 601 15 l 601 601 l 265 601 l 265 15 q 251 0 265 0 l 251 0 z m 1104 849 q 1051 869 1072 849 q 1031 921 1031 889 l 1031 921 q 1051 973 1031 953 q 1104 993 1072 993 l 1104 993 q 1158 973 1136 993 q 1179 921 1179 953 l 1179 921 q 1158 869 1179 889 q 1104 849 1136 849 l 1104 849 z "},"ﬀ":{"ha":965,"x_min":22,"x_max":1028,"o":"m 251 0 l 169 0 q 154 15 154 0 l 154 15 l 154 601 l 38 601 q 22 615 22 601 l 22 615 l 22 688 q 38 701 22 701 l 38 701 l 154 701 l 154 793 q 217 984 154 917 q 386 1051 281 1051 l 386 1051 q 558 988 483 1051 l 558 988 q 560 967 567 979 l 560 967 l 532 910 q 524 903 529 904 q 511 906 518 901 l 511 906 q 452 939 479 929 q 393 949 425 949 l 393 949 q 297 910 328 949 q 265 792 265 872 l 265 792 l 265 701 l 601 701 l 601 793 q 661 984 601 917 q 819 1051 721 1051 l 819 1051 q 1026 914 963 1051 l 1026 914 q 1028 908 1028 913 l 1028 908 q 1018 894 1028 899 l 1018 894 l 953 868 l 947 867 q 933 876 939 867 l 933 876 q 889 931 915 914 q 826 949 863 949 l 826 949 q 713 792 713 949 l 713 792 l 713 701 l 911 701 q 926 688 926 701 l 926 688 l 926 615 q 911 601 926 601 l 911 601 l 713 601 l 713 15 q 699 0 713 0 l 699 0 l 617 0 q 601 15 601 0 l 601 15 l 601 601 l 265 601 l 265 15 q 251 0 265 0 l 251 0 z "}}}
